header<?xml version="1.0" standalone="no"?>
<!DOCTYPE svg PUBLIC "-//W3C//DTD SVG 20010904//EN"
 "http://www.w3.org/TR/2001/REC-SVG-20010904/DTD/svg10.dtd">
<svg version="1.0" xmlns="http://www.w3.org/2000/svg"
 width="6000.000000pt" height="1656.000000pt" viewBox="0 0 6000.000000 1656.000000"
 preserveAspectRatio="xMidYMid meet">
<metadata>
Created by potrace 1.10, written by Peter Selinger 2001-2011
</metadata>
<g transform="translate(0.000000,1656.000000) scale(0.100000,-0.100000)"
fill="#1473aa" stroke="none">
<path d="M2167 16384 c-12 -12 22 -34 51 -34 32 0 50 25 26 34 -20 8 -69 8
-77 0z"/>
<path d="M2055 16351 c-5 -16 -12 -19 -39 -14 -33 5 -57 -9 -36 -22 15 -9 12
-25 -5 -25 -8 0 -24 6 -35 13 -16 9 -22 9 -28 0 -14 -23 -59 -26 -78 -5 -21
22 -154 42 -154 23 0 -5 10 -13 22 -17 19 -6 20 -7 4 -16 -11 -6 -28 -6 -48 1
-38 13 -88 14 -88 2 0 -5 11 -12 25 -15 14 -4 23 -11 20 -16 -8 -13 -52 -13
-60 0 -15 24 -47 13 -229 -76 -37 -19 -74 -34 -82 -34 -7 0 -18 -9 -24 -20 -6
-11 -17 -20 -25 -20 -8 0 -12 -6 -9 -14 6 -16 -12 -31 -21 -17 -3 6 -25 -3
-49 -20 -24 -16 -48 -29 -54 -29 -6 0 -12 -4 -14 -8 -1 -4 -34 -33 -73 -63
-47 -38 -78 -71 -93 -102 -13 -26 -31 -52 -41 -59 -23 -16 -121 -130 -121
-141 0 -10 -43 -71 -52 -75 -5 -2 -8 -10 -8 -17 0 -8 -14 -30 -31 -50 -18 -20
-29 -41 -25 -50 3 -9 -3 -19 -14 -25 -11 -6 -20 -19 -20 -29 0 -10 -7 -24 -15
-31 -8 -7 -15 -21 -15 -32 0 -10 -7 -33 -16 -50 -11 -21 -14 -45 -10 -77 4
-35 3 -41 -4 -23 -18 43 -29 13 -23 -66 6 -71 5 -76 -10 -63 -14 11 -18 11
-22 -1 -3 -8 -1 -27 5 -42 15 -40 12 -175 -5 -233 -19 -64 -18 -298 2 -315 7
-6 13 -31 13 -59 0 -30 8 -64 20 -86 11 -21 20 -47 20 -58 0 -12 4 -25 9 -31
4 -5 16 -34 26 -64 15 -50 31 -88 71 -177 8 -17 14 -33 14 -35 0 -10 88 -157
133 -223 58 -86 318 -346 409 -409 57 -39 71 -45 86 -35 14 9 26 7 58 -9 21
-11 71 -32 109 -46 39 -15 86 -34 105 -41 19 -8 60 -22 90 -31 30 -10 72 -23
93 -31 49 -17 120 -18 115 0 -3 6 -22 15 -44 19 -53 9 -123 28 -161 44 -17 8
-36 14 -42 14 -24 0 -224 110 -246 135 -5 7 -32 27 -60 46 -27 19 -55 39 -61
44 -6 6 -40 34 -75 64 -76 65 -164 153 -199 199 -14 19 -29 39 -35 45 -43 51
-154 231 -165 268 -4 14 -3 33 2 43 6 11 4 26 -6 47 -8 16 -13 36 -10 44 3 7
1 16 -5 20 -6 3 -11 20 -11 37 0 16 -6 42 -14 56 -8 15 -19 52 -25 82 -6 30
-16 73 -21 95 -5 22 -9 66 -10 97 0 31 -5 60 -10 63 -6 3 -10 42 -10 85 0 68
3 81 19 90 30 16 32 13 31 -42 -1 -50 19 -254 38 -381 4 -31 13 -62 20 -69 7
-7 12 -21 12 -32 0 -31 33 -120 47 -129 7 -4 13 -18 13 -31 0 -12 7 -31 15
-42 8 -10 15 -29 15 -42 0 -23 10 -39 43 -70 9 -9 17 -22 17 -29 0 -7 4 -21 9
-31 5 -9 15 -30 22 -47 14 -32 62 -95 107 -142 15 -16 36 -40 48 -53 21 -26
123 -109 178 -146 66 -45 278 -155 371 -193 146 -61 275 -82 500 -83 169 0
202 3 300 25 181 42 225 57 363 123 239 115 451 307 584 529 45 74 128 250
128 269 0 8 4 17 9 21 5 3 13 20 17 38 3 17 12 45 19 62 42 100 61 295 30 295
-11 0 -15 -11 -15 -42 0 -24 -3 -61 -7 -83 -5 -31 -8 -35 -14 -20 -11 29 -10
97 2 154 12 56 -12 345 -31 382 -6 11 -10 49 -8 84 2 48 -1 68 -13 77 -8 7
-23 40 -33 73 -25 82 -46 125 -78 159 -16 17 -28 34 -28 38 0 5 -29 48 -65 96
-52 68 -65 93 -63 116 4 39 25 45 38 10 14 -37 159 -179 171 -167 8 8 -17 97
-41 141 -4 9 -18 43 -30 74 -24 62 -116 164 -200 221 -25 17 -47 34 -50 37 -3
4 -30 19 -60 33 -30 15 -73 38 -95 51 -22 14 -50 25 -61 26 -12 0 -42 22 -70
51 -57 59 -108 85 -184 93 -47 5 -78 13 -159 41 -11 4 -11 8 0 21 17 21 -3 34
-51 34 -20 0 -46 7 -58 16 -18 13 -44 16 -120 14 -131 -4 -129 -4 -147 30 -18
34 -41 39 -50 11z m285 -81 c21 -12 -42 -22 -113 -18 -58 3 -77 18 -35 29 29
7 128 -1 148 -11z m442 -1237 c31 -10 61 -26 68 -37 15 -23 24 -142 12 -150
-9 -5 -43 36 -54 65 -11 28 -74 70 -130 85 -42 11 -63 12 -103 3 -115 -26
-168 -91 -195 -236 -11 -63 -11 -83 3 -153 19 -94 52 -150 114 -194 39 -27 50
-29 120 -29 43 1 90 6 104 11 53 21 104 86 117 149 12 57 35 49 46 -14 7 -43
6 -57 -11 -85 -41 -71 -149 -118 -269 -118 -172 0 -307 76 -371 210 -24 48
-27 67 -27 155 0 88 3 107 27 155 54 112 155 183 292 204 58 9 201 -3 257 -21z
m-1343 -20 c6 -16 19 -40 29 -54 9 -15 61 -100 116 -190 54 -90 107 -173 117
-183 18 -19 18 -19 26 0 4 10 33 63 65 117 32 53 58 99 58 102 0 2 27 49 60
103 33 55 60 104 60 110 0 13 39 27 48 17 4 -4 12 -52 19 -108 6 -56 18 -156
27 -222 8 -66 20 -160 26 -209 6 -50 18 -95 26 -103 8 -8 14 -19 14 -24 0 -5
10 -14 23 -19 15 -6 -21 -9 -110 -9 -73 -1 -133 3 -133 7 0 4 5 13 11 19 7 7
9 36 6 74 -6 91 -27 272 -31 277 -5 5 -136 -213 -136 -227 0 -6 -3 -11 -8 -11
-4 0 -18 -24 -31 -52 -12 -29 -26 -60 -31 -68 -19 -38 -39 -18 -133 140 -54
89 -97 165 -97 169 0 13 -38 43 -43 34 -3 -4 -8 -55 -12 -113 -4 -58 -11 -123
-15 -145 -7 -32 -5 -46 10 -72 l19 -33 -97 1 c-71 0 -92 3 -77 10 35 18 59 62
66 119 4 30 14 114 23 185 9 72 21 166 26 210 20 176 20 175 45 175 16 0 26
-9 34 -27z"/>
<path d="M1807 16354 c-11 -11 3 -24 24 -24 12 0 19 5 17 13 -5 14 -31 21 -41
11z"/>
<path d="M2668 16348 c9 -9 15 -9 24 0 9 9 7 12 -12 12 -19 0 -21 -3 -12 -12z"/>
<path d="M2414 16335 c-18 -13 -16 -14 24 -15 31 0 42 4 42 15 0 19 -40 20
-66 0z"/>
<path d="M2560 16315 c-21 -12 -23 -14 -8 -20 25 -10 53 -2 53 14 0 20 -16 22
-45 6z"/>
<path d="M2635 16270 c-3 -5 3 -10 14 -10 12 0 21 5 21 10 0 6 -6 10 -14 10
-8 0 -18 -4 -21 -10z"/>
<path d="M6243 15499 c-30 -19 -33 -26 -33 -69 0 -41 4 -52 27 -69 57 -45 121
-34 149 25 20 42 12 77 -23 110 -32 30 -77 31 -120 3z"/>
<path d="M12808 15513 c-15 -4 -18 -16 -18 -78 0 -86 -8 -95 -84 -95 -25 0
-48 -5 -51 -10 -4 -6 -3 -35 1 -66 l7 -56 57 7 c49 6 58 4 64 -11 4 -10 4 -79
0 -154 -8 -155 5 -216 54 -263 66 -63 188 -64 254 0 33 32 34 36 8 65 -10 13
-25 31 -32 41 -12 16 -15 16 -42 -8 -33 -29 -61 -26 -88 9 -15 18 -18 44 -18
178 l0 157 33 6 c17 3 57 6 87 8 55 2 55 2 58 36 2 19 1 45 -3 59 -6 24 -8 24
-73 18 -38 -3 -73 -2 -82 4 -11 7 -15 30 -17 82 l-1 73 -49 2 c-26 0 -56 -1
-65 -4z"/>
<path d="M8920 15442 c-55 -27 -106 -79 -136 -140 -27 -54 -28 -64 -28 -192 0
-107 4 -141 17 -165 9 -16 17 -35 17 -42 0 -22 87 -101 135 -122 75 -33 179
-30 257 9 34 17 75 44 90 61 25 26 27 33 16 47 -28 34 -79 82 -88 82 -5 0 -30
-14 -55 -32 -36 -25 -55 -32 -95 -32 -56 0 -87 22 -114 79 -24 50 -22 214 3
260 28 53 62 75 116 75 39 0 51 -5 82 -35 20 -19 42 -35 48 -35 20 0 95 71 95
89 0 23 -62 72 -118 93 -62 24 -193 24 -242 0z"/>
<path d="M4225 15188 c-3 -134 -5 -283 -3 -333 l3 -90 68 -3 c64 -3 67 -2 68
20 0 13 0 95 -1 183 -1 153 8 223 29 211 5 -4 12 -25 16 -49 4 -23 12 -50 17
-60 5 -10 13 -39 18 -65 30 -153 55 -228 78 -226 6 1 27 2 46 3 26 1 35 6 39
24 6 26 63 193 76 222 5 11 13 38 17 59 5 22 14 41 21 43 19 7 26 -60 21 -202
-3 -73 -3 -138 1 -143 3 -5 33 -11 66 -13 l60 -4 8 115 c11 156 2 519 -12 533
-18 18 -170 23 -175 6 -2 -8 -9 -34 -15 -59 -20 -78 -38 -143 -55 -200 -10
-30 -22 -74 -27 -97 -6 -24 -16 -43 -23 -43 -15 0 -41 55 -55 115 -6 22 -17
65 -25 95 -8 30 -21 75 -27 100 -28 107 -19 100 -129 100 l-98 0 -7 -242z"/>
<path d="M5785 15344 c-32 -8 -99 -58 -113 -84 -17 -33 -9 -122 14 -152 25
-33 81 -71 146 -98 71 -29 118 -70 118 -104 0 -29 -42 -66 -75 -66 -28 0 -85
23 -136 56 -21 13 -45 24 -52 24 -12 0 -67 -96 -67 -118 0 -5 30 -24 68 -42
62 -31 74 -33 167 -34 88 0 105 3 140 24 22 14 48 32 57 40 19 17 48 91 48
121 0 23 -30 88 -50 109 -19 19 -117 80 -129 80 -5 0 -32 11 -60 25 -54 27
-74 62 -54 94 16 26 126 27 167 2 37 -23 40 -21 79 41 24 38 22 42 -25 63 -42
19 -194 30 -243 19z"/>
<path d="M6665 15324 c-51 -19 -82 -48 -109 -104 -18 -39 -21 -63 -21 -170 0
-110 3 -130 22 -167 28 -52 74 -87 133 -103 51 -14 134 -6 167 15 43 28 50 14
57 -128 4 -73 10 -135 14 -139 4 -3 34 -8 67 -10 l60 -3 -2 55 c-1 30 -5 124
-9 208 -4 93 -2 195 4 260 6 59 13 145 14 191 l3 84 -40 14 c-56 19 -88 14
-95 -17 -7 -29 -35 -38 -58 -17 -21 17 -113 47 -144 46 -13 0 -41 -7 -63 -15z
m175 -140 c66 -23 80 -39 79 -93 0 -25 -3 -64 -7 -86 -10 -53 -56 -85 -124
-85 -43 0 -54 4 -84 34 -32 32 -34 38 -34 104 0 75 12 100 60 126 34 19 57 19
110 0z"/>
<path d="M12295 15331 c-3 -5 -18 -12 -34 -16 -37 -8 -94 -63 -124 -118 -19
-36 -22 -57 -22 -152 1 -103 2 -113 29 -154 62 -96 123 -131 230 -131 41 0 77
4 80 9 3 5 18 12 33 16 31 7 103 62 103 77 0 12 -66 89 -88 101 -9 6 -21 2
-37 -13 -55 -52 -149 -43 -190 18 -33 49 -36 148 -5 197 37 59 140 75 191 29
8 -8 21 -14 27 -14 19 0 82 42 82 55 0 20 -50 64 -98 85 -47 21 -166 28 -177
11z"/>
<path d="M8011 15313 c-29 -6 -90 -43 -122 -75 -51 -49 -64 -93 -64 -212 1
-98 3 -115 23 -148 63 -101 210 -144 351 -101 64 19 121 57 121 80 0 18 -66
103 -80 103 -5 0 -15 -6 -22 -14 -44 -44 -139 -60 -192 -32 -37 19 -68 62 -64
88 4 29 56 38 233 41 l130 2 -1 70 c-2 84 -27 134 -87 172 -33 21 -55 26 -121
28 -45 2 -92 1 -105 -2z m155 -107 c32 -32 44 -69 27 -79 -5 -2 -56 -8 -115
-11 l-108 -7 0 25 c0 28 43 83 75 97 46 18 86 10 121 -25z"/>
<path d="M9580 15311 c-78 -17 -138 -66 -170 -139 -28 -63 -28 -211 0 -274 43
-99 120 -142 250 -142 105 0 161 23 213 86 94 116 57 367 -66 445 -32 20 -56
26 -116 29 -42 1 -92 0 -111 -5z m163 -129 c15 -15 34 -52 43 -81 33 -111 -26
-211 -125 -211 -82 0 -131 60 -131 160 0 102 49 160 134 160 44 0 56 -4 79
-28z"/>
<path d="M10370 15311 c-42 -12 -96 -39 -110 -55 -25 -31 -50 -13 -50 35 0 17
-8 19 -75 19 -52 0 -77 -4 -80 -12 -2 -7 -5 -131 -7 -276 l-3 -262 71 0 72 0
11 98 c7 53 13 133 14 177 l2 79 44 30 c52 35 115 47 162 32 27 -9 36 -20 51
-61 20 -57 22 -106 8 -208 -6 -40 -13 -89 -15 -109 l-5 -38 74 0 73 0 7 43 c3
23 9 96 12 163 9 161 -12 264 -62 310 -43 40 -123 54 -194 35z"/>
<path d="M11115 15316 c-5 -2 -22 -7 -36 -10 -15 -3 -49 -21 -77 -40 -27 -19
-53 -32 -56 -29 -3 4 -6 21 -6 40 l0 33 -75 0 c-52 0 -77 -4 -80 -12 -2 -7 -6
-131 -10 -275 l-6 -263 74 0 74 0 7 38 c3 20 6 94 6 164 0 120 1 128 25 156
32 39 84 63 138 64 64 1 82 -8 100 -50 30 -70 30 -115 1 -325 l-7 -48 74 3 73
3 9 34 c4 18 7 113 5 210 -3 160 -5 180 -26 223 -13 25 -34 54 -48 63 -23 15
-136 30 -159 21z"/>
<path d="M11685 15311 c-151 -37 -236 -226 -177 -393 43 -126 212 -191 365
-141 60 19 127 58 127 74 0 15 -60 97 -76 103 -7 3 -23 -3 -36 -12 -46 -34
-69 -42 -115 -42 -58 0 -105 26 -128 71 -15 29 -15 33 -1 48 13 13 47 16 191
19 l175 4 0 45 c0 107 -73 213 -157 227 -48 7 -129 6 -168 -3z m132 -84 c35
-20 65 -65 58 -87 -5 -16 -15 -20 -54 -20 -27 0 -76 -3 -110 -6 -60 -7 -61 -7
-61 19 0 40 10 56 49 82 39 27 83 31 118 12z"/>
<path d="M5013 15297 c-5 -7 -7 -81 -7 -165 2 -227 38 -321 144 -374 124 -63
276 -14 330 106 43 98 62 259 42 371 l-7 40 -74 0 -73 0 1 -150 c1 -136 0
-154 -20 -190 -12 -22 -29 -45 -38 -52 -34 -26 -82 -11 -119 38 -24 32 -44
188 -37 281 8 100 12 95 -77 102 -38 3 -60 0 -65 -7z"/>
<path d="M7196 15294 c-20 -19 -22 -176 -4 -304 12 -91 52 -182 92 -210 76
-54 178 -64 262 -24 101 48 141 127 151 299 3 61 3 136 -1 168 l-7 57 -75 0
-75 0 8 -37 c4 -21 7 -83 6 -138 -1 -108 -18 -173 -55 -212 -28 -30 -78 -30
-106 0 -41 44 -55 103 -57 255 -2 79 -4 144 -6 146 -2 2 -30 6 -61 10 -44 5
-60 3 -72 -10z"/>
<path d="M6298 15242 c-68 -4 -64 5 -72 -157 -3 -60 -9 -158 -12 -217 l-7
-108 71 0 c60 0 73 3 82 19 12 23 14 458 3 463 -5 2 -34 2 -65 0z"/>
<path d="M421 14890 c1 -55 1 -55 9 -15 4 22 4 47 -1 55 -5 10 -8 -5 -8 -40z"/>
<path d="M5124 14225 c-7 -18 3 -35 21 -35 18 0 26 25 12 39 -15 15 -27 14
-33 -4z"/>
<path d="M5997 14234 c-4 -4 -7 -31 -7 -61 0 -56 -10 -65 -48 -42 -15 9 -24 8
-44 -5 -58 -38 -76 -151 -38 -233 21 -47 29 -50 124 -37 l46 7 -2 185 c-3 174
-8 208 -31 186z m-27 -154 c16 -16 20 -33 20 -88 0 -77 -17 -112 -56 -112 -31
0 -44 32 -44 108 0 89 7 104 53 111 4 0 16 -8 27 -19z"/>
<path d="M6627 14233 c-4 -3 -7 -28 -7 -55 0 -53 -14 -67 -49 -49 -27 15 -62
-2 -84 -39 -12 -20 -17 -51 -17 -105 0 -99 21 -135 80 -135 21 0 42 5 45 10 5
8 11 7 20 0 30 -25 35 1 35 191 0 173 -4 202 -23 182z m-52 -139 c64 -25 54
-214 -11 -214 -37 0 -54 36 -54 112 0 55 4 72 20 88 22 22 22 22 45 14z"/>
<path d="M6827 14222 c-19 -21 -22 -42 -7 -42 16 0 51 40 45 50 -9 15 -20 12
-38 -8z"/>
<path d="M4264 14210 c-40 -16 -72 -67 -79 -125 -17 -132 20 -217 101 -235 44
-10 102 1 115 22 6 9 12 8 27 -5 10 -9 22 -14 25 -10 13 12 8 160 -5 170 -11
7 -53 9 -110 4 -10 0 -18 -7 -18 -15 0 -10 14 -16 43 -18 42 -3 42 -3 41 -42
-2 -62 -67 -96 -125 -66 -30 17 -59 84 -59 139 0 96 38 151 104 151 50 0 58
-5 83 -49 22 -40 40 -50 50 -26 10 27 -28 86 -64 102 -36 14 -97 16 -129 3z"/>
<path d="M7643 14203 c-7 -3 -13 -11 -13 -19 0 -8 -7 -29 -16 -45 -14 -28 -17
-29 -32 -16 -11 10 -22 13 -33 7 -8 -5 -28 -11 -45 -13 l-29 -4 -3 -126 c-2
-82 1 -128 8 -128 5 -1 16 -2 23 -3 9 -1 13 29 17 109 l5 109 38 15 c52 19 57
10 57 -109 1 -105 11 -130 54 -130 30 0 34 14 9 29 -15 8 -19 27 -22 102 -3
86 -2 93 20 109 l22 18 -20 26 c-12 14 -19 35 -16 45 5 21 -5 31 -24 24z"/>
<path d="M8877 14203 c-4 -3 -7 -17 -7 -30 0 -13 -7 -34 -15 -47 -14 -21 -14
-24 0 -36 12 -10 15 -35 15 -110 0 -118 4 -130 39 -130 38 0 46 11 22 30 -16
13 -20 28 -21 100 -3 111 -3 108 21 115 l21 7 -21 22 c-12 12 -21 30 -21 38 0
36 -17 58 -33 41z"/>
<path d="M5010 14183 c0 -10 -7 -31 -15 -47 -11 -20 -12 -33 -5 -40 5 -5 10
-53 10 -106 0 -107 13 -140 56 -140 27 0 33 24 9 34 -12 4 -15 26 -15 106 0
82 3 100 15 100 8 0 15 6 15 14 0 7 -7 19 -15 26 -8 7 -15 25 -15 41 0 22 -5
29 -20 29 -12 0 -20 -7 -20 -17z"/>
<path d="M4584 14126 c-39 -17 -64 -69 -64 -136 0 -52 20 -109 45 -130 8 -7
36 -12 62 -12 40 0 51 5 70 29 13 15 22 35 20 43 -4 24 -31 17 -45 -12 -25
-54 -102 -25 -102 38 0 28 17 34 91 34 l59 0 0 34 c0 52 -20 95 -51 111 -34
18 -45 18 -85 1z m70 -39 c12 -9 17 -23 14 -42 -3 -26 -8 -30 -36 -33 -58 -6
-80 30 -42 68 23 23 39 25 64 7z"/>
<path d="M4819 14125 c-36 -19 -54 -64 -39 -97 12 -26 58 -58 83 -58 12 0 47
-40 47 -54 0 -2 -7 -12 -16 -20 -24 -25 -63 -20 -76 9 -13 29 -48 34 -48 8 0
-10 9 -29 19 -42 15 -20 27 -24 65 -23 63 0 86 22 86 77 0 47 -6 54 -71 88
-32 17 -45 30 -47 49 -4 37 31 48 62 19 24 -22 56 -28 56 -10 0 23 -21 47 -51
58 -39 13 -38 13 -70 -4z"/>
<path d="M5282 14125 c-45 -20 -65 -71 -60 -152 4 -71 28 -113 71 -124 76 -20
127 36 127 140 0 72 -19 114 -62 137 -29 17 -36 16 -76 -1z m68 -35 c13 0 33
-88 27 -123 -10 -60 -25 -87 -49 -87 -13 0 -29 4 -36 9 -20 12 -32 79 -25 139
6 55 27 78 61 66 8 -2 17 -4 22 -4z"/>
<path d="M5557 14125 c-21 -11 -34 -12 -48 -4 -28 14 -30 2 -27 -142 3 -102 6
-124 18 -124 12 0 16 20 20 100 7 112 12 131 43 139 44 11 56 -17 59 -133 2
-86 6 -106 18 -106 12 0 16 20 18 105 3 128 0 146 -38 165 -35 18 -29 18 -63
0z"/>
<path d="M6151 14122 c-54 -27 -76 -116 -49 -203 16 -54 38 -71 94 -72 40 0
51 4 71 28 13 15 23 34 21 43 -5 28 -28 24 -45 -7 -32 -56 -109 -29 -101 36 3
27 5 28 73 33 l70 5 3 35 c5 47 -23 96 -61 109 -38 14 -36 14 -76 -7z m79 -42
c11 -11 20 -27 20 -35 0 -20 -35 -37 -73 -33 -26 2 -33 8 -35 30 -2 18 4 31
20 42 30 21 44 20 68 -4z"/>
<path d="M6774 14125 c-59 -26 -80 -156 -39 -236 16 -31 68 -51 107 -42 34 8
68 43 68 70 0 35 -27 27 -49 -15 -18 -34 -71 -27 -90 12 -22 46 -6 60 73 64
70 3 72 4 67 62 -2 38 -22 70 -53 86 -32 17 -43 17 -84 -1z m76 -45 c23 -23
24 -30 7 -54 -9 -12 -23 -17 -47 -14 -31 3 -35 6 -38 36 -3 26 1 34 20 41 33
14 36 13 58 -9z"/>
<path d="M7050 14126 c-16 -9 -31 -11 -41 -5 -9 4 -19 5 -23 2 -3 -3 -6 -87
-6 -185 0 -148 2 -178 14 -178 10 0 16 14 18 43 l3 42 52 3 c75 4 93 32 93
144 0 88 -11 113 -57 137 -26 13 -22 13 -53 -3z m50 -46 c16 -16 20 -33 20
-85 0 -82 -14 -115 -50 -115 -81 0 -78 211 3 219 4 1 16 -8 27 -19z"/>
<path d="M7263 14123 c-36 -18 -51 -49 -34 -66 8 -8 19 -3 40 17 31 30 57 31
74 5 14 -23 0 -69 -21 -69 -9 0 -34 -5 -54 -10 -29 -8 -39 -18 -48 -44 -12
-38 -5 -79 16 -97 18 -15 81 -14 100 2 11 9 18 9 26 1 15 -15 55 -16 63 -2 3
6 -1 13 -9 16 -13 5 -16 25 -16 105 0 87 -2 101 -22 123 -29 33 -74 40 -115
19z m84 -190 c-4 -20 -12 -40 -19 -45 -19 -12 -52 -10 -66 4 -31 31 3 78 56
78 34 0 35 0 29 -37z"/>
<path d="M7803 14125 c-43 -18 -63 -61 -63 -134 0 -67 23 -127 52 -137 25 -8
69 -8 93 0 26 8 61 64 48 77 -14 14 -39 1 -51 -27 -8 -15 -20 -24 -34 -24 -32
0 -45 11 -58 44 -16 43 1 56 76 56 53 0 64 3 69 20 11 36 -14 99 -48 120 -38
23 -42 24 -84 5z m67 -35 c4 0 11 -12 14 -26 10 -37 -10 -56 -53 -52 -33 3
-36 6 -39 36 -3 26 1 34 20 41 13 6 29 8 36 5 8 -2 17 -4 22 -4z"/>
<path d="M8072 14125 c-16 -12 -27 -13 -41 -6 -10 6 -21 7 -25 4 -3 -3 -6 -66
-6 -140 0 -112 2 -133 15 -133 17 0 18 3 15 92 -3 105 28 170 73 152 22 -8 28
-44 26 -146 -2 -93 1 -104 25 -95 11 4 15 31 18 112 3 92 6 109 22 121 23 16
26 17 46 4 11 -7 16 -37 20 -122 4 -92 8 -113 20 -113 13 0 15 20 15 124 0
123 0 124 -27 144 -27 20 -28 20 -67 3 -36 -17 -41 -17 -62 -2 -29 20 -39 20
-67 1z"/>
<path d="M8428 14129 c-44 -17 -68 -66 -68 -141 0 -106 47 -154 134 -138 37 6
78 66 55 81 -22 13 -27 11 -41 -18 -10 -21 -22 -29 -45 -31 -29 -3 -34 1 -48
35 -15 35 -15 39 1 50 10 7 44 13 76 13 70 0 75 8 58 81 -11 44 -17 53 -46 65
-38 16 -39 16 -76 3z m66 -42 c12 -9 17 -23 14 -42 -3 -26 -7 -30 -39 -33 -43
-4 -63 15 -53 51 8 35 47 46 78 24z"/>
<path d="M8705 14131 c-6 -5 -26 -11 -45 -13 l-35 -3 0 -130 c0 -109 2 -130
15 -130 12 0 16 21 20 108 4 93 8 111 24 123 23 16 35 17 54 5 10 -6 14 -39
15 -122 2 -107 3 -114 22 -114 19 0 20 8 23 105 3 115 -6 152 -44 169 -30 13
-37 14 -49 2z"/>
<path d="M5125 14108 c-3 -13 -4 -75 -3 -138 3 -107 4 -115 23 -115 19 0 20 8
23 124 2 82 -1 128 -9 137 -17 20 -28 17 -34 -8z"/>
</g>
</svg>
