<?xml version="1.0" standalone="no"?>
<!DOCTYPE svg PUBLIC "-//W3C//DTD SVG 20010904//EN"
 "http://www.w3.org/TR/2001/REC-SVG-20010904/DTD/svg10.dtd">
<svg version="1.0" xmlns="http://www.w3.org/2000/svg"
 width="2000.000000pt" height="1851.000000pt" viewBox="0 0 2000.000000 1851.000000"
 preserveAspectRatio="xMidYMid meet">
<metadata>
Created by potrace 1.10, written by Peter Selinger 2001-2011
</metadata>
<g transform="translate(0.000000,1851.000000) scale(0.050000,-0.050000)"
fill="#1473aa" stroke="none">
<path d="M3247 36719 c-307 -20 -540 -63 -808 -148 -280 -90 -733 -297 -820
-375 -28 -25 -74 -59 -102 -76 -54 -31 -237 -183 -299 -248 -20 -21 -31 -47
-24 -58 7 -11 2 -14 -9 -7 -25 16 -111 -95 -90 -115 8 -8 0 -9 -16 -3 -17 7
-37 -5 -49 -28 -31 -62 -258 -390 -275 -398 -8 -3 -10 -15 -4 -25 6 -10 1 -18
-11 -18 -12 0 -16 -10 -8 -23 8 -14 5 -18 -8 -10 -39 25 -218 -433 -275 -702
-19 -91 -42 -165 -51 -165 -10 0 -11 -28 -4 -63 9 -49 6 -60 -14 -47 -20 13
-24 -2 -15 -67 7 -55 4 -79 -10 -70 -87 54 33 -986 146 -1265 50 -122 42 -59
-26 222 -81 330 -77 1054 7 1360 11 40 12 27 4 -40 -8 -55 -13 -147 -12 -205
0 -58 -6 -105 -14 -105 -59 0 3 -779 71 -904 17 -29 28 -61 26 -70 -2 -9 7
-41 20 -72 13 -31 23 -63 23 -71 0 -27 138 -358 180 -432 22 -39 58 -103 81
-143 174 -307 653 -786 988 -985 173 -103 213 -108 71 -8 -84 59 -173 180 -98
134 10 -7 13 -22 5 -34 -9 -14 -2 -17 19 -9 21 8 32 3 29 -12 -3 -13 11 -23
30 -21 19 1 30 -4 25 -13 -9 -14 89 -64 124 -64 9 0 48 -13 86 -30 171 -74
484 -169 640 -195 293 -49 311 -52 280 -40 -33 13 -97 40 -190 81 -33 14 -127
41 -210 60 -210 48 -461 153 -604 253 -67 47 -168 116 -224 155 -205 141 -558
514 -717 760 -160 247 -274 455 -197 360 46 -55 54 -33 20 54 -45 113 -56 167
-33 153 14 -9 17 -1 8 22 -7 19 -19 56 -25 83 -7 26 -21 48 -31 48 -11 0 -14
8 -8 18 6 10 -7 102 -28 205 -55 266 -71 504 -42 644 26 126 14 166 -31 104
-28 -38 -28 -38 -29 0 -1 33 -4 32 -20 -8 -11 -26 -36 -68 -57 -95 l-37 -47
-1 79 c-1 44 7 84 17 91 11 6 19 34 19 61 0 33 -8 45 -23 36 -13 -8 -18 -5
-11 6 7 11 17 69 23 128 13 147 23 189 44 185 9 -2 18 25 19 60 4 141 94 410
148 443 11 7 15 21 9 31 -6 11 -1 19 12 19 13 0 18 14 11 31 -6 18 -3 26 8 19
11 -7 20 6 20 29 0 22 9 41 20 41 11 0 20 14 20 30 0 17 7 30 15 30 8 0 42 40
75 90 33 49 68 89 77 90 10 0 12 14 6 31 -8 20 5 38 37 53 28 12 50 32 50 44
0 13 25 49 55 82 30 32 53 64 51 70 -2 7 23 29 55 51 33 21 59 46 59 54 0 22
68 86 107 101 18 7 33 21 33 32 0 10 27 25 60 32 33 7 73 32 90 56 16 24 30
34 30 23 0 -12 6 -11 15 1 26 34 285 178 285 158 0 -6 14 3 32 21 17 17 39 26
50 20 10 -6 18 -3 18 7 0 21 57 43 147 58 32 5 81 19 110 30 91 38 110 41 243
39 72 -1 120 5 107 13 -13 7 25 13 84 11 58 -2 116 -9 128 -16 11 -7 21 -5 21
5 0 27 137 45 227 31 52 -9 68 -18 50 -30 -19 -11 -10 -16 27 -17 29 0 79 -10
110 -22 71 -27 241 -27 274 0 33 28 128 0 225 -67 69 -46 160 -80 276 -103 65
-12 211 -87 211 -108 0 -11 12 -20 27 -20 15 0 43 -18 63 -39 19 -22 77 -60
128 -84 50 -24 99 -54 107 -66 8 -11 15 -14 15 -6 0 8 16 -1 37 -20 20 -19 32
-46 27 -60 -4 -14 7 -25 26 -25 34 0 209 -174 210 -207 0 -32 111 -143 145
-146 27 -2 30 5 14 35 -36 67 10 40 61 -37 54 -80 275 -331 300 -341 31 -12
36 83 6 129 -17 26 -25 47 -19 47 14 0 -66 175 -116 253 l-37 57 56 -50 c46
-41 52 -43 34 -10 -31 59 -342 355 -429 408 -41 25 -71 53 -65 62 6 10 0 24
-13 32 -15 9 -18 5 -8 -10 24 -40 -92 -2 -155 51 -31 25 -89 55 -130 67 -86
24 -131 56 -150 105 -7 19 -29 35 -48 35 -27 1 -30 5 -9 17 31 21 -112 84
-207 92 -169 14 -431 110 -305 112 98 1 -25 54 -181 78 -201 30 -287 33 -564
17 -143 -9 -200 -7 -150 3 160 35 517 46 680 22 217 -33 410 -82 410 -105 0
-10 18 -13 40 -6 22 7 40 4 40 -7 0 -10 20 -15 45 -10 43 9 42 8 -5 -21 -57
-35 -38 -43 24 -10 41 22 240 -44 345 -115 21 -14 57 -21 80 -16 26 6 75 -13
131 -52 89 -62 65 -75 -50 -28 -78 32 8 -46 101 -91 110 -54 193 -118 179
-140 -6 -10 0 -24 13 -32 14 -9 18 -6 9 9 -8 13 -6 23 4 23 26 0 66 -50 54
-67 -6 -7 -4 -8 3 -3 8 6 30 -5 50 -23 73 -66 35 7 -43 83 -43 42 -75 82 -70
87 17 17 -32 61 -58 51 -14 -5 -37 4 -51 21 -14 17 -34 25 -45 19 -10 -7 -16
1 -12 17 11 53 -258 234 -305 204 -11 -6 -80 15 -154 48 -74 33 -171 73 -215
90 -44 17 -65 31 -46 32 19 1 106 -30 193 -69 181 -79 209 -86 141 -33 -59 47
-211 110 -364 152 -74 21 -110 41 -102 55 10 15 -3 18 -41 8 -37 -9 -50 -7
-41 8 10 16 -9 19 -63 10 -42 -7 -67 -6 -54 4 14 9 -19 17 -80 19 -306 8 -304
8 -263 26 48 22 67 22 -283 0z m153 -54 c0 -9 -83 -17 -185 -18 -102 -1 -207
-7 -235 -13 -27 -5 -77 -16 -110 -23 -55 -12 -56 -11 -20 12 63 41 550 78 550
42z m320 -19 c0 -21 -174 -32 -187 -12 -5 9 35 19 89 22 54 3 98 -1 98 -10z
m-970 -64 c-22 -9 -76 -22 -120 -29 l-80 -12 67 25 c77 29 203 44 133 16z
m210 -39 c0 -18 -279 -71 -294 -55 -5 5 43 19 107 32 65 12 126 26 137 30 35
12 50 10 50 -7z m-445 -17 c-19 -5 -35 -18 -35 -29 0 -10 -8 -14 -18 -8 -10 6
-43 2 -73 -9 -30 -12 -58 -17 -63 -13 -11 11 155 70 194 69 20 0 19 -4 -5 -10z
m1135 -26 c56 -13 -1 -16 -188 -9 -148 5 -273 13 -279 19 -17 17 383 9 467
-10z"/>
<path d="M4191 36661 c-8 -12 -2 -21 13 -21 19 -1 18 -6 -4 -20 -25 -16 -23
-20 10 -22 46 -3 52 -4 160 -27 44 -9 118 -33 165 -53 47 -20 85 -29 85 -20 0
10 -74 49 -165 87 -213 91 -249 101 -264 76z"/>
<path d="M4740 36462 c0 -20 121 -68 135 -54 8 9 -101 72 -124 72 -6 0 -11 -8
-11 -18z"/>
<path d="M4410 36361 c-14 -24 130 -99 167 -86 42 15 -80 87 -125 73 -24 -8
-32 -5 -23 10 7 12 9 22 3 22 -5 0 -15 -9 -22 -19z"/>
<path d="M4780 35704 c0 -20 -11 -47 -24 -60 -19 -19 -18 -24 2 -24 15 0 22
-12 16 -28 -7 -16 2 -26 21 -25 18 2 42 -15 54 -37 11 -23 51 -69 88 -104 37
-35 61 -72 55 -83 -6 -10 7 -23 30 -29 23 -6 36 -21 29 -33 -17 -27 37 -106
59 -86 8 8 11 2 5 -15 -5 -16 21 -68 59 -115 39 -48 62 -95 54 -108 -9 -14 -5
-18 9 -9 14 9 23 2 23 -17 0 -17 14 -31 30 -31 17 0 30 -10 30 -21 0 -12 -11
-16 -25 -9 -14 7 -11 1 6 -14 26 -22 51 -64 69 -116 2 -5 14 -36 27 -68 13
-31 27 -76 30 -99 4 -22 16 -44 28 -48 12 -4 18 -37 13 -76 -5 -38 -1 -69 8
-69 8 0 16 -38 17 -85 4 -133 14 -193 32 -182 9 6 16 -20 15 -56 -1 -37 3
-148 10 -247 15 -219 13 -311 -7 -339 -8 -12 -14 -112 -14 -224 1 -112 -7
-199 -16 -193 -9 6 -15 -11 -13 -37 5 -56 -19 -137 -39 -137 -8 0 -27 -36 -41
-81 -19 -58 -32 -73 -45 -55 -13 18 -15 15 -7 -11 7 -21 -4 -60 -25 -90 -21
-29 -44 -72 -51 -96 -8 -24 -27 -54 -43 -68 -16 -13 -29 -42 -29 -64 0 -27
-10 -36 -30 -28 -16 6 -28 5 -26 -3 9 -31 -47 -104 -70 -91 -13 7 -17 6 -9 -3
8 -9 -26 -55 -75 -103 -50 -48 -90 -98 -90 -111 0 -12 -6 -17 -13 -10 -7 7
-29 -5 -49 -28 -57 -66 -223 -177 -245 -164 -10 7 -14 4 -8 -6 19 -32 -50 -72
-129 -75 -27 -1 -29 -7 -10 -31 19 -23 19 -26 -1 -15 -14 9 -25 5 -25 -8 0
-13 -13 -18 -28 -12 -16 6 -34 -3 -40 -20 -7 -16 -20 -25 -30 -18 -9 6 -28 -2
-40 -17 -13 -15 -65 -39 -117 -53 -52 -14 -106 -34 -120 -45 -14 -10 -25 -12
-25 -4 0 8 -23 -1 -51 -19 -39 -25 -58 -28 -78 -12 -20 17 -34 15 -54 -5 -15
-15 -39 -23 -53 -19 -14 5 -37 -1 -51 -13 -14 -11 -46 -17 -69 -13 -24 5 -44
-1 -44 -13 0 -13 -5 -17 -12 -11 -6 6 -37 4 -70 -5 -32 -10 -58 -11 -58 -4 0
12 -141 14 -155 3 -20 -15 -61 -7 -93 20 -24 19 -33 21 -24 5 19 -32 -129 -26
-153 6 -9 12 -15 10 -15 -5 0 -16 -23 -24 -60 -21 -33 2 -60 13 -60 23 0 10
-18 13 -40 7 -22 -6 -36 -3 -30 6 5 9 -19 15 -55 14 -80 -2 -215 26 -215 44 0
7 -19 15 -43 17 -24 2 -50 13 -57 26 -8 12 -20 22 -27 21 -24 -2 -83 24 -116
52 -18 16 -54 30 -79 32 -26 2 -63 19 -83 39 -19 19 -49 35 -66 35 -19 0 -26
9 -17 23 9 15 5 18 -12 7 -16 -10 -36 -3 -51 18 -14 19 -43 36 -66 37 -33 3
-37 9 -17 32 21 25 18 26 -21 5 -37 -19 -45 -19 -40 2 3 14 -6 24 -20 21 -14
-3 -25 5 -25 16 0 12 -9 16 -19 10 -10 -7 -49 28 -85 78 -36 49 -75 87 -86 83
-25 -8 -112 80 -95 96 6 7 1 12 -12 12 -13 0 -23 14 -23 32 0 21 -11 28 -31
20 -24 -9 -29 -2 -19 28 10 32 6 37 -22 26 -27 -10 -32 -5 -22 22 8 20 6 29
-6 22 -18 -11 -29 15 -22 55 1 8 -8 15 -19 15 -12 0 -16 9 -9 20 7 11 4 20 -7
20 -27 0 -107 140 -113 199 -3 28 -24 62 -47 78 -35 22 -38 34 -20 68 18 34
16 39 -10 29 -35 -14 -49 15 -82 171 -8 41 -22 70 -31 65 -26 -16 -37 118 -13
149 18 22 17 25 -2 14 -18 -11 -25 2 -25 46 0 33 -8 61 -18 61 -10 0 -16 16
-12 35 3 19 -5 53 -18 75 -14 22 -23 69 -21 105 3 37 -5 65 -18 65 -15 1 -16
6 -3 15 29 22 38 173 9 154 -17 -10 -16 -2 1 31 19 36 19 48 -1 61 -15 9 -29
37 -33 62 -4 26 -20 57 -36 69 -36 27 -40 56 -5 35 17 -10 16 -4 -2 19 -52 64
-63 33 -63 -181 0 -461 98 -915 261 -1210 10 -19 19 -46 20 -60 0 -14 41 -88
90 -165 124 -196 141 -230 81 -165 -58 64 -198 297 -256 428 -21 50 -44 86
-49 81 -43 -43 277 -537 493 -761 157 -164 461 -421 370 -313 l-40 47 50 -34
c27 -18 50 -45 51 -58 0 -14 12 -22 27 -19 14 3 71 -23 127 -57 56 -34 167
-92 248 -127 81 -36 142 -70 136 -77 -7 -6 0 -10 15 -10 63 3 98 -6 87 -23 -6
-10 8 -13 32 -7 28 7 39 4 30 -10 -8 -14 2 -17 30 -10 27 7 38 3 31 -9 -8 -12
8 -17 42 -12 42 7 48 5 24 -12 -23 -17 -13 -19 38 -9 41 8 64 6 57 -6 -7 -11
18 -16 61 -12 43 5 64 1 50 -9 -47 -34 715 -15 884 22 964 207 1607 794 1928
1762 62 186 125 546 107 612 -17 65 -65 45 -65 -27 0 -97 -58 -433 -82 -479
-35 -65 -37 -33 -6 94 50 203 59 667 17 890 -20 105 -37 226 -37 270 -1 44
-17 103 -35 130 -17 28 -37 79 -44 115 -23 123 -195 398 -369 588 -26 30 -43
62 -36 73 6 11 -2 31 -18 44 -17 14 -30 17 -30 8 0 -9 -40 23 -89 71 -49 48
-85 94 -80 102 5 8 -7 27 -25 42 -23 18 -29 19 -19 2 9 -14 6 -25 -6 -25 -11
0 -21 11 -21 25 0 27 -86 135 -107 135 -7 0 -13 -16 -13 -36z"/>
<path d="M5459 35025 c175 -297 294 -645 338 -989 10 -87 19 -117 20 -74 11
286 -218 939 -409 1170 -26 32 -3 -16 51 -107z"/>
<path d="M4113 34606 c-8 -8 -46 -12 -84 -9 -38 2 -69 -5 -69 -16 0 -12 -25
-21 -56 -21 -31 0 -66 -10 -78 -22 -15 -15 -33 -16 -58 -2 -24 13 -42 12 -58
-3 -13 -13 -49 -41 -81 -63 -32 -22 -98 -82 -148 -133 -106 -107 -193 -105
-176 5 6 41 0 51 -22 43 -19 -8 -24 -4 -15 12 8 12 4 23 -8 23 -12 0 -16 11
-8 23 10 16 3 20 -21 10 -26 -10 -32 -6 -24 17 11 27 -9 39 -52 32 -8 -1 -15
6 -15 16 0 21 -78 5 -115 -23 -14 -11 -25 -15 -25 -8 0 6 -22 -10 -50 -35 -27
-26 -50 -57 -50 -69 0 -13 -8 -23 -19 -23 -10 0 -24 -18 -31 -40 -7 -22 -21
-35 -32 -29 -10 7 -18 5 -16 -5 5 -31 -27 -106 -46 -106 -10 0 -13 -9 -6 -20
7 -11 4 -20 -6 -20 -11 0 -30 -26 -43 -58 -13 -32 -45 -78 -71 -102 l-48 -45
-61 96 c-34 53 -61 109 -61 123 0 14 -10 26 -21 26 -12 0 -16 8 -10 18 6 10
-2 23 -18 29 -15 6 -43 43 -62 82 -18 39 -42 71 -52 71 -11 0 -14 9 -7 20 7
11 2 20 -12 20 -13 0 -44 23 -70 50 -25 28 -65 50 -88 50 -23 0 -37 9 -30 20
32 52 -27 11 -88 -60 -37 -43 -75 -74 -85 -68 -10 6 -16 4 -14 -6 9 -30 -26
-107 -43 -96 -9 5 -12 -6 -7 -25 5 -19 -5 -74 -22 -123 -36 -101 -37 -108 -14
-94 10 6 6 -38 -8 -97 -13 -60 -20 -113 -15 -118 6 -6 3 -22 -6 -36 -9 -15
-18 -71 -21 -127 -7 -160 -25 -273 -60 -381 l-32 -101 57 -60 c89 -92 233
-146 282 -105 14 12 26 16 26 8 0 -20 122 69 185 135 30 32 55 49 55 38 0 -10
18 -24 40 -30 22 -6 40 -25 40 -42 0 -18 12 -32 27 -32 15 0 48 -18 73 -40 25
-22 53 -40 62 -40 31 0 118 47 118 63 0 9 18 17 40 17 27 0 40 13 40 40 0 60
50 49 138 -30 80 -73 225 -130 293 -115 21 5 62 10 90 12 61 5 199 83 199 114
0 12 9 16 20 9 11 -7 20 -4 20 6 0 11 17 24 38 29 41 11 87 -9 83 -37 -1 -10
18 -21 43 -25 25 -4 61 -20 80 -37 19 -17 75 -35 125 -41 50 -6 86 -17 81 -25
-5 -8 18 -12 50 -8 33 4 60 0 60 -9 0 -9 14 -16 30 -16 17 0 30 6 30 14 0 8
47 16 105 16 154 3 182 6 210 28 14 11 25 14 25 7 0 -8 25 9 55 37 30 28 64
51 75 52 215 6 264 639 49 639 -12 0 -16 8 -10 18 20 33 -78 -3 -126 -46 -26
-23 -60 -66 -75 -96 -20 -38 -39 -51 -63 -43 -25 8 -28 6 -9 -8 31 -22 10 -85
-28 -85 -15 0 -28 -7 -28 -17 0 -9 -11 -17 -25 -17 -43 -1 -85 -15 -97 -33
-19 -26 -101 25 -85 53 7 13 6 18 -2 10 -9 -8 -34 -5 -56 7 -33 17 -35 25 -13
39 22 14 21 17 -7 18 -19 0 -36 7 -38 15 -32 190 -36 265 -16 265 14 0 14 12
0 38 -15 29 -13 41 9 49 16 6 25 24 19 38 -42 109 257 222 318 121 9 -16 39
-37 67 -47 33 -13 46 -30 38 -50 -6 -18 -3 -26 8 -19 11 7 20 5 20 -5 0 -9 19
-18 42 -20 23 -1 53 -17 66 -35 32 -44 192 113 203 198 31 236 31 229 -10 242
-21 6 -62 39 -89 71 -27 32 -59 59 -71 59 -11 0 -21 9 -21 20 0 11 -19 20 -41
20 -23 0 -36 8 -30 19 7 10 -23 16 -69 12 -47 -3 -80 3 -80 16 0 14 -8 13 -23
-2 -14 -14 -38 -16 -69 -4 -26 10 -63 12 -81 5 -23 -9 -29 -5 -19 11 16 25 7
31 -15 9z m-1773 -623 c138 -232 255 -422 260 -422 6 0 42 56 82 124 434 756
427 745 442 683 7 -32 42 -283 77 -558 66 -525 80 -570 172 -570 26 0 47 -8
47 -18 0 -9 -117 -17 -260 -16 -143 0 -260 8 -260 17 0 9 18 17 41 17 22 0 45
12 51 27 9 25 -48 615 -61 628 -12 12 -354 -608 -365 -660 -17 -86 -24 -77
-246 304 -114 198 -211 356 -215 353 -14 -14 -67 -597 -57 -624 6 -15 29 -28
51 -28 23 0 41 -9 41 -20 0 -12 -77 -20 -190 -20 -113 0 -190 8 -190 20 0 11
21 20 46 20 105 0 110 17 184 589 39 297 70 552 70 566 0 52 32 5 280 -412z
m2109 384 c107 -36 104 -30 120 -212 12 -138 -14 -189 -39 -75 -57 261 -472
346 -664 137 -178 -193 -178 -641 0 -834 198 -216 602 -125 671 151 52 206 50
205 65 36 l15 -160 -73 -75 c-256 -265 -853 -163 -1022 176 -276 552 289 1074
927 856z"/>
<path d="M442 33283 c-4 -83 149 -637 200 -723 10 -16 44 -80 77 -142 144
-275 574 -818 647 -818 11 0 -37 61 -108 135 -430 450 -656 886 -804 1555 -8
35 -10 34 -12 -7z"/>
<path d="M921 31959 c23 -44 294 -322 379 -389 27 -22 -9 23 -80 100 -72 77
-166 183 -209 235 -82 98 -129 126 -90 54z"/>
<path d="M1381 31466 c1 -22 166 -146 178 -134 5 5 -17 32 -50 59 -76 64 -129
95 -128 75z"/>
<path d="M2720 30824 c0 -22 58 -35 240 -55 171 -19 144 8 -33 33 -75 10 -153
24 -172 30 -19 6 -35 2 -35 -8z"/>
<path d="M2197 30575 c-79 -63 -40 -175 60 -175 100 0 140 100 66 167 -43 39
-84 42 -126 8z"/>
<path d="M8450 30586 c-35 -6 -40 -20 -33 -87 l7 -79 -73 0 c-71 0 -73 -2 -67
-65 5 -59 12 -65 74 -65 l67 1 -11 -141 c-22 -281 132 -426 300 -282 l56 49
-47 50 c-42 45 -51 47 -78 21 -55 -55 -85 2 -85 164 l0 148 90 0 c90 0 90 0
90 70 0 70 0 70 -93 70 l-92 0 10 80 c12 85 3 90 -115 66z"/>
<path d="M4719 30495 c-131 -88 -180 -279 -120 -463 64 -194 340 -253 481
-102 l47 50 -47 50 c-54 57 -85 63 -120 20 -82 -98 -200 -1 -200 164 0 167 93
235 188 139 l47 -46 64 52 63 52 -46 42 c-110 100 -246 116 -357 42z"/>
<path d="M279 30445 c0 -30 -6 -179 -12 -331 l-12 -277 87 7 88 6 -6 210 c-7
247 14 239 68 -24 l36 -178 60 6 c57 6 63 16 106 156 79 261 85 263 68 17
l-12 -173 68 -11 c101 -17 102 -14 102 297 0 353 1 350 -117 350 l-93 0 -49
-200 c-56 -232 -61 -232 -121 15 l-44 185 -108 0 c-104 0 -108 -2 -109 -55z"/>
<path d="M1760 30427 c-183 -74 -157 -239 56 -346 94 -47 126 -95 82 -123 -36
-24 -111 -6 -178 42 l-53 38 -33 -57 c-62 -104 11 -165 200 -168 285 -4 325
231 65 377 -111 63 -125 85 -73 118 28 18 63 8 155 -43 5 -3 26 21 45 54 34
57 34 60 -6 81 -49 26 -218 44 -260 27z"/>
<path d="M2562 30387 c-239 -168 -37 -643 217 -508 32 18 37 7 46 -111 12
-152 6 -141 95 -157 l70 -14 0 397 c0 241 -8 402 -20 411 -36 26 -110 16 -110
-15 0 -16 -3 -30 -8 -30 -4 0 -39 14 -79 30 -93 39 -153 38 -211 -3z m242
-149 c34 -19 39 -34 27 -104 -26 -167 -211 -162 -211 6 0 112 79 154 184 98z"/>
<path d="M7900 30387 c-71 -50 -96 -86 -121 -172 -77 -276 213 -482 431 -307
l60 49 -59 61 c-52 55 -62 59 -91 32 -113 -102 -255 50 -179 191 23 43 135 55
172 18 21 -21 127 12 127 41 0 88 -249 152 -340 87z"/>
<path d="M3807 30359 c-138 -89 -163 -331 -45 -441 96 -90 293 -94 405 -9 72
55 -36 175 -111 123 -62 -44 -143 -40 -187 9 -56 62 -9 81 176 74 l155 -5 0
64 c0 194 -218 297 -393 185z m240 -103 c31 -49 11 -59 -105 -52 l-103 6 32
46 c39 55 142 55 176 0z"/>
<path d="M5330 30381 c-189 -78 -203 -423 -20 -509 196 -94 410 22 410 221 -1
234 -188 372 -390 288z m199 -132 c77 -78 18 -269 -83 -269 -49 0 -106 79
-106 146 0 128 111 200 189 123z"/>
<path d="M5820 30244 c0 -87 -6 -213 -13 -281 l-13 -123 93 0 93 0 0 167 c0
177 16 212 114 242 107 32 133 -15 120 -222 l-11 -189 84 6 83 6 6 180 c8 213
-17 313 -85 349 -60 33 -200 17 -249 -27 -46 -42 -65 -40 -58 3 5 28 -11 36
-79 41 l-85 6 0 -158z"/>
<path d="M6510 30375 c-5 -14 -11 -140 -14 -280 l-6 -255 82 0 82 0 13 105 c7
58 13 139 13 181 0 128 202 182 232 62 13 -50 -4 -265 -25 -319 -9 -23 9 -29
79 -29 l90 0 13 155 c30 344 -106 498 -324 365 -65 -39 -65 -39 -65 0 0 47
-154 60 -170 15z"/>
<path d="M7304 30359 c-124 -75 -163 -275 -78 -401 83 -124 311 -151 425 -52
l50 44 -47 58 c-46 57 -49 58 -95 25 -88 -61 -242 -22 -213 54 10 27 44 33
186 33 l173 0 -11 85 c-24 175 -226 255 -390 154z m225 -90 c53 -54 35 -69
-79 -69 -119 0 -128 7 -77 63 41 45 113 48 156 6z"/>
<path d="M1020 30209 c0 -327 193 -500 388 -347 131 103 183 475 71 504 -99
26 -119 -1 -119 -160 0 -171 -22 -226 -89 -226 -65 0 -98 104 -87 272 l8 128
-86 0 -86 0 0 -171z"/>
<path d="M3084 30195 c14 -269 87 -375 256 -375 167 0 243 108 256 362 l9 173
-54 13 c-107 27 -128 4 -117 -126 15 -155 -20 -262 -85 -262 -69 0 -94 64 -94
243 l0 157 -90 0 -90 0 9 -185z"/>
<path d="M2180 30233 c0 -48 -6 -156 -13 -240 l-13 -153 81 0 c101 0 105 9
105 272 l0 208 -80 0 -80 0 0 -87z"/>
<path d="M1960 29320 c0 -51 -7 -62 -33 -52 -58 23 -107 -45 -107 -149 0 -108
25 -137 116 -135 l64 2 3 167 c2 92 4 178 5 190 1 13 -9 27 -23 32 -17 6 -25
-13 -25 -55z m-3 -157 c8 -61 -13 -143 -37 -143 -34 0 -63 82 -49 142 15 72
75 73 86 1z"/>
<path d="M2547 29350 c-6 -16 -6 -45 1 -62 10 -25 3 -30 -25 -23 -92 24 -153
-108 -100 -218 22 -47 41 -58 102 -60 l75 -3 0 198 c0 184 -21 251 -53 168z
m3 -189 c14 -65 -20 -148 -56 -136 -26 9 -43 122 -26 167 19 49 68 30 82 -31z"/>
<path d="M2745 29340 c-21 -32 -20 -40 1 -40 29 0 74 39 74 64 0 31 -51 15
-75 -24z"/>
<path d="M293 29319 c-140 -110 -51 -342 128 -335 l101 5 -6 90 c-6 90 -7 91
-83 97 -57 5 -75 0 -68 -20 5 -14 29 -24 52 -21 57 6 59 -65 3 -95 -91 -48
-168 85 -115 197 33 69 126 84 145 24 13 -42 70 -58 70 -20 0 91 -146 141
-227 78z"/>
<path d="M1017 29295 c-19 -104 12 -304 48 -311 37 -7 48 26 15 46 -25 16 -27
184 -2 193 28 10 2 117 -28 117 -14 0 -29 -20 -33 -45z"/>
<path d="M3514 29297 c-8 -28 -22 -38 -42 -30 -17 6 -36 3 -42 -7 -6 -10 -24
-13 -41 -7 -24 9 -29 -14 -29 -131 0 -187 54 -210 64 -27 8 152 76 186 76 38
0 -49 5 -104 12 -121 13 -35 88 -45 88 -12 0 11 -9 20 -20 20 -30 0 -25 194 5
208 20 10 20 14 0 24 -14 6 -25 29 -25 50 0 51 -33 48 -46 -5z"/>
<path d="M4700 29300 c0 -22 -11 -40 -24 -40 -19 0 -19 -5 0 -24 13 -13 24
-76 24 -140 0 -103 5 -116 40 -116 22 0 40 9 40 20 0 11 -9 20 -20 20 -30 0
-25 194 5 208 20 10 20 14 0 24 -14 6 -25 29 -25 50 0 21 -9 38 -20 38 -11 0
-20 -18 -20 -40z"/>
<path d="M600 29240 c-83 -83 -28 -269 75 -256 55 6 104 64 78 90 -9 9 -29 -1
-44 -22 -34 -46 -89 -29 -89 29 0 35 10 41 65 35 85 -8 106 80 32 132 -59 41
-69 40 -117 -8z m107 -50 c9 -22 -2 -30 -38 -30 -48 0 -63 20 -36 47 24 23 62
14 74 -17z"/>
<path d="M831 29249 c-53 -54 -15 -149 60 -149 16 0 29 -18 29 -40 0 -49 -51
-53 -78 -5 -10 19 -26 28 -35 19 -24 -25 22 -83 71 -91 106 -15 138 99 42 153
-63 36 -80 84 -30 84 17 0 30 -9 30 -20 0 -11 9 -20 20 -20 35 0 21 58 -19 79
-50 27 -52 27 -90 -10z"/>
<path d="M1273 29255 c-91 -67 -48 -275 57 -275 96 0 131 209 46 269 -54 37
-59 38 -103 6z m95 -67 c32 -84 -13 -192 -67 -159 -23 15 -29 156 -8 178 24
23 62 14 75 -19z"/>
<path d="M1520 29266 c-48 -7 -50 -13 -47 -141 4 -168 43 -192 51 -32 9 177
76 184 76 8 0 -94 7 -121 30 -121 43 0 42 225 -1 269 -18 17 -38 30 -45 28 -8
-2 -36 -7 -64 -11z"/>
<path d="M2104 29249 c-49 -35 -62 -159 -23 -230 39 -74 179 -34 179 50 0 24
-47 9 -71 -23 -21 -30 -29 -31 -58 -7 -48 40 -28 69 50 70 85 1 104 66 40 130
-49 49 -59 50 -117 10z m91 -64 c5 -16 -11 -25 -43 -25 -38 0 -48 8 -39 31 14
35 70 31 82 -6z"/>
<path d="M2715 29265 c-54 -12 -86 -146 -52 -217 32 -68 128 -81 164 -24 30
47 -1 71 -34 26 -34 -46 -93 -27 -93 32 0 37 9 41 70 34 64 -7 70 -4 70 43 -1
83 -48 123 -125 106z m80 -80 c5 -16 -11 -25 -43 -25 -51 0 -66 19 -38 47 21
21 71 7 81 -22z"/>
<path d="M2946 29266 c-52 -10 -82 -366 -31 -366 14 0 25 22 25 48 0 40 8 46
43 37 59 -15 97 42 97 146 0 72 -47 157 -82 146 -4 -1 -28 -6 -52 -11z m86
-96 c26 -103 -45 -209 -80 -118 -16 42 -15 138 1 155 29 28 67 11 79 -37z"/>
<path d="M3164 29249 c-51 -36 -58 -69 -14 -69 17 0 30 9 30 20 0 11 18 20 40
20 62 0 47 -50 -25 -81 -120 -53 -94 -148 40 -152 58 -1 105 6 105 15 0 10 -9
18 -20 18 -11 0 -20 49 -20 109 0 88 -8 114 -39 130 -48 26 -44 27 -97 -10z
m96 -167 c0 -9 -14 -29 -31 -43 -35 -29 -83 2 -60 39 16 26 91 30 91 4z"/>
<path d="M3660 29240 c-49 -49 -54 -183 -9 -229 59 -58 169 -21 169 58 0 24
-47 9 -73 -24 -26 -33 -29 -33 -56 3 -40 51 -20 76 56 68 79 -8 98 59 34 123
-51 51 -71 51 -121 1z m100 -50 c0 -17 -18 -30 -40 -30 -22 0 -40 13 -40 30 0
17 18 30 40 30 22 0 40 -13 40 -30z"/>
<path d="M3941 29260 c-15 -9 -39 -12 -54 -6 -21 8 -27 -21 -27 -132 0 -113 6
-142 30 -142 23 0 30 27 30 121 0 106 5 121 35 115 29 -6 34 -26 29 -122 -5
-91 0 -114 24 -114 23 0 31 29 36 115 4 86 14 115 36 115 22 0 32 -29 36 -115
8 -157 44 -146 44 13 0 141 -30 191 -93 155 -21 -11 -49 -12 -68 -3 -17 10
-43 10 -58 0z"/>
<path d="M4264 29249 c-53 -38 -64 -208 -15 -248 56 -47 194 23 144 73 -9 9
-25 0 -35 -19 -25 -44 -70 -45 -86 -3 -24 62 -13 73 58 62 84 -14 109 104 31
145 -48 26 -44 27 -97 -10z m91 -64 c5 -16 -11 -25 -43 -25 -51 0 -66 19 -38
47 21 21 71 7 81 -22z"/>
<path d="M4531 29261 c-7 -11 -25 -14 -42 -8 -24 9 -29 -14 -29 -131 0 -81 9
-142 20 -142 11 0 20 40 20 88 0 108 15 152 52 152 21 0 28 -31 28 -120 0 -93
7 -120 30 -120 50 0 42 252 -9 279 -47 26 -56 26 -70 2z"/>
<path d="M1140 29120 c0 -80 9 -140 20 -140 11 0 20 60 20 140 0 80 -9 140
-20 140 -11 0 -20 -60 -20 -140z"/>
</g>
</svg>
