<?xml version="1.0" standalone="no"?>
<!DOCTYPE svg PUBLIC "-//W3C//DTD SVG 20010904//EN"
 "http://www.w3.org/TR/2001/REC-SVG-20010904/DTD/svg10.dtd">
<svg version="1.0" xmlns="http://www.w3.org/2000/svg"
 width="6000.000000pt" height="5553.000000pt" viewBox="0 0 6000.000000 5553.000000"
 preserveAspectRatio="xMidYMid meet">
<metadata>
Created by potrace 1.10, written by Peter Selinger 2001-2011
</metadata>
<g transform="translate(0.000000,5553.000000) scale(0.100000,-0.100000)"
fill="#1473aa" stroke="none">
<path d="M5077 55054 c-4 -4 -82 -8 -174 -9 -254 -4 -506 -29 -693 -70 -41 -9
-111 -22 -155 -29 -74 -13 -118 -25 -170 -46 -20 -8 -68 -22 -160 -44 -27 -7
-63 -18 -78 -24 -16 -7 -39 -12 -52 -12 -14 0 -41 -7 -62 -16 -54 -24 -138
-57 -228 -91 -22 -8 -47 -19 -55 -24 -30 -17 -99 -49 -107 -49 -5 0 -48 -20
-96 -45 -48 -25 -94 -45 -103 -45 -8 0 -31 -10 -52 -23 -20 -12 -49 -28 -64
-35 -16 -6 -28 -17 -28 -25 0 -9 -12 -11 -38 -9 -30 3 -51 -4 -99 -33 -33 -20
-63 -45 -66 -55 -3 -11 -13 -18 -24 -17 -21 1 -93 -40 -93 -53 0 -5 -9 -12
-21 -15 -12 -4 -29 -14 -38 -23 -91 -87 -112 -101 -193 -128 -9 -3 -18 -15
-20 -26 -2 -11 -19 -30 -39 -42 -78 -45 -148 -98 -163 -121 -9 -14 -25 -25
-34 -25 -10 0 -32 -15 -49 -32 -16 -18 -58 -60 -92 -93 -53 -51 -59 -60 -44
-69 10 -5 20 -11 23 -13 2 -2 -13 -19 -35 -37 -38 -32 -39 -35 -26 -59 13 -24
12 -28 -10 -51 -17 -17 -27 -22 -36 -14 -19 16 -33 0 -33 -39 0 -33 -2 -35
-27 -30 -35 6 -63 -8 -63 -32 0 -21 -102 -131 -122 -131 -12 0 -37 -34 -108
-145 -8 -13 -45 -68 -82 -123 -38 -55 -68 -105 -68 -110 0 -5 -9 -19 -20 -32
-11 -13 -20 -30 -20 -38 0 -8 -11 -29 -24 -46 -13 -17 -26 -41 -30 -53 -4 -14
-15 -23 -27 -23 -17 0 -19 -5 -13 -55 5 -36 3 -55 -4 -55 -6 0 -14 -9 -17 -20
-10 -32 -35 -25 -35 10 0 17 -4 30 -10 30 -5 0 -10 -16 -10 -35 0 -18 -6 -38
-12 -42 -16 -10 -45 -68 -54 -106 -3 -15 -10 -30 -15 -33 -5 -3 -9 -13 -9 -22
0 -9 -6 -28 -13 -42 -28 -54 -62 -172 -58 -203 1 -10 -4 -26 -12 -35 -8 -10
-22 -35 -31 -57 -9 -21 -20 -42 -25 -45 -11 -7 -40 -127 -46 -196 -3 -32 -17
-95 -30 -139 -46 -152 -53 -180 -60 -230 -4 -27 -12 -58 -17 -68 -5 -10 -13
-59 -19 -110 -5 -51 -13 -126 -18 -167 -12 -97 -12 -433 -1 -530 6 -41 12
-131 15 -200 4 -69 9 -136 12 -150 l6 -25 7 25 c8 24 5 183 -5 415 -6 129 13
526 26 540 5 5 9 26 9 46 0 20 7 56 15 79 8 23 15 67 15 97 0 61 33 206 85
373 7 25 11 57 8 71 -3 15 2 40 12 58 9 17 17 48 18 69 1 28 8 39 25 47 23 10
28 20 14 29 -4 3 -6 21 -4 41 5 46 28 41 25 -6 -2 -55 -26 -189 -34 -189 -4 0
-10 -22 -14 -50 -4 -27 -11 -53 -17 -56 -5 -3 -6 -19 -3 -34 3 -16 2 -31 -4
-35 -6 -3 -11 -21 -11 -39 0 -17 -5 -37 -10 -42 -6 -6 -13 -37 -16 -69 -2 -32
-9 -64 -14 -70 -6 -7 -10 -41 -9 -76 1 -35 -6 -97 -15 -137 -18 -83 -21 -142
-6 -142 11 0 13 -81 4 -118 -5 -18 -9 -20 -20 -11 -8 6 -14 10 -15 8 0 -2 -2
-94 -4 -203 -3 -135 -1 -204 7 -213 7 -9 7 -21 0 -40 -6 -16 -9 -55 -8 -88 2
-33 -1 -117 -7 -188 -10 -118 -9 -128 7 -140 12 -9 20 -31 24 -66 2 -28 9 -54
13 -57 5 -3 9 -36 9 -74 0 -59 3 -73 24 -95 22 -23 24 -33 19 -76 -5 -41 -2
-53 14 -72 12 -12 24 -36 28 -54 3 -17 13 -37 21 -44 9 -7 14 -25 12 -44 -1
-18 5 -44 15 -58 9 -15 17 -34 17 -43 0 -23 38 -142 56 -176 8 -14 14 -34 14
-45 0 -10 7 -27 15 -37 8 -11 15 -27 15 -37 0 -9 13 -43 30 -75 16 -32 30 -64
30 -70 0 -10 21 -59 41 -96 5 -10 9 -24 9 -31 0 -16 57 -135 75 -157 7 -8 16
-26 20 -39 6 -21 76 -133 105 -168 6 -7 10 -21 10 -32 0 -10 16 -38 35 -61 19
-23 35 -48 35 -55 0 -7 7 -19 16 -26 9 -7 41 -52 72 -99 80 -120 139 -197 197
-255 27 -27 115 -120 195 -205 241 -257 506 -506 613 -574 29 -18 72 -50 95
-70 24 -20 50 -36 58 -36 7 0 29 -13 47 -30 19 -16 37 -30 41 -30 3 0 34 -17
68 -38 74 -45 137 -76 143 -70 4 4 -33 34 -127 104 -27 19 -48 41 -48 48 0 8
-7 17 -16 20 -8 3 -12 11 -8 17 5 9 11 7 20 -5 7 -10 21 -16 31 -15 10 2 34
-11 53 -29 19 -18 40 -32 48 -32 7 0 24 -7 37 -16 20 -13 28 -14 40 -4 9 7 19
9 23 5 4 -4 1 -10 -6 -12 -26 -10 1 -23 34 -17 22 4 34 2 34 -5 0 -6 -4 -11
-10 -11 -5 0 -10 -5 -10 -11 0 -11 16 -9 51 5 10 4 23 1 32 -8 9 -9 22 -16 30
-16 9 0 28 -6 44 -14 51 -26 135 -61 213 -91 25 -10 54 -21 65 -26 50 -21 390
-129 485 -153 36 -10 78 -21 93 -26 16 -5 34 -7 40 -4 10 3 75 -9 173 -33 16
-3 23 1 27 17 3 13 0 23 -9 26 -8 2 -21 6 -30 9 -10 3 -13 12 -9 24 5 15 -1
20 -32 25 -56 10 -171 36 -227 52 -26 8 -55 14 -63 14 -16 0 -98 25 -148 46
-16 6 -55 20 -85 30 -30 9 -69 23 -87 31 -17 7 -35 13 -40 13 -11 0 -68 25
-93 40 -14 9 -41 22 -150 73 -25 11 -58 31 -73 44 -16 13 -34 23 -41 23 -7 0
-23 12 -37 26 -13 14 -57 44 -96 66 -40 22 -84 54 -99 71 -15 18 -52 47 -82
65 -48 29 -245 175 -278 207 -6 5 -35 30 -64 55 -105 87 -225 197 -339 311
-63 62 -160 168 -196 214 -22 28 -43 52 -46 55 -31 28 -339 472 -339 489 0 4
-12 26 -27 48 -16 21 -33 48 -40 59 -67 109 -83 137 -83 149 0 7 -6 20 -13 27
-16 17 -37 65 -37 84 0 13 3 13 22 0 12 -9 27 -16 32 -16 12 0 1 63 -18 100
-8 16 -17 43 -21 60 -4 16 -11 32 -16 35 -5 4 -9 18 -9 33 0 15 -7 38 -16 50
-17 25 -16 63 4 70 8 2 12 -8 12 -31 0 -22 6 -37 15 -41 9 -3 15 -18 15 -36 0
-18 6 -33 15 -36 8 -4 15 -14 15 -23 0 -10 7 -26 15 -37 8 -10 15 -29 15 -41
0 -12 7 -28 15 -37 8 -8 15 -21 16 -28 0 -7 18 -44 39 -83 21 -38 46 -85 55
-104 8 -19 31 -58 50 -87 19 -29 35 -55 35 -58 0 -3 14 -25 30 -49 17 -25 30
-47 30 -50 0 -12 126 -195 169 -246 25 -30 60 -74 76 -97 48 -66 282 -313 414
-436 71 -66 91 -79 91 -58 0 6 -7 10 -15 10 -8 0 -15 7 -15 15 0 21 16 19 50
-7 35 -25 38 -38 10 -38 -11 0 -20 -4 -20 -10 0 -5 3 -10 8 -10 6 0 67 -49
103 -85 20 -19 29 -19 29 0 0 8 -7 15 -15 15 -8 0 -15 7 -15 15 0 8 -6 15 -13
15 -14 0 -51 39 -44 47 7 6 57 -27 57 -38 0 -5 4 -9 9 -9 6 0 22 -11 37 -25
22 -21 24 -26 10 -31 -24 -9 -20 -16 22 -44 20 -14 43 -31 50 -37 10 -10 17
-10 32 -1 23 14 55 0 98 -43 15 -16 35 -29 44 -29 14 0 65 -28 166 -92 77 -48
388 -208 406 -208 8 0 19 -7 26 -15 7 -8 22 -15 34 -15 11 0 30 -7 40 -15 11
-8 27 -15 37 -15 9 0 22 -7 29 -15 7 -8 26 -15 42 -15 16 0 31 -6 34 -15 4 -9
19 -15 39 -15 18 0 38 -7 45 -15 7 -8 27 -15 46 -15 32 0 59 -20 36 -28 -7 -2
-12 -9 -12 -15 0 -8 4 -7 12 1 17 17 70 15 94 -3 10 -8 38 -15 60 -15 24 0 47
-6 54 -15 8 -10 31 -15 69 -15 31 0 61 -4 67 -10 5 -5 43 -12 84 -16 41 -3 95
-12 120 -19 136 -40 969 -38 1101 3 19 6 68 15 109 21 118 17 191 31 211 41
10 6 28 10 42 10 13 0 43 6 68 14 24 7 71 21 104 31 33 9 71 22 85 27 14 6 39
14 55 19 41 10 113 37 152 54 17 8 36 15 41 15 6 0 23 6 39 14 15 8 39 19 53
25 88 36 136 58 220 99 52 26 97 50 98 54 2 5 8 8 14 8 13 0 212 119 298 178
78 54 248 182 292 220 131 114 282 262 383 377 39 43 78 87 88 97 9 10 17 21
17 24 0 9 63 88 77 97 7 4 13 15 13 22 0 8 5 15 10 15 6 0 10 8 10 18 0 10 8
25 18 34 29 28 42 46 42 60 0 8 14 28 30 46 17 18 30 39 30 46 0 8 7 19 15 26
8 7 15 16 15 21 0 5 12 28 27 52 50 77 233 440 233 461 0 3 14 35 31 73 45
102 46 104 69 163 12 30 25 62 29 70 4 8 24 69 45 135 20 66 44 140 52 165 8
25 14 53 14 63 0 10 6 39 14 65 15 50 36 167 58 317 16 111 17 220 1 260 -6
17 -14 42 -17 58 -8 36 -26 35 -26 -2 0 -16 -5 -42 -11 -58 -11 -29 -21 -83
-44 -248 -24 -167 -36 -238 -51 -291 -8 -28 -14 -63 -14 -78 0 -33 -29 -86
-47 -86 -17 0 -17 49 1 108 18 62 35 157 47 262 6 47 14 119 19 160 12 104 12
620 -1 700 -5 36 -14 103 -18 150 -5 47 -14 98 -20 113 -6 16 -11 42 -11 59 0
17 -6 54 -14 82 -50 178 -56 221 -38 247 8 11 15 42 16 68 1 41 -4 53 -32 85
-53 60 -82 113 -82 148 0 89 -126 380 -192 441 -13 12 -32 39 -43 60 -11 20
-23 37 -27 37 -5 0 -8 5 -8 11 0 6 -8 21 -17 34 -10 12 -25 33 -33 45 -8 12
-23 32 -33 43 -11 12 -51 69 -90 127 -38 57 -94 134 -124 170 -45 54 -53 69
-47 92 3 17 1 28 -5 28 -6 0 -11 5 -11 11 0 7 -7 17 -17 24 -22 17 -7 36 23
29 19 -5 24 -2 24 12 0 9 -7 25 -16 35 -9 10 -14 25 -12 35 2 15 8 12 35 -14
30 -31 114 -148 141 -197 7 -13 26 -36 43 -52 84 -78 209 -207 254 -261 28
-34 55 -62 61 -62 17 0 26 47 14 70 -15 28 -12 38 10 45 20 6 20 7 3 33 -10
15 -25 43 -34 62 -9 19 -22 47 -29 62 -7 14 -9 31 -6 37 4 6 1 23 -7 38 -47
90 -66 132 -72 162 -4 19 -25 60 -46 92 -22 31 -39 61 -39 67 0 5 -7 12 -15
16 -17 6 -20 32 -4 41 6 4 13 -2 16 -14 3 -12 11 -21 18 -21 7 0 15 -7 19 -15
3 -8 10 -15 17 -15 26 0 -27 65 -181 219 -180 181 -292 279 -370 324 -25 14
-54 34 -65 44 -38 33 -113 83 -127 83 -7 0 -28 9 -46 20 -18 11 -45 20 -60 20
-18 0 -41 14 -72 43 -25 24 -63 51 -85 62 -21 10 -57 31 -79 46 -27 20 -51 29
-78 29 -23 0 -53 9 -76 23 -20 13 -58 34 -83 47 -50 24 -75 60 -56 79 14 14 9
18 -59 46 -64 26 -76 40 -44 50 12 4 19 9 16 12 -3 3 -19 0 -35 -7 -20 -8 -35
-9 -47 -2 -14 8 -13 10 10 16 14 3 26 10 26 14 0 8 -80 52 -94 52 -4 0 -32 12
-63 26 -45 22 -57 24 -64 13 -9 -16 -93 -16 -112 -1 -11 9 -58 22 -157 42 -25
6 -54 14 -65 20 -25 12 -173 50 -195 50 -23 0 -56 38 -44 50 5 5 31 10 58 12
136 8 3 68 -254 113 -80 14 -375 46 -430 46 -130 1 -368 -11 -418 -20 -35 -7
-76 -9 -92 -6 -16 3 -31 2 -35 -4 -8 -14 -192 -15 -200 -1 -3 6 0 12 7 14 39
12 197 29 292 31 125 4 180 12 218 31 32 17 309 18 428 3 41 -6 118 -13 170
-17 52 -5 105 -13 117 -20 12 -7 39 -12 60 -12 21 0 56 -5 78 -11 22 -6 63
-14 90 -19 28 -5 84 -18 125 -30 41 -11 100 -27 130 -35 30 -8 56 -19 58 -25
2 -5 25 -10 52 -10 26 0 61 -7 76 -15 16 -8 41 -15 56 -15 15 0 29 -4 32 -9 3
-4 36 -18 73 -30 37 -13 82 -29 100 -37 35 -16 53 -18 53 -6 0 11 -190 101
-230 109 -19 3 -57 16 -85 28 -27 13 -66 26 -85 30 -19 4 -39 10 -45 14 -17
10 -164 50 -270 72 -27 6 -57 15 -67 20 -9 5 -54 14 -100 19 -46 6 -117 15
-158 21 -41 6 -130 11 -198 10 -107 -1 -125 1 -150 18 -26 19 -34 20 -169 9
-126 -10 -147 -9 -185 5 -48 19 -183 23 -193 7 -3 -5 3 -10 14 -10 11 0 23 -5
27 -12 5 -8 -22 -10 -109 -5 -73 4 -117 3 -117 -3 0 -6 9 -10 20 -10 11 0 20
-6 20 -12 0 -23 -53 -41 -140 -49 -47 -4 -100 -11 -118 -14 -32 -7 -33 -7 -26
20 l7 27 -54 -3 -54 -4 0 30 c0 24 5 31 25 33 14 2 31 8 37 14 7 6 68 14 135
19 68 5 155 14 193 19 129 18 239 21 395 10 192 -14 220 -15 295 -12 75 3 194
-6 260 -19 28 -6 83 -15 124 -20 41 -5 94 -16 118 -24 24 -8 62 -15 83 -15 22
0 48 -4 58 -9 9 -6 38 -13 64 -16 26 -3 50 -10 53 -16 4 -5 15 -9 27 -9 11 0
34 -6 51 -14 18 -8 77 -24 132 -36 54 -11 104 -25 110 -29 5 -5 41 -18 79 -30
39 -12 106 -39 150 -61 45 -21 93 -42 109 -45 15 -4 30 -11 33 -16 3 -5 15 -9
27 -8 21 0 21 1 -3 12 -14 7 -33 21 -42 33 -9 11 -36 28 -60 38 -24 10 -56 24
-73 31 -16 8 -46 20 -65 29 -46 20 -223 76 -241 76 -8 0 -26 6 -40 14 -14 7
-43 16 -64 20 -21 4 -44 14 -52 22 -8 8 -18 12 -23 9 -5 -3 -26 1 -47 10 -21
8 -69 19 -108 24 -38 6 -106 17 -150 25 -44 9 -132 22 -195 31 -63 8 -121 17
-130 20 -8 2 -79 7 -158 10 -79 3 -152 9 -162 15 -21 11 -73 13 -83 4z m-887
-145 c0 -15 -41 -48 -60 -49 -8 0 -28 -7 -44 -15 -15 -8 -52 -15 -80 -15 -28
0 -60 -6 -71 -14 -11 -7 -41 -16 -67 -20 -26 -4 -50 -11 -53 -16 -3 -5 -26
-12 -51 -16 -35 -5 -47 -12 -54 -30 -8 -21 -12 -22 -39 -13 -24 8 -35 7 -53
-5 -12 -9 -34 -16 -48 -16 -14 0 -34 -7 -44 -15 -23 -17 -44 -19 -65 -6 -20
13 3 41 33 41 11 0 30 7 40 15 11 8 32 15 47 15 15 0 31 5 34 10 3 6 18 10 33
10 15 0 41 9 57 20 17 11 44 20 62 20 17 0 34 4 38 9 3 6 27 13 53 16 26 4 56
10 67 14 11 5 38 16 60 25 22 9 64 17 93 20 29 2 58 8 65 15 14 14 47 14 47 0z
m87 -75 c-9 -9 -28 6 -21 18 4 6 10 6 17 -1 6 -6 8 -13 4 -17z m151 -36 c-3
-21 -11 -24 -73 -30 -38 -4 -80 -12 -93 -18 -13 -5 -51 -10 -86 -10 -45 0 -67
-4 -76 -15 -9 -11 -27 -15 -54 -13 -51 4 -54 22 -4 26 20 2 42 10 48 18 7 8
29 14 50 14 20 0 59 7 86 15 27 8 67 15 89 16 22 0 49 4 60 9 38 16 57 12 53
-12z m965 -37 c18 -6 64 -14 102 -18 39 -4 70 -12 70 -18 0 -25 -439 -31 -469
-6 -8 7 -76 14 -160 18 -110 5 -146 9 -146 19 0 10 27 14 103 17 159 6 465 -1
500 -12z m-2743 -423 c0 -7 -17 -24 -38 -38 -20 -14 -39 -27 -42 -30 -3 -3
-13 -9 -22 -15 -9 -5 -39 -27 -67 -47 -32 -24 -53 -33 -57 -27 -4 6 -2 14 3
18 5 3 12 14 16 23 8 23 105 98 127 98 10 0 23 7 30 15 15 18 50 20 50 3z
m4625 -788 c-5 -8 -11 -8 -17 -2 -6 6 -7 16 -3 22 5 8 11 8 17 2 6 -6 7 -16 3
-22z m80 -40 c-3 -11 -3 -20 2 -20 20 -1 103 -87 103 -108 0 -25 -18 -30 -26
-7 -4 8 -10 15 -14 15 -5 0 -34 24 -65 53 -53 50 -56 55 -40 70 24 24 48 22
40 -3z m-6345 -968 c-1 -30 -34 -77 -49 -68 -10 7 -3 46 9 46 4 0 10 14 14 31
7 36 26 30 26 -9z m2112 -939 c12 -14 219 -354 315 -518 10 -16 21 -32 24 -35
3 -3 97 -158 209 -345 187 -311 215 -355 230 -355 5 0 151 245 205 344 15 26
58 100 96 162 38 63 69 117 69 120 0 3 43 77 95 164 52 87 95 163 95 169 0 6
5 11 10 11 6 0 10 5 10 11 0 13 157 276 170 284 23 14 31 -30 85 -445 8 -58
21 -157 29 -220 9 -63 23 -169 31 -235 9 -66 22 -169 31 -230 8 -60 19 -148
24 -195 6 -47 14 -107 19 -135 6 -27 13 -80 16 -118 4 -37 13 -80 21 -96 25
-51 77 -88 133 -96 51 -7 82 -27 61 -40 -8 -5 -629 -9 -730 -5 -5 0 -10 7 -10
15 0 8 16 19 39 25 75 20 93 75 71 214 -5 33 -15 108 -21 166 -6 58 -17 161
-24 230 -8 69 -19 175 -25 235 -6 61 -12 117 -13 125 -2 12 -167 -249 -167
-265 0 -2 -31 -56 -70 -120 -38 -64 -70 -118 -70 -121 0 -4 -36 -67 -81 -143
-91 -153 -92 -157 -120 -214 -11 -23 -25 -50 -31 -61 -5 -10 -12 -43 -15 -72
-5 -47 -9 -54 -28 -54 -19 0 -70 80 -317 493 -163 270 -303 507 -312 525 -10
19 -20 31 -24 27 -4 -4 -10 -37 -14 -73 -15 -151 -50 -481 -77 -721 -8 -70 -7
-91 5 -117 14 -30 49 -54 78 -54 16 0 41 -28 33 -36 -3 -4 -121 -7 -262 -8
l-255 -2 0 22 c0 19 7 23 53 29 58 8 107 34 130 69 18 27 33 99 52 256 20 166
61 481 90 708 9 64 20 155 25 202 5 47 12 99 15 115 3 17 13 86 21 155 8 69
18 152 22 185 11 85 24 102 54 68z m3261 1 c130 -15 185 -27 301 -66 96 -31
146 -58 151 -82 3 -11 4 -109 3 -216 -2 -160 -6 -195 -17 -195 -8 0 -18 14
-23 30 -62 203 -204 350 -381 396 -342 87 -638 -61 -760 -381 -50 -133 -68
-292 -56 -505 13 -237 79 -405 209 -535 157 -158 339 -200 610 -141 134 29
257 130 327 267 38 76 83 201 83 232 0 9 4 29 10 46 5 17 12 43 15 59 7 33 35
37 35 5 0 -13 5 -108 10 -212 8 -134 8 -197 0 -215 -22 -54 -237 -241 -276
-241 -3 0 -20 -6 -37 -14 -63 -28 -134 -45 -256 -62 -118 -17 -131 -17 -270 0
-147 18 -239 37 -298 62 -17 8 -35 14 -40 14 -13 0 -152 73 -198 104 -69 46
-182 165 -225 236 -101 171 -123 261 -124 500 -1 128 3 199 12 230 68 226 108
298 234 423 102 101 243 179 413 227 64 18 274 48 348 49 37 1 127 -6 200 -15z
m-5163 -527 c0 -12 -4 -29 -9 -36 -8 -12 -11 -9 -16 12 -8 31 0 61 15 52 5 -3
10 -16 10 -28z m-17 -79 c4 -21 6 -55 12 -273 5 -171 39 -550 55 -615 5 -19
12 -65 15 -103 4 -37 11 -70 16 -73 5 -3 9 -17 9 -32 0 -15 18 -97 40 -182 22
-85 43 -168 46 -185 4 -16 12 -37 19 -45 7 -8 18 -40 24 -70 6 -31 27 -82 46
-113 19 -32 35 -61 35 -65 1 -4 9 -25 20 -47 11 -22 19 -48 20 -57 0 -9 18
-52 40 -94 22 -43 40 -85 40 -95 0 -23 43 -104 75 -143 14 -16 25 -33 25 -38
0 -4 20 -41 45 -81 25 -41 45 -80 45 -86 0 -6 4 -11 9 -11 5 0 12 -11 15 -25
4 -14 11 -25 16 -25 6 0 10 -7 10 -15 0 -9 7 -18 15 -21 8 -4 15 -12 15 -19 0
-7 7 -18 15 -25 15 -13 21 -50 8 -50 -11 0 -82 82 -89 103 -3 9 -10 17 -15 17
-5 0 -9 5 -9 10 0 6 -8 19 -17 29 -31 34 -40 46 -64 92 -13 24 -26 46 -29 49
-3 3 -16 28 -29 55 -14 28 -27 52 -30 55 -4 3 -12 16 -18 30 -7 14 -26 48 -42
75 -49 84 -101 191 -101 209 0 9 -12 38 -26 63 -18 32 -22 49 -15 56 17 17 13
29 -17 62 -39 43 -58 75 -67 113 -4 18 -13 45 -21 60 -8 15 -14 35 -14 44 0 9
-4 27 -9 40 -5 13 -12 35 -15 51 -4 15 -12 27 -19 27 -8 0 -12 20 -13 60 -1
33 -6 65 -12 72 -6 7 -15 42 -20 78 -6 36 -15 83 -20 105 -6 22 -17 76 -26
120 -8 44 -20 105 -25 135 -6 30 -10 87 -10 125 1 40 -6 96 -15 130 -16 55
-16 79 -6 245 19 298 19 300 40 300 10 0 20 -9 23 -22z m1247 -3143 c0 -8 -7
-15 -15 -15 -8 0 -15 7 -15 15 0 8 7 15 15 15 8 0 15 -7 15 -15z"/>
<path d="M6287 54974 c-8 -8 59 -54 79 -54 9 0 22 -7 30 -15 9 -8 25 -15 38
-15 12 0 26 -4 32 -9 27 -25 154 -35 154 -12 0 9 -104 56 -192 87 -65 23 -128
31 -141 18z"/>
<path d="M4485 54929 c-11 -4 -39 -8 -62 -8 -47 -1 -93 -16 -93 -30 0 -5 30
-7 68 -4 102 6 132 13 132 27 0 18 -20 25 -45 15z"/>
<path d="M6710 54820 c0 -12 48 -25 58 -16 8 9 -18 26 -40 26 -10 0 -18 -4
-18 -10z"/>
<path d="M6690 54581 c0 -11 39 -25 47 -18 3 3 2 10 -2 16 -8 13 -45 15 -45 2z"/>
<path d="M6710 54460 c0 -5 7 -10 15 -10 8 0 15 5 15 10 0 6 -7 10 -15 10 -8
0 -15 -4 -15 -10z"/>
<path d="M7240 54246 c0 -19 61 -66 86 -66 11 0 37 -9 58 -21 21 -11 40 -18
43 -15 13 13 -10 36 -46 47 -23 7 -41 16 -41 20 0 8 -80 49 -94 49 -4 0 -6 -7
-6 -14z"/>
<path d="M7440 54133 c1 -5 20 -20 43 -35 40 -25 87 -63 206 -166 61 -53 71
-59 71 -42 0 19 -210 220 -230 220 -10 0 -23 7 -30 15 -13 15 -60 21 -60 8z"/>
<path d="M513 50515 c-1 -101 9 -186 22 -186 6 0 13 29 17 63 6 54 5 65 -12
83 -12 12 -20 39 -23 70 -2 33 -4 23 -4 -30z"/>
<path d="M537 50273 c-7 -11 9 -218 17 -232 12 -19 24 -12 31 20 9 39 29 32
33 -12 2 -19 7 -38 12 -43 16 -16 23 43 14 107 l-9 62 -15 -30 c-8 -16 -22
-31 -31 -33 -13 -2 -17 11 -23 75 -6 72 -17 106 -29 86z"/>
<path d="M567 49977 c-3 -12 -1 -42 4 -67 5 -25 13 -69 19 -99 5 -29 13 -58
19 -65 5 -6 12 -36 16 -66 4 -30 11 -61 16 -70 4 -8 11 -28 15 -45 6 -23 8
-26 11 -10 2 11 -6 61 -17 110 -31 133 -41 185 -41 232 0 24 -5 45 -10 49 -5
3 -9 14 -9 24 0 28 -17 33 -23 7z"/>
<path d="M655 49951 c-9 -29 4 -123 16 -115 12 7 12 105 0 123 -7 11 -10 9
-16 -8z"/>
<path d="M680 49751 c0 -37 13 -61 23 -44 7 13 -5 83 -14 83 -5 0 -9 -18 -9
-39z"/>
<path d="M722 49620 c0 -19 2 -27 5 -17 2 9 2 25 0 35 -3 9 -5 1 -5 -18z"/>
<path d="M752 49500 c0 -19 2 -27 5 -17 2 9 2 25 0 35 -3 9 -5 1 -5 -18z"/>
<path d="M688 49445 c-5 -27 2 -65 13 -65 11 0 11 37 0 65 -8 20 -8 20 -13 0z"/>
<path d="M780 49420 c-4 -31 2 -85 12 -98 6 -6 14 -27 18 -45 l8 -32 1 41 c1
22 -2 44 -6 48 -5 4 -13 29 -19 54 -7 26 -13 40 -14 32z"/>
<path d="M745 49233 c8 -32 13 -39 21 -30 10 9 -5 57 -17 57 -7 0 -9 -10 -4
-27z"/>
<path d="M834 49208 c3 -17 8 -34 11 -36 11 -11 16 9 10 37 -9 42 -29 41 -21
-1z"/>
<path d="M860 49135 c0 -14 14 -54 30 -88 17 -35 30 -69 30 -75 0 -6 12 -32
26 -59 22 -41 25 -44 21 -18 -6 42 -57 179 -68 183 -5 2 -9 14 -9 27 0 30 -10
55 -21 55 -5 0 -9 -11 -9 -25z"/>
<path d="M986 48835 c-6 -17 7 -46 52 -113 18 -29 22 -31 22 -13 0 11 -4 21
-10 21 -5 0 -10 6 -10 14 0 8 -11 36 -24 61 -18 36 -25 43 -30 30z"/>
<path d="M1081 48650 c0 -14 9 -38 19 -55 11 -16 29 -51 42 -77 13 -27 29 -48
35 -48 21 0 15 24 -17 68 -16 23 -30 45 -30 49 0 5 -12 26 -25 48 -22 36 -25
37 -24 15z"/>
<path d="M1310 48251 c0 -5 7 -16 15 -25 8 -8 15 -19 15 -24 0 -5 11 -22 25
-38 29 -34 32 -22 4 21 -10 17 -23 40 -29 53 -9 22 -30 31 -30 13z"/>
<path d="M1432 48068 c2 -6 10 -14 16 -16 7 -2 10 2 6 12 -7 18 -28 22 -22 4z"/>
<path d="M1500 47986 c0 -9 4 -16 8 -16 4 0 13 -14 19 -31 7 -17 21 -33 32
-36 12 -3 21 -10 21 -17 0 -16 107 -132 115 -125 5 5 -101 138 -135 169 -3 3
-18 20 -33 38 -17 22 -27 28 -27 18z"/>
<path d="M1470 47833 c0 -5 23 -33 50 -63 28 -30 72 -81 97 -113 43 -54 103
-99 103 -79 0 5 -28 39 -62 75 -35 37 -85 94 -111 127 -41 52 -77 76 -77 53z"/>
<path d="M1700 47740 c0 -6 7 -13 15 -16 8 -4 15 -12 15 -18 0 -11 65 -76 76
-76 15 0 -3 28 -45 71 -49 50 -61 57 -61 39z"/>
<path d="M1880 47550 c17 -22 39 -40 48 -40 10 0 1 14 -27 40 -23 22 -45 40
-48 40 -2 0 10 -18 27 -40z"/>
<path d="M12785 45865 c-5 -2 -44 -6 -85 -10 l-75 -6 3 -105 c3 -68 0 -109 -7
-118 -7 -9 -42 -15 -97 -18 -96 -5 -108 -13 -99 -68 4 -19 9 -54 12 -77 l6
-43 46 0 c25 0 62 4 81 10 23 7 38 6 45 -1 6 -6 10 -102 10 -267 l0 -257 37
-56 c43 -63 98 -96 177 -106 58 -7 165 13 182 33 6 8 16 14 21 14 10 0 68 60
68 70 0 10 -91 124 -105 133 -9 4 -16 1 -19 -11 -7 -21 -56 -52 -83 -52 -24 0
-61 34 -74 67 -5 13 -9 116 -9 227 0 162 3 206 14 215 8 7 65 15 128 19 l113
7 3 67 c5 107 2 109 -131 106 l-112 -3 -2 95 c-4 135 -9 149 -48 135z"/>
<path d="M3303 45844 c-48 -24 -67 -60 -66 -124 0 -50 3 -57 38 -87 35 -30 44
-33 104 -33 48 1 72 5 87 18 29 25 54 75 54 109 0 38 -40 105 -70 120 -34 17
-109 16 -147 -3z"/>
<path d="M7170 45771 c-30 -9 -68 -23 -85 -31 -44 -20 -138 -119 -162 -170
-53 -115 -57 -139 -57 -290 0 -150 5 -178 55 -285 78 -165 241 -246 437 -218
110 17 174 48 256 125 l50 46 -37 45 c-53 64 -116 113 -133 101 -7 -5 -38 -27
-68 -48 -52 -36 -62 -40 -125 -40 -55 -1 -75 3 -98 20 -40 30 -72 96 -89 187
-13 66 -13 92 -3 155 23 146 87 222 184 222 57 0 100 -21 144 -71 19 -22 38
-39 43 -39 12 0 117 80 142 109 17 19 17 22 3 45 -20 30 -91 86 -137 108 -102
48 -221 59 -320 29z"/>
<path d="M554 45732 l-132 -3 -6 -192 c-19 -560 -21 -739 -10 -748 7 -5 56 -8
110 -7 l99 3 3 298 c2 255 4 297 17 297 8 0 15 -7 15 -16 0 -9 7 -30 14 -47 8
-18 20 -54 25 -82 6 -27 17 -77 26 -110 21 -85 42 -170 58 -240 24 -100 20
-96 100 -93 l71 3 18 55 c10 30 23 64 28 75 5 11 18 49 30 85 11 36 24 74 29
85 13 32 39 117 46 151 3 17 17 41 30 54 l23 22 -4 -164 c-2 -89 -6 -209 -8
-264 l-4 -101 95 -7 c53 -4 99 -4 103 1 14 16 30 282 30 503 0 215 -17 411
-37 431 -8 8 -241 15 -247 8 -2 -2 -13 -40 -24 -84 -11 -44 -28 -105 -36 -135
-9 -30 -23 -77 -31 -105 -7 -27 -21 -75 -30 -105 -9 -30 -21 -76 -27 -102 -8
-35 -15 -48 -28 -48 -24 0 -36 18 -44 65 -4 22 -14 60 -21 85 -8 25 -21 72
-30 105 -9 33 -23 85 -32 115 -28 99 -42 155 -48 181 -6 33 -12 35 -171 31z"/>
<path d="M2665 45616 c-72 -17 -116 -40 -151 -78 -46 -48 -54 -69 -54 -143 0
-52 5 -73 24 -103 33 -53 84 -95 157 -130 35 -16 85 -40 111 -52 57 -26 128
-94 128 -122 0 -74 -95 -109 -199 -72 -38 13 -65 29 -167 99 -11 7 -19 4 -33
-14 -27 -35 -81 -143 -81 -161 0 -18 82 -66 160 -94 44 -16 81 -20 190 -20
133 -1 136 0 192 31 91 51 121 89 137 176 16 87 -1 155 -53 210 -35 37 -134
107 -152 107 -5 0 -53 20 -131 56 -36 16 -83 68 -83 91 0 8 14 28 31 44 44 41
120 41 203 -1 65 -33 81 -36 90 -17 3 6 15 26 26 42 38 57 42 76 24 96 -10 11
-21 19 -27 19 -5 0 -23 6 -40 14 -74 33 -212 43 -302 22z"/>
<path d="M4289 45589 c-5 -10 -9 -29 -9 -43 0 -44 -17 -43 -107 8 -52 30 -169
50 -231 41 -90 -13 -164 -68 -201 -150 -70 -157 -65 -388 11 -517 31 -52 90
-103 131 -113 15 -4 30 -11 33 -16 10 -17 190 -10 231 9 21 9 41 21 44 25 4 5
15 7 25 5 17 -3 20 -20 31 -183 6 -99 12 -190 12 -201 1 -20 9 -22 92 -29 52
-4 95 -3 100 2 6 6 4 99 -5 234 -11 171 -13 265 -5 399 9 168 26 390 36 476
l5 41 -92 15 c-86 14 -92 14 -101 -3z m-112 -224 c81 -40 82 -43 72 -169 -5
-61 -15 -118 -23 -130 -21 -33 -107 -59 -177 -54 -53 4 -63 8 -94 42 -77 84
-76 225 2 301 34 33 40 35 104 35 52 0 79 -6 116 -25z"/>
<path d="M11924 45592 c-154 -51 -242 -159 -265 -326 -22 -161 22 -307 119
-397 64 -59 101 -77 183 -90 85 -15 198 1 267 37 60 31 122 88 122 111 0 10
-31 50 -69 87 -77 76 -74 76 -139 18 -29 -26 -107 -37 -159 -23 -70 19 -112
87 -120 194 -10 119 40 201 138 226 42 11 56 10 98 -4 30 -10 58 -27 70 -43
l19 -27 39 23 c21 13 53 30 71 38 41 18 40 35 -5 85 -85 94 -241 132 -369 91z"/>
<path d="M5793 45560 c-64 -23 -132 -68 -167 -112 -14 -18 -31 -38 -36 -45 -6
-7 -10 -16 -10 -20 0 -4 -7 -20 -15 -36 -7 -15 -19 -63 -26 -107 -13 -90 0
-214 28 -272 69 -142 227 -210 434 -187 46 5 98 16 116 24 17 8 34 15 38 15
16 0 106 67 111 83 7 22 -99 167 -122 167 -3 0 -23 -13 -43 -28 -20 -16 -52
-36 -73 -45 -46 -22 -140 -22 -184 -1 -58 28 -109 103 -96 142 8 26 89 35 307
36 l220 1 3 70 c5 107 -20 176 -88 244 -72 73 -124 91 -251 90 -65 0 -110 -6
-146 -19z m228 -134 c41 -28 71 -82 63 -113 -5 -19 -15 -21 -152 -25 -81 -3
-155 -1 -164 4 -16 8 -16 11 1 51 10 25 35 55 60 75 37 27 51 32 99 32 44 0
66 -6 93 -24z"/>
<path d="M8035 45561 c-78 -27 -107 -43 -152 -85 -73 -67 -113 -174 -113 -304
0 -101 23 -189 67 -260 128 -204 539 -202 659 4 108 184 46 526 -111 612 -75
41 -120 52 -210 51 -56 -1 -109 -7 -140 -18z m228 -166 c44 -30 69 -78 86
-160 10 -50 10 -69 -3 -119 -21 -80 -48 -114 -111 -140 -80 -34 -165 -7 -212
67 -24 36 -28 54 -31 133 -5 109 15 163 75 212 33 27 46 31 98 32 48 0 68 -5
98 -25z"/>
<path d="M9156 45561 c-26 -10 -77 -37 -111 -60 -35 -22 -68 -41 -74 -41 -6 0
-11 19 -11 44 0 66 0 67 -191 58 l-36 -2 -7 -307 c-3 -170 -11 -344 -16 -388
-5 -44 -6 -83 -2 -87 4 -4 53 -10 109 -14 102 -7 102 -7 107 17 15 71 18 111
24 292 l7 199 30 24 c56 46 150 84 207 84 45 0 59 -5 90 -30 30 -25 39 -41 49
-88 13 -62 6 -268 -12 -382 -19 -116 -28 -105 90 -105 82 0 105 3 111 15 34
68 42 475 11 592 -36 139 -103 192 -246 195 -55 1 -95 -4 -129 -16z"/>
<path d="M10194 45561 c-70 -26 -105 -45 -136 -76 -38 -38 -58 -28 -58 29 l0
45 -52 6 c-29 4 -80 3 -113 -2 l-60 -8 -12 -310 c-6 -171 -13 -342 -16 -382
-2 -39 -1 -76 2 -81 8 -12 192 -25 207 -15 6 5 14 51 17 103 29 423 27 404 50
425 84 78 215 108 284 66 57 -35 68 -76 67 -246 -1 -90 -7 -184 -17 -235 -10
-55 -12 -89 -6 -96 9 -12 202 -15 212 -4 3 3 10 92 17 198 19 303 -5 468 -79
538 -66 62 -202 82 -307 45z"/>
<path d="M11040 45563 c-62 -22 -144 -77 -178 -121 -125 -159 -122 -421 7
-560 127 -136 470 -140 615 -6 32 30 32 43 4 80 -27 37 -100 114 -108 114 -3
0 -16 -10 -30 -23 -104 -95 -269 -89 -337 12 -26 39 -29 73 -8 91 22 18 206
31 346 24 165 -8 169 -7 169 61 0 68 -17 149 -41 197 -25 48 -98 109 -157 130
-62 22 -220 22 -282 1z m221 -137 c38 -26 75 -95 66 -120 -6 -16 -22 -17 -284
-20 -29 -1 -39 3 -41 17 -6 31 27 86 70 117 55 40 135 42 189 6z"/>
<path d="M1525 45463 c-11 -124 2 -349 25 -436 28 -109 46 -145 103 -202 41
-41 67 -56 119 -73 141 -46 274 -18 368 77 84 86 111 156 131 342 9 90 9 141
0 229 -7 62 -14 117 -17 122 -6 9 -201 4 -211 -5 -3 -4 0 -60 7 -126 25 -234
-24 -424 -116 -447 -38 -10 -97 12 -120 43 -48 65 -59 126 -61 338 -2 110 -3
206 -3 213 0 9 -29 12 -109 12 l-109 0 -7 -87z"/>
<path d="M4627 45498 c-19 -151 5 -435 44 -538 23 -60 84 -144 125 -171 84
-56 205 -73 313 -43 64 18 165 88 181 127 6 12 14 29 20 37 48 77 65 178 65
398 0 235 6 225 -132 220 -50 -2 -94 -5 -97 -8 -3 -3 0 -39 6 -80 5 -41 8
-131 6 -200 -5 -140 -23 -207 -68 -261 -25 -30 -33 -34 -78 -34 -42 0 -56 5
-79 27 -71 68 -96 263 -70 548 l2 25 -116 3 -116 3 -6 -53z"/>
<path d="M3358 45462 l-88 -3 0 -142 c-1 -78 -5 -187 -10 -242 -5 -55 -12
-144 -16 -197 l-7 -98 111 0 c130 0 116 -17 132 154 13 137 13 526 1 526 -5 0
-15 1 -23 3 -7 1 -52 1 -100 -1z"/>
<path d="M1707 44024 c-13 -13 -7 -55 8 -60 21 -9 47 15 43 40 -3 21 -37 34
-51 20z"/>
<path d="M2937 44023 c-4 -3 -7 -42 -7 -85 0 -61 -3 -78 -14 -78 -8 0 -18 5
-21 10 -3 6 -28 10 -54 10 -58 0 -82 -22 -107 -98 -12 -40 -15 -73 -11 -131 6
-96 32 -152 81 -175 43 -20 40 -20 92 6 41 20 45 20 62 5 10 -10 22 -14 25
-10 4 3 7 129 7 280 l0 273 -23 0 c-13 0 -27 -3 -30 -7z m-27 -221 c17 -21 20
-40 20 -127 0 -88 -3 -106 -21 -129 -20 -26 -60 -34 -86 -18 -41 26 -57 177
-27 251 25 62 75 73 114 23z"/>
<path d="M3830 43945 c0 -85 -9 -102 -37 -74 -5 5 -34 9 -64 7 -50 -3 -55 -6
-83 -46 -29 -41 -30 -45 -29 -156 0 -99 3 -118 22 -149 39 -64 116 -82 157
-36 16 18 17 18 42 -2 47 -36 50 -17 47 269 -2 141 -4 260 -4 265 -1 4 -12 7
-26 7 -25 0 -25 -1 -25 -85z m-56 -116 c55 -25 73 -195 29 -271 -26 -45 -79
-51 -107 -11 -16 22 -19 44 -19 127 0 122 10 147 70 165 1 1 13 -4 27 -10z"/>
<path d="M4116 43993 c-41 -60 -11 -75 42 -20 38 40 41 57 7 57 -17 0 -32 -11
-49 -37z"/>
<path d="M483 43999 c-46 -13 -97 -70 -116 -130 -25 -75 -23 -204 4 -271 27
-71 60 -102 125 -123 62 -19 100 -14 156 21 47 30 46 30 58 -2 9 -22 13 -24
25 -14 12 10 15 38 15 129 0 64 -4 122 -8 129 -6 9 -33 12 -98 10 -84 -3 -89
-4 -92 -25 -2 -17 2 -23 15 -24 10 0 38 -1 63 -2 l45 -2 2 -50 c3 -53 -8 -74
-57 -108 -58 -40 -148 -6 -184 68 -43 91 -26 263 31 317 21 19 36 23 93 23 59
0 72 -3 94 -24 16 -15 26 -35 26 -52 0 -35 35 -58 56 -37 22 22 6 83 -32 122
-50 52 -137 69 -221 45z"/>
<path d="M1546 43982 c-3 -5 -8 -28 -12 -51 -4 -26 -14 -46 -25 -52 -24 -13
-24 -31 1 -54 18 -16 20 -31 20 -158 0 -151 11 -191 56 -200 50 -9 74 34 30
54 -32 15 -36 33 -36 172 l0 118 31 11 c23 8 29 16 27 32 -2 11 -12 22 -23 25
-27 5 -35 19 -35 69 0 30 -4 42 -14 42 -8 0 -17 -4 -20 -8z"/>
<path d="M5270 43947 c0 -33 -6 -49 -24 -66 -15 -14 -26 -19 -31 -12 -11 19
-70 13 -90 -10 l-19 -20 -17 22 c-33 44 -39 16 -39 -180 0 -155 3 -191 15
-201 12 -10 18 -10 29 -1 11 9 15 47 18 156 3 124 6 146 22 164 11 12 29 21
41 21 13 0 28 7 35 15 12 14 15 14 31 -3 14 -16 18 -43 21 -169 3 -157 8 -176
53 -193 25 -9 55 5 55 26 0 9 -9 18 -20 21 -28 7 -31 29 -28 172 3 112 5 125
23 135 41 22 40 41 -1 56 -21 8 -24 16 -24 60 0 47 -2 50 -25 50 -23 0 -25 -4
-25 -43z"/>
<path d="M7046 43975 c-3 -9 -6 -31 -6 -49 0 -19 -8 -38 -20 -49 -16 -14 -18
-21 -10 -37 5 -10 15 -22 20 -25 6 -4 10 -67 10 -154 0 -132 2 -150 19 -170
14 -17 28 -22 53 -19 42 4 51 34 13 48 l-26 10 3 147 c3 146 3 148 26 151 31
5 27 46 -5 50 -19 3 -22 10 -25 55 -3 44 -6 52 -24 55 -13 2 -24 -4 -28 -13z"/>
<path d="M1286 43879 c-52 -9 -86 -49 -86 -104 0 -54 30 -88 105 -118 67 -28
86 -56 69 -104 -8 -23 -16 -29 -48 -31 -40 -3 -57 9 -76 56 -7 17 -17 22 -33
20 -33 -5 -34 -48 -2 -86 63 -75 184 -61 221 27 31 75 -2 135 -96 172 -34 13
-66 32 -72 42 -13 26 -2 64 23 78 28 14 79 -6 79 -32 0 -20 28 -39 48 -32 6 3
12 19 12 37 0 60 -57 89 -144 75z"/>
<path d="M6425 43880 c-32 -4 -45 -13 -72 -48 -33 -43 -33 -45 -33 -154 0 -96
3 -115 22 -146 27 -44 96 -76 144 -67 69 12 138 123 89 141 -19 8 -45 -13 -45
-36 0 -27 -33 -50 -71 -50 -46 0 -79 42 -79 99 l0 40 103 3 102 3 3 59 c6 121
-46 171 -163 156z m88 -73 c12 -13 17 -33 15 -56 l-3 -36 -70 0 c-69 0 -70 1
-73 27 -2 15 5 39 14 53 32 48 82 53 117 12z"/>
<path d="M894 43848 c-52 -56 -68 -166 -41 -272 34 -131 204 -152 258 -32 34
76 -13 94 -55 21 -24 -41 -30 -45 -65 -45 -44 0 -65 18 -79 71 -16 61 -5 69
102 69 110 0 121 7 111 72 -9 58 -24 99 -48 126 -17 19 -31 22 -87 22 -62 0
-68 -2 -96 -32z m119 -19 c28 -13 47 -47 47 -84 0 -29 -24 -38 -96 -33 -44 3
-49 6 -52 28 -3 34 18 72 48 87 30 15 24 15 53 2z"/>
<path d="M1707 43874 c-9 -9 -9 -366 -1 -388 9 -24 43 -20 49 7 3 12 4 103 3
202 -3 173 -4 180 -23 183 -12 2 -24 0 -28 -4z"/>
<path d="M1882 43846 c-67 -77 -65 -276 4 -342 71 -68 173 -46 213 46 27 63
29 194 4 248 -29 64 -57 82 -129 82 -58 0 -64 -2 -92 -34z m121 -17 c38 -17
57 -69 57 -158 0 -99 -25 -144 -81 -149 -59 -5 -73 21 -77 141 -3 112 6 143
48 164 30 15 24 15 53 2z"/>
<path d="M2210 43680 c0 -173 2 -201 16 -207 8 -3 20 -1 25 4 5 5 11 75 12
157 4 143 5 148 29 173 31 30 76 34 95 7 9 -13 13 -59 13 -170 0 -122 3 -154
15 -164 12 -10 18 -10 31 1 13 11 15 38 12 185 -3 152 -5 174 -22 193 -24 26
-104 29 -142 5 -23 -15 -26 -15 -43 0 -39 35 -41 24 -41 -184z"/>
<path d="M3139 43857 c-39 -33 -59 -96 -59 -185 1 -120 42 -188 126 -206 38
-9 102 16 125 47 22 30 33 83 19 92 -20 12 -49 -6 -55 -36 -8 -35 -35 -51 -78
-47 -40 4 -79 58 -75 103 l3 30 85 3 c127 3 130 5 130 55 -1 67 -17 120 -45
145 -37 32 -138 31 -176 -1z m120 -32 c21 -10 30 -24 34 -51 9 -53 -4 -64 -79
-64 -74 0 -86 15 -58 74 14 29 36 46 72 55 2 1 16 -6 31 -14z"/>
<path d="M4034 43862 c-50 -42 -59 -70 -59 -187 0 -92 3 -115 20 -143 35 -58
109 -82 173 -56 72 28 112 129 52 129 -17 0 -26 -6 -28 -20 -7 -34 -43 -65
-77 -65 -20 0 -39 8 -52 23 -23 24 -37 85 -25 104 5 8 43 13 107 15 l100 3 3
57 c3 63 -22 129 -57 148 -32 17 -133 12 -157 -8z m137 -63 c12 -17 19 -40 17
-56 -3 -28 -4 -28 -73 -28 l-70 0 -3 33 c-4 36 17 69 53 82 29 11 53 1 76 -31z"/>
<path d="M4345 43867 c-3 -7 -4 -127 -3 -267 l3 -255 25 0 c24 0 25 3 28 73 2
54 6 72 17 72 8 0 16 -4 19 -9 12 -19 57 -21 93 -4 27 12 42 30 61 71 22 48
24 64 20 145 -4 91 -13 118 -52 165 -23 27 -94 31 -130 7 -20 -13 -25 -13 -42
0 -24 18 -33 19 -39 2z m156 -37 c5 0 18 -18 29 -40 15 -29 20 -59 20 -115 0
-103 -25 -155 -75 -155 -26 0 -38 7 -54 29 -18 25 -21 44 -21 131 0 100 1 102
30 132 19 18 36 28 46 24 9 -3 20 -6 25 -6z"/>
<path d="M4727 43860 c-28 -22 -45 -76 -29 -92 16 -16 49 0 56 26 3 13 18 29
35 36 24 9 34 9 60 -5 30 -15 32 -19 29 -63 l-3 -47 -65 -10 c-36 -6 -75 -17
-86 -25 -50 -32 -68 -104 -39 -159 28 -55 122 -76 156 -35 15 18 40 18 65 -1
23 -18 56 -19 72 -3 17 17 15 23 -13 36 -25 12 -25 12 -25 156 0 141 -1 145
-26 175 -24 29 -30 31 -94 31 -52 0 -73 -4 -93 -20z m151 -241 c7 -81 -94
-135 -134 -73 -34 51 27 118 101 112 27 -3 30 -7 33 -39z"/>
<path d="M5486 43859 c-42 -33 -59 -83 -59 -179 -1 -117 24 -173 89 -202 53
-23 90 -19 135 13 31 22 63 84 55 106 -9 24 -46 15 -58 -14 -20 -46 -39 -63
-73 -63 -45 0 -78 38 -79 92 l-1 43 105 6 c58 4 106 7 108 8 1 0 2 18 2 39 0
52 -21 116 -48 146 -19 23 -30 26 -86 26 -49 0 -69 -5 -90 -21z m123 -36 c26
-22 42 -74 29 -96 -7 -13 -23 -17 -66 -17 -79 0 -89 8 -73 59 7 27 21 46 39
55 35 20 46 19 71 -1z"/>
<path d="M5803 43873 c-19 -7 -18 -362 1 -388 12 -16 16 -17 30 -6 13 11 16
35 16 130 0 172 18 221 82 221 47 0 59 -44 57 -207 -1 -137 5 -161 35 -150 13
5 16 29 17 139 2 168 6 187 46 211 30 17 33 17 57 1 l26 -16 0 -153 c0 -166 3
-185 30 -185 27 0 30 19 30 183 0 129 -3 158 -19 187 -17 33 -22 35 -73 38
-43 2 -59 -1 -78 -18 l-23 -20 -22 20 c-27 25 -116 28 -135 5 -7 -8 -18 -15
-25 -15 -7 0 -15 7 -19 15 -6 15 -12 17 -33 8z"/>
<path d="M6687 43873 c-9 -8 -9 -366 -1 -387 3 -9 14 -16 24 -16 26 0 30 19
30 162 0 103 3 136 17 158 31 54 87 59 113 10 5 -10 10 -81 10 -157 0 -103 4
-144 14 -158 12 -16 16 -17 30 -6 13 11 16 38 16 166 0 159 -11 216 -45 229
-34 13 -115 7 -121 -9 -4 -8 -12 -15 -19 -15 -7 0 -18 7 -25 15 -13 16 -32 19
-43 8z"/>
</g>
</svg>
