<?xml version="1.0" standalone="no"?>
<!DOCTYPE svg PUBLIC "-//W3C//DTD SVG 20010904//EN"
 "http://www.w3.org/TR/2001/REC-SVG-20010904/DTD/svg10.dtd">
<svg version="1.0" xmlns="http://www.w3.org/2000/svg"
 width="300.000000pt" height="278.000000pt" viewBox="0 0 300.000000 278.000000"
 preserveAspectRatio="xMidYMid meet">
<metadata>
Created by potrace 1.10, written by Peter Selinger 2001-2011
</metadata>
<g transform="translate(0.000000,278.000000) scale(0.100000,-0.100000)"
fill="#000000" stroke="none">
<path d="M0 1390 l0 -1390 1500 0 1500 0 0 1390 0 1390 -1500 0 -1500 0 0
-1390z m1176 1291 c-3 -5 17 -8 44 -7 28 0 51 -2 53 -6 1 -4 23 -8 49 -10 25
-2 44 -6 42 -9 -2 -4 18 -12 44 -19 26 -7 65 -22 87 -33 33 -17 37 -22 24 -30
-15 -9 -15 -11 0 -26 19 -18 67 -51 76 -51 4 0 3 5 0 10 -3 6 -4 10 -2 10 13
0 77 -31 82 -40 4 -6 11 -7 17 -4 7 4 8 2 4 -4 -4 -7 -3 -12 3 -12 5 0 20 -15
32 -32 13 -18 16 -27 8 -21 -9 7 -19 9 -23 5 -4 -4 -6 0 -4 8 2 8 -3 14 -10
12 -8 -1 -11 2 -8 7 4 6 -13 21 -37 35 -54 32 -66 33 -41 4 15 -17 10 -15 -18
6 -22 17 -42 25 -50 20 -7 -4 -9 -3 -5 1 4 5 -8 19 -28 31 -32 19 -35 23 -21
37 14 13 10 17 -32 35 -26 11 -60 23 -77 26 -33 7 -24 2 53 -26 29 -11 51 -22
49 -24 -2 -3 -17 0 -33 7 -16 6 -37 12 -48 15 -10 2 -44 11 -75 21 -41 12 -95
17 -203 18 -81 0 -150 4 -153 7 -7 6 50 10 140 10 49 0 49 0 15 9 -33 8 -116
5 -170 -8 l-25 -6 30 -13 c17 -7 47 -13 68 -14 23 0 36 -4 32 -10 -3 -5 -20
-10 -38 -9 -31 1 -170 -8 -249 -15 -44 -5 -157 -55 -186 -84 -10 -10 -41 -30
-67 -43 -26 -13 -64 -44 -84 -68 -20 -24 -47 -55 -60 -69 -44 -48 -92 -115
-117 -164 -14 -27 -28 -47 -32 -44 -4 2 -8 -3 -9 -12 0 -9 -10 -58 -21 -109
-42 -186 -43 -456 -3 -508 5 -5 11 -23 15 -40 12 -51 57 -158 80 -190 12 -16
28 -43 36 -60 21 -42 203 -225 224 -225 12 0 -13 31 -68 84 -47 47 -86 89 -86
95 0 5 -10 17 -22 25 -12 9 -19 16 -14 16 5 0 3 6 -3 13 -25 31 -71 128 -70
149 1 13 -11 77 -25 143 -29 126 -36 258 -18 291 8 15 11 -6 11 -86 0 -78 7
-127 24 -191 13 -48 22 -106 21 -130 -2 -41 -1 -42 11 -20 12 24 13 24 19 4 6
-20 52 -105 82 -153 13 -20 11 -19 -9 4 -14 16 -39 55 -55 87 -21 41 -32 54
-36 42 -17 -44 191 -299 301 -370 16 -10 37 -26 48 -36 32 -29 128 -73 201
-92 38 -9 79 -22 91 -27 11 -6 26 -7 32 -4 6 4 11 3 11 -3 0 -6 8 -8 18 -5 14
5 15 4 2 -5 -12 -9 -13 -11 -1 -11 8 0 11 -3 8 -6 -4 -4 -13 -1 -22 6 -8 7
-15 10 -15 7 0 -10 -169 32 -233 57 -69 28 -103 33 -91 14 8 -13 -80 36 -108
59 -9 9 -23 12 -30 7 -7 -4 -10 -4 -6 1 5 5 -36 54 -90 109 -107 111 -173 209
-216 326 -30 82 -29 77 -51 168 -15 60 -15 224 -1 352 5 40 4 42 -5 15 -13
-38 -28 -316 -17 -331 4 -5 5 -28 2 -50 -4 -30 -3 -36 6 -24 8 12 10 6 5 -25
-3 -26 -2 -33 3 -21 7 16 11 11 21 -30 27 -107 148 -325 197 -352 9 -5 17 -13
17 -18 1 -5 5 -8 10 -6 4 1 6 -4 5 -10 -2 -7 3 -12 10 -10 6 1 11 -4 10 -10
-2 -7 2 -12 8 -11 6 1 26 -15 45 -35 19 -20 23 -27 9 -16 -14 12 -31 19 -39
16 -10 -3 -12 0 -8 10 3 9 0 15 -7 14 -15 -1 -93 85 -146 164 -45 66 -100 176
-100 200 0 11 -2 12 -8 3 -10 -15 -24 22 -47 122 -19 80 -33 305 -19 305 5 0
9 14 10 31 3 83 104 376 125 363 5 -3 9 0 9 6 0 11 69 117 92 141 7 8 21 26
31 41 9 15 54 55 99 89 168 127 366 200 587 218 53 5 100 9 104 10 5 0 6 -3 3
-8z m345 -62 c38 -20 17 -17 -48 7 -38 13 -69 24 -70 24 -2 0 -3 4 -3 10 0 9
77 -17 121 -41z m-265 0 c64 -12 94 -28 54 -30 -24 -1 58 -25 110 -32 34 -5
61 -20 85 -49 12 -12 57 -41 100 -63 56 -28 102 -62 155 -113 41 -41 69 -71
63 -67 -17 8 -17 6 10 -56 38 -88 24 -99 -36 -30 -34 41 -55 57 -62 51 -8 -7
-21 4 -41 31 -16 23 -43 56 -61 75 -17 19 -28 34 -24 34 16 0 61 -42 74 -68 9
-18 20 -26 34 -25 15 2 32 -10 52 -34 17 -21 31 -32 31 -26 0 22 -35 78 -70
112 -41 39 -164 121 -183 121 -8 0 -32 16 -55 36 -28 24 -64 41 -113 55 -40
11 -83 28 -96 39 -20 15 -29 17 -54 8 -29 -10 -166 -2 -155 9 3 3 43 6 88 6
l83 -1 -75 8 c-41 4 -79 5 -84 2 -5 -3 -6 0 -2 6 9 15 94 15 172 1z m364 -39
c0 -5 -9 -6 -20 -3 -11 3 -20 9 -20 13 0 5 9 6 20 3 11 -3 20 -9 20 -13z
m-150 -20 c8 -5 11 -10 5 -10 -5 0 -17 5 -25 10 -8 5 -10 10 -5 10 6 0 17 -5
25 -10z m156 -42 c5 -7 -4 -5 -19 5 -15 10 -32 15 -37 12 -6 -3 -19 0 -31 8
-15 11 -17 16 -7 20 15 5 83 -27 94 -45z m209 -166 c-6 -7 -35 18 -35 31 0 5
9 2 20 -8 11 -10 18 -20 15 -23z m-190 -52 c-2 -4 21 -31 51 -61 31 -30 74
-80 95 -112 24 -34 45 -55 51 -51 6 4 8 3 5 -3 -5 -9 12 -72 32 -118 9 -20 14
-49 31 -190 8 -63 3 -137 -16 -255 -4 -25 -2 -31 5 -20 5 9 15 54 21 100 13
92 16 102 26 76 8 -21 -10 -138 -32 -203 -27 -85 -112 -246 -158 -305 -95
-119 -231 -209 -396 -264 -78 -26 -98 -28 -255 -30 -129 -1 -177 2 -198 13
-15 7 -32 11 -37 8 -6 -3 -10 -1 -10 5 0 7 -6 10 -12 8 -7 -3 -19 2 -27 9 -8
8 -22 12 -33 10 -10 -3 -16 -2 -13 2 5 9 -94 58 -108 53 -5 -1 -6 2 -3 7 3 5
-1 12 -10 15 -10 4 -13 2 -9 -7 4 -6 -1 -3 -9 7 -9 11 -16 16 -16 12 0 -5 -7
-3 -15 4 -8 7 -12 16 -9 21 3 5 -1 7 -8 4 -17 -7 -147 124 -153 153 -2 12 -13
35 -23 50 -28 39 -89 174 -106 235 -19 64 -36 203 -35 277 1 78 15 36 23 -69
3 -46 10 -89 13 -95 4 -6 6 -21 5 -33 -9 -67 93 -289 185 -403 80 -99 284
-219 414 -245 188 -38 321 -30 481 29 120 43 307 188 379 293 62 89 125 238
107 249 -6 4 -7 22 -4 43 15 82 17 224 6 293 -7 40 -13 84 -14 98 -1 14 -7 35
-14 47 -7 12 -12 28 -12 36 0 21 -18 53 -75 132 -61 86 -73 102 -105 134 -53
54 -84 117 -35 71 13 -12 22 -26 20 -30z m185 -190 c6 -11 8 -20 6 -20 -3 0
-10 9 -16 20 -6 11 -8 20 -6 20 3 0 10 -9 16 -20z m40 -30 c6 -11 8 -20 6 -20
-3 0 -10 9 -16 20 -6 11 -8 20 -6 20 3 0 10 -9 16 -20z m-2 -45 c-3 -3 -9 2
-12 12 -6 14 -5 15 5 6 7 -7 10 -15 7 -18z m52 -147 c11 -46 19 -99 18 -118
-1 -33 -1 -33 -5 -5 -7 57 -35 177 -49 211 -18 43 -17 57 1 22 8 -15 24 -64
35 -110z m-847 -36 c3 -26 8 -58 12 -72 3 -14 7 -47 9 -75 8 -107 19 -160 38
-173 10 -7 18 -19 18 -26 0 -25 -123 -36 -175 -16 -22 8 -24 13 -15 29 11 22
14 90 4 116 -8 19 -16 9 -65 -81 -46 -86 -48 -88 -70 -68 -10 9 -37 51 -60 92
-31 56 -43 72 -50 60 -11 -20 -13 -77 -4 -110 5 -21 2 -29 -16 -38 -25 -14
-93 -8 -114 10 -13 11 -12 16 9 35 25 23 41 100 39 183 0 17 4 32 9 32 5 0 8
6 6 13 -4 20 12 119 23 139 5 10 16 18 25 18 13 0 96 -119 147 -212 l19 -33
24 30 c13 17 24 33 24 37 0 9 87 146 108 171 14 16 17 16 32 2 10 -9 20 -37
23 -63z m443 51 c32 -23 41 -62 24 -107 -13 -36 -34 -33 -59 9 -30 52 -89 69
-146 43 -62 -28 -86 -158 -45 -239 22 -43 51 -59 107 -59 41 0 88 42 98 90 4
17 14 34 24 39 45 24 58 -97 16 -143 -79 -85 -272 -74 -355 20 -52 60 -66 173
-30 251 18 42 91 104 126 109 9 1 19 6 22 9 4 4 48 5 97 3 73 -3 97 -8 121
-25z m-1119 -895 c30 -32 51 -58 46 -58 -14 0 -128 121 -142 150 -11 23 -10
22 15 -5 14 -16 51 -56 81 -87z m118 -127 c-3 -3 -18 8 -33 23 l-27 29 32 -23
c18 -13 30 -26 28 -29z m60 -31 c3 -5 2 -10 -4 -10 -5 0 -13 5 -16 10 -3 6 -2
10 4 10 5 0 13 -4 16 -10z m960 -20 c-3 -5 -12 -10 -18 -10 -7 0 -6 4 3 10 19
12 23 12 15 0z m-800 -18 c-3 -3 -11 0 -18 7 -9 10 -8 11 6 5 10 -3 15 -9 12
-12z m250 -111 c34 -7 35 -9 10 -9 -16 0 -43 4 -60 8 -42 11 -1 11 50 1z
m-201 -86 c9 -25 -5 -45 -30 -45 -14 0 -27 7 -30 15 -10 25 4 45 30 45 13 0
26 -7 30 -15z m2074 -10 c-5 -22 -2 -25 23 -25 24 0 29 -4 29 -23 0 -20 -4
-23 -30 -19 -30 4 -30 4 -30 -44 0 -61 12 -83 34 -65 12 10 16 9 25 -7 24 -44
-58 -63 -92 -21 -15 19 -18 35 -15 76 4 50 3 53 -19 53 -16 0 -23 6 -23 20 0
19 10 24 38 21 10 -2 12 6 7 28 -6 30 -5 31 25 31 29 0 32 -3 28 -25z m-1173
-17 c20 -19 20 -19 1 -33 -17 -13 -22 -13 -38 2 -38 34 -81 -32 -59 -89 11
-30 47 -38 69 -16 10 10 17 8 34 -9 l21 -22 -34 -21 c-91 -56 -183 35 -147
145 23 69 103 92 153 43z m-1504 -53 c7 -36 15 -65 18 -65 4 0 13 28 21 63 14
58 17 62 46 65 28 3 32 0 38 -29 8 -39 8 -103 0 -150 -5 -31 -10 -37 -30 -35
-19 1 -24 7 -24 26 0 46 12 100 21 94 11 -7 12 47 1 64 -6 9 -12 6 -20 -12 -6
-14 -7 -26 -2 -28 4 -2 -1 -33 -13 -70 -17 -56 -25 -68 -42 -68 -19 0 -23 9
-33 64 -7 35 -10 70 -7 78 6 16 -20 56 -30 46 -4 -4 -9 -28 -11 -55 l-4 -48
15 33 c8 17 15 32 17 32 2 0 2 -35 1 -77 -1 -76 -2 -78 -27 -81 l-26 -3 0 110
0 111 39 0 39 0 13 -65z m477 39 c23 -7 27 -20 13 -42 -7 -11 -12 -11 -28 -1
-12 7 -28 9 -39 5 -19 -8 -19 -8 0 -19 69 -43 81 -55 84 -79 7 -55 -54 -82
-127 -57 -36 13 -35 10 -20 43 11 23 14 24 33 11 25 -19 69 -20 64 -2 -3 6
-22 22 -43 34 -59 33 -69 79 -22 101 26 12 53 14 85 6z m2074 -22 c17 -14 17
-16 1 -27 -13 -10 -21 -10 -35 -1 -26 16 -53 -4 -53 -39 0 -35 27 -55 54 -38
16 10 22 8 37 -8 16 -17 16 -21 3 -35 -9 -8 -32 -17 -52 -21 -31 -5 -40 -1
-67 25 -85 85 22 224 112 144z m-1794 6 c9 -9 12 -9 12 0 0 7 10 12 23 12 23
0 23 0 23 -135 -1 -128 -2 -134 -21 -130 -11 2 -23 4 -27 4 -5 1 -8 21 -8 45
0 41 -1 43 -25 38 -42 -8 -72 6 -85 38 -14 34 -8 103 10 125 15 18 81 20 98 3z
m436 -9 c17 -14 26 -30 26 -50 0 -29 0 -29 -60 -29 -62 0 -76 -11 -39 -30 16
-9 26 -8 44 4 21 14 24 13 40 -4 21 -24 14 -35 -31 -50 -69 -23 -124 12 -124
81 0 80 83 126 144 78z m488 10 c27 -15 51 -74 43 -110 -15 -65 -103 -92 -150
-44 -27 26 -34 89 -14 126 18 35 81 49 121 28z m134 -5 c-3 -9 -3 -14 1 -12 5
2 20 10 35 17 59 30 98 -7 98 -92 0 -69 -9 -87 -40 -87 -26 0 -27 1 -20 48 8
48 -2 92 -19 92 -24 0 -60 -24 -59 -39 1 -9 0 -35 0 -58 -2 -41 -3 -43 -33
-43 -28 0 -31 3 -25 23 3 12 6 55 6 95 l0 72 31 0 c24 0 30 -3 25 -16z m230 0
c-3 -9 -3 -14 1 -12 5 2 20 10 35 17 36 18 76 7 88 -25 11 -28 13 -114 4 -138
-3 -9 -18 -16 -31 -16 -25 0 -26 1 -20 51 7 57 -4 89 -32 89 -28 0 -42 -23
-48 -84 -6 -54 -7 -56 -35 -56 -23 0 -29 4 -24 16 3 9 6 51 6 95 l0 79 31 0
c24 0 30 -3 25 -16z m312 -1 c11 -10 23 -33 27 -50 l7 -33 -68 0 -68 0 21 -22
c20 -19 25 -20 49 -9 24 10 30 10 46 -7 19 -19 19 -19 -17 -37 -65 -30 -129
-3 -141 60 -6 36 15 87 43 104 28 16 79 13 101 -6z m-2143 -46 c0 -32 6 -61
14 -71 24 -29 46 4 45 69 0 54 0 55 29 55 l29 0 -4 -70 c-4 -85 -26 -114 -84
-114 -57 0 -84 38 -84 120 0 63 0 64 28 64 26 0 27 -2 27 -53z m690 0 c0 -32
6 -61 14 -71 13 -16 16 -16 30 -1 11 11 16 33 15 70 -2 55 -1 55 28 55 l30 0
-4 -70 c-4 -79 -21 -105 -75 -116 -27 -5 -37 -1 -63 24 -27 28 -30 36 -30 96
0 65 0 66 28 66 26 0 27 -2 27 -53z m-309 -114 c-3 -7 -17 -13 -31 -13 -23 0
-25 4 -25 43 0 79 11 116 34 119 19 3 21 -2 24 -66 2 -38 1 -75 -2 -83z m159
-182 c-3 -6 -11 -11 -17 -11 -6 0 -6 6 2 15 14 17 26 13 15 -4z m-777 -3 c7
-7 12 -19 12 -27 -1 -13 -3 -13 -15 2 -7 10 -22 17 -32 15 -27 -5 -26 -83 1
-83 11 0 21 6 24 13 2 6 -3 12 -12 12 -9 0 -16 5 -16 10 0 6 11 10 25 10 22 0
25 -4 25 -37 0 -25 -3 -33 -9 -24 -6 9 -11 10 -15 2 -20 -32 -66 5 -66 54 0
53 47 84 78 53z m242 8 c0 -3 -4 -8 -10 -11 -5 -3 -10 -1 -10 4 0 6 5 11 10
11 6 0 10 -2 10 -4z m270 -59 c0 -62 0 -63 -27 -62 -26 0 -28 4 -31 43 -3 37
0 44 17 49 12 3 21 12 21 19 0 8 5 14 10 14 6 0 10 -28 10 -63z m200 1 c0 -61
-1 -63 -26 -64 -34 -2 -52 35 -36 71 6 14 17 25 24 25 9 0 9 -3 0 -12 -18 -18
-15 -68 4 -68 11 0 15 9 14 33 -3 55 0 77 10 77 6 0 10 -27 10 -62z m714 -7
c1 -34 -2 -61 -6 -61 -11 0 -19 40 -14 75 2 17 4 36 5 44 3 36 13 -4 15 -58z
m-1223 52 c6 -48 2 -112 -6 -110 -10 4 -24 86 -17 106 4 12 22 15 23 4z m834
-10 c3 -10 2 -19 -3 -21 -6 -2 -6 -18 -1 -40 9 -39 6 -48 -10 -37 -6 3 -11 24
-11 45 0 31 -3 38 -15 34 -10 -4 -15 -20 -15 -45 0 -21 -4 -39 -10 -39 -5 0
-10 22 -10 48 0 42 3 48 22 49 13 1 24 7 26 13 6 16 19 12 27 -7z m-947 -30
c3 -19 -1 -23 -22 -23 -29 0 -35 -17 -10 -27 9 -3 20 0 25 8 7 11 9 10 9 -4 0
-23 -26 -33 -45 -17 -15 13 -21 71 -8 84 15 15 48 1 51 -21z m70 7 c4 -13 3
-13 -10 -2 -10 8 -19 9 -22 4 -3 -6 5 -17 19 -26 21 -14 24 -20 15 -36 -13
-23 -33 -26 -49 -6 -8 10 -9 16 -1 21 5 3 10 1 10 -4 0 -6 7 -11 15 -11 22 0
18 15 -7 32 -15 10 -19 20 -15 32 8 20 38 18 45 -4z m76 -25 c-2 -64 -14 -70
-14 -7 0 29 3 52 8 52 4 0 6 -20 6 -45z m74 -1 c2 -31 -1 -43 -14 -48 -24 -9
-44 12 -44 49 0 38 7 47 35 43 16 -2 21 -12 23 -44z m80 -7 c2 -34 0 -47 -8
-42 -6 4 -10 22 -8 41 1 18 -2 35 -7 36 -6 2 -11 -16 -13 -39 -4 -59 -22 -54
-22 6 0 46 1 48 28 47 25 -1 27 -4 30 -49z m200 26 c3 -19 -1 -23 -22 -23 -26
0 -35 -14 -16 -25 6 -4 17 -1 25 5 9 7 15 8 15 2 0 -17 -27 -33 -44 -26 -16 6
-23 73 -9 88 15 15 48 1 51 -21z m196 11 c10 -27 7 -34 -19 -34 -16 0 -25 -6
-25 -15 0 -18 27 -20 33 -2 2 6 8 9 12 5 10 -10 -13 -38 -31 -38 -24 0 -39 46
-26 75 13 28 47 34 56 9z m80 -6 c14 -23 -4 -73 -27 -72 -11 1 -17 -6 -17 -19
0 -11 -3 -17 -7 -13 -5 4 -8 34 -8 66 -1 56 0 58 24 57 13 -1 29 -10 35 -19z
m70 10 c3 -7 7 -29 9 -50 5 -35 5 -36 -26 -35 -27 2 -32 6 -32 27 0 18 6 26
23 28 22 3 28 13 15 25 -3 4 -12 2 -20 -5 -15 -12 -28 -5 -18 11 9 15 45 14
49 -1z m174 -15 c3 -19 -1 -23 -22 -23 -26 0 -35 -14 -16 -25 6 -4 17 -1 25 5
12 10 15 9 15 -3 0 -20 -29 -30 -46 -16 -15 12 -19 70 -7 83 15 15 48 1 51
-21z m120 -25 c2 -29 -1 -48 -7 -48 -6 0 -11 20 -11 46 0 27 -4 43 -10 39 -5
-3 -10 -24 -10 -46 0 -21 -4 -39 -10 -39 -5 0 -10 20 -10 45 0 25 -4 45 -10
45 -12 0 -24 -45 -17 -65 4 -8 2 -17 -3 -20 -6 -4 -10 14 -10 43 l0 49 48 -1
47 -1 3 -47z m76 36 c10 -27 7 -34 -19 -34 -16 0 -25 -6 -25 -15 0 -18 27 -20
33 -2 2 6 8 9 12 5 10 -10 -13 -38 -31 -38 -24 0 -39 46 -26 75 13 28 47 34
56 9z m78 2 c11 -16 10 -74 -1 -81 -6 -3 -11 14 -13 37 -4 56 -21 55 -29 -2
-7 -53 -10 -51 -12 11 -2 43 0 47 23 47 14 0 28 -5 32 -12z"/>
<path d="M1235 2650 c101 -18 122 -20 98 -10 -12 5 -50 11 -85 14 -61 5 -61 5
-13 -4z"/>
<path d="M832 2619 c-35 -11 -62 -22 -60 -24 2 -3 20 0 39 6 19 5 41 12 49 14
51 14 73 23 55 24 -11 0 -49 -9 -83 -20z"/>
<path d="M910 2610 l-25 -8 25 0 c14 0 39 4 55 8 l30 8 -30 0 c-16 0 -41 -4
-55 -8z"/>
<path d="M559 2499 l-24 -20 28 17 c15 9 27 18 27 20 0 8 -8 4 -31 -17z"/>
<path d="M175 1980 c-4 -17 -5 -34 -2 -36 2 -3 7 10 11 27 8 42 0 50 -9 9z"/>
<path d="M122 1680 c0 -14 2 -19 5 -12 2 6 2 18 0 25 -3 6 -5 1 -5 -13z"/>
<path d="M131 1554 c0 -11 3 -14 6 -6 3 7 2 16 -1 19 -3 4 -6 -2 -5 -13z"/>
<path d="M160 1424 c0 -10 5 -26 10 -34 8 -11 9 -7 4 15 -8 37 -14 45 -14 19z"/>
<path d="M600 920 c46 -43 55 -46 66 -28 4 6 3 8 -3 5 -5 -3 -27 9 -48 28 -21
19 -42 35 -48 35 -6 0 9 -18 33 -40z"/>
<path d="M1723 2252 c1 -14 5 -18 11 -12 7 7 6 14 -1 21 -9 9 -12 7 -10 -9z"/>
<path d="M1685 1108 l-40 -43 43 40 c23 21 42 40 42 42 0 8 -9 0 -45 -39z"/>
<path d="M550 1065 c13 -14 26 -25 28 -25 3 0 -5 11 -18 25 -13 14 -26 25 -28
25 -3 0 5 -11 18 -25z"/>
<path d="M690 1910 c-1 -3 -12 -87 -25 -188 -13 -100 -27 -187 -30 -192 -3 -6
-15 -10 -26 -10 -10 0 -19 -4 -19 -8 0 -4 27 -8 60 -7 33 0 60 3 60 8 0 4 -7
7 -16 7 -17 0 -16 39 3 178 l5 43 73 -126 c61 -106 73 -123 78 -103 4 13 33
70 65 126 l60 103 6 -56 c3 -30 9 -80 12 -110 5 -47 4 -55 -10 -55 -9 0 -16
-3 -16 -7 0 -5 38 -8 85 -8 47 0 85 3 85 8 0 4 -9 7 -19 7 -11 0 -23 5 -27 11
-3 6 -17 92 -30 192 -13 99 -25 181 -27 183 -1 1 -40 -63 -85 -142 l-84 -144
-77 127 c-43 71 -82 137 -89 148 -6 11 -12 18 -12 15z"/>
<path d="M1295 1897 c-60 -20 -89 -42 -115 -89 -32 -57 -34 -145 -4 -203 55
-105 241 -141 329 -63 31 27 35 36 35 79 0 60 -15 64 -24 8 -19 -117 -174
-144 -242 -41 -41 60 -40 175 0 237 54 83 196 77 227 -10 18 -48 25 -44 21 14
-3 41 -8 50 -30 61 -40 18 -151 22 -197 7z"/>
<path d="M2821 566 c-13 -15 -7 -36 9 -36 12 0 22 32 12 42 -5 5 -14 2 -21 -6z"/>
<path d="M1557 553 c-4 -3 -7 -11 -7 -17 0 -6 5 -5 12 2 6 6 9 14 7 17 -3 3
-9 2 -12 -2z"/>
<path d="M1552 500 c0 -14 2 -19 5 -12 2 6 2 18 0 25 -3 6 -5 1 -5 -13z"/>
<path d="M1557 453 c11 -32 25 -43 52 -42 l26 1 -25 7 c-14 4 -29 17 -35 29
-12 26 -27 30 -18 5z"/>
<path d="M112 445 c0 -16 2 -22 5 -12 2 9 2 23 0 30 -3 6 -5 -1 -5 -18z"/>
<path d="M191 444 c0 -11 3 -14 6 -6 3 7 2 16 -1 19 -3 4 -6 -2 -5 -13z"/>
<path d="M2630 431 c0 -10 19 -25 25 -20 1 2 -3 10 -11 17 -8 7 -14 8 -14 3z"/>
<path d="M865 540 c-3 -5 -2 -10 4 -10 5 0 13 5 16 10 3 6 2 10 -4 10 -5 0
-13 -4 -16 -10z"/>
<path d="M874 495 c-8 -31 12 -57 39 -53 25 4 43 58 24 70 -26 17 -56 8 -63
-17z"/>
<path d="M948 437 c-15 -12 -15 -14 3 -25 17 -11 19 -9 19 13 0 29 0 28 -22
12z"/>
<path d="M865 420 c3 -5 18 -10 33 -9 24 0 25 1 7 9 -28 12 -47 12 -40 0z"/>
<path d="M1294 523 c-17 -17 -16 -18 15 -21 40 -4 48 2 31 23 -16 19 -25 19
-46 -2z"/>
<path d="M1250 490 c0 -5 7 -10 16 -10 8 0 12 5 9 10 -3 6 -10 10 -16 10 -5 0
-9 -4 -9 -10z"/>
<path d="M1275 420 c3 -5 8 -10 11 -10 2 0 4 5 4 10 0 6 -5 10 -11 10 -5 0 -7
-4 -4 -10z"/>
<path d="M1792 518 c-7 -7 -12 -24 -12 -38 0 -48 49 -69 70 -30 25 46 -23 103
-58 68z"/>
<path d="M1969 540 c0 -3 -2 -18 -4 -34 -4 -29 -4 -29 12 -7 11 17 12 26 4 34
-6 6 -11 9 -12 7z"/>
<path d="M2070 536 c0 -2 7 -9 15 -16 9 -7 15 -8 15 -2 0 5 -7 12 -15 16 -8 3
-15 4 -15 2z"/>
<path d="M2192 514 c-1 -14 2 -23 8 -19 12 7 14 45 2 45 -4 0 -9 -11 -10 -26z"/>
<path d="M2310 530 c0 -5 5 -10 11 -10 5 0 7 5 4 10 -3 6 -8 10 -11 10 -2 0
-4 -4 -4 -10z"/>
<path d="M2467 529 c-28 -16 -20 -29 18 -29 38 0 46 13 17 29 -11 6 -24 6 -35
0z"/>
<path d="M2420 478 c0 -19 2 -20 10 -8 13 19 13 30 0 30 -5 0 -10 -10 -10 -22z"/>
<path d="M361 494 c0 -11 3 -14 6 -6 3 7 2 16 -1 19 -3 4 -6 -2 -5 -13z"/>
<path d="M380 421 c0 -6 4 -13 10 -16 6 -3 7 1 4 9 -7 18 -14 21 -14 7z"/>
<path d="M1052 500 c0 -14 2 -19 5 -12 2 6 2 18 0 25 -3 6 -5 1 -5 -13z"/>
<path d="M1076 417 c3 -10 9 -15 12 -12 3 3 0 11 -7 18 -10 9 -11 8 -5 -6z"/>
<path d="M624 166 c-8 -21 -1 -49 14 -54 8 -2 12 7 12 27 0 33 -17 51 -26 27z"/>
<path d="M210 165 c-10 -13 -9 -15 9 -15 11 0 21 4 21 9 0 18 -18 21 -30 6z"/>
<path d="M431 162 c-12 -23 -4 -55 13 -49 15 5 20 47 8 59 -7 7 -14 3 -21 -10z"/>
<path d="M707 173 c-13 -12 -7 -23 13 -23 13 0 18 5 14 15 -7 16 -17 19 -27 8z"/>
<path d="M906 173 c-11 -11 -6 -23 9 -23 8 0 15 4 15 9 0 13 -16 22 -24 14z"/>
<path d="M986 173 c-13 -13 -6 -63 9 -63 10 0 15 10 15 29 0 30 -12 46 -24 34z"/>
<path d="M1065 129 c-4 -6 -5 -13 -2 -16 7 -7 27 6 27 18 0 12 -17 12 -25 -2z"/>
<path d="M1226 165 c-4 -10 1 -15 14 -15 13 0 18 5 14 15 -4 8 -10 15 -14 15
-4 0 -10 -7 -14 -15z"/>
<path d="M1426 173 c-11 -11 -6 -23 9 -23 8 0 15 4 15 9 0 13 -16 22 -24 14z"/>
</g>
</svg>
