<?xml version="1.0" standalone="no"?>
<!DOCTYPE svg PUBLIC "-//W3C//DTD SVG 20010904//EN"
 "http://www.w3.org/TR/2001/REC-SVG-20010904/DTD/svg10.dtd">
<svg version="1.0" xmlns="http://www.w3.org/2000/svg"
 width="300.000000pt" height="278.000000pt" viewBox="0 0 300.000000 278.000000"
 preserveAspectRatio="xMidYMid meet">
<metadata>
Created by potrace 1.10, written by Peter Selinger 2001-2011
</metadata>
<g transform="translate(0.000000,278.000000) scale(0.100000,-0.100000)"
fill="#000000" stroke="none">
<path d="M1000 2673 c-158 -19 -353 -96 -490 -193 -89 -63 -132 -100 -116
-100 4 0 -4 -10 -17 -22 -40 -38 -148 -199 -141 -210 4 -6 2 -8 -4 -5 -11 7
-60 -109 -73 -173 -4 -19 -15 -64 -25 -100 -23 -77 -25 -273 -5 -360 25 -108
44 -162 52 -148 7 10 9 10 9 -2 0 -28 66 -153 118 -225 54 -74 134 -165 147
-165 4 0 -21 30 -55 68 -34 37 -77 90 -96 118 -38 57 -109 204 -120 249 -6 26
-8 27 -16 10 -5 -14 -7 -7 -3 20 3 31 2 35 -5 20 -8 -15 -9 -11 -5 20 4 31 3
37 -5 25 -9 -11 -10 -4 -6 30 4 27 3 40 -2 32 -6 -8 -8 13 -6 55 11 216 14
261 23 288 9 26 9 23 5 -20 -2 -27 -6 -103 -9 -170 -5 -114 -2 -135 29 -255
16 -59 67 -177 105 -240 55 -92 251 -292 329 -333 59 -32 70 -30 17 3 -19 12
-32 26 -29 31 3 6 11 4 17 -5 7 -9 37 -25 67 -37 173 -66 291 -92 305 -69 6 9
4 11 -4 5 -7 -4 -23 -3 -34 3 -12 6 -43 15 -70 21 -130 31 -256 107 -389 236
-75 74 -192 240 -184 261 15 36 16 47 3 25 -14 -23 -14 -23 -13 15 1 22 -2 50
-7 64 -5 14 -11 34 -13 45 -2 11 -9 45 -15 75 -7 30 -13 92 -13 138 -1 81 -1
82 -15 50 -12 -28 -11 -49 3 -148 9 -63 24 -142 34 -175 11 -37 15 -74 12 -95
l-6 -35 -31 65 c-17 36 -43 101 -58 145 -27 78 -27 84 -21 232 6 156 34 302
72 374 51 100 196 284 252 322 101 66 151 96 196 116 56 24 244 72 278 70 19
-1 18 -3 -7 -9 -21 -6 -11 -7 33 -5 71 4 97 15 36 15 -21 1 -52 7 -69 14 l-30
13 25 6 c50 11 145 16 165 7 15 -6 9 -8 -25 -8 -85 0 -132 -3 -126 -10 4 -3
75 -7 159 -8 113 -1 166 -6 207 -19 30 -10 60 -18 65 -19 42 -8 84 -30 88 -46
3 -11 13 -20 24 -20 17 1 17 1 -1 15 -26 20 -6 19 22 -1 12 -8 26 -12 32 -9 5
3 22 -2 37 -12 15 -10 24 -12 19 -5 -8 13 -61 43 -73 41 -21 -3 -33 2 -33 15
0 15 -2 17 -115 57 -44 16 -92 29 -107 29 -16 0 -28 3 -28 8 0 8 -214 12 -270
5z m-95 -44 c-16 -6 -37 -12 -45 -14 -8 -2 -30 -9 -49 -14 -19 -6 -37 -9 -39
-6 -6 5 119 44 143 44 13 -1 10 -4 -10 -10z m556 -30 c27 -12 48 -23 46 -25
-2 -2 -30 8 -63 21 -32 14 -53 25 -46 25 7 0 36 -10 63 -21z"/>
<path d="M1402 2659 c2 -7 34 -22 71 -34 99 -34 84 -17 -22 25 -32 12 -51 16
-49 9z"/>
<path d="M1085 2620 c-5 -7 -4 -11 1 -8 5 3 43 2 84 -2 l75 -7 -80 -2 c-67 -2
-75 -4 -50 -12 17 -6 58 -7 91 -4 48 4 64 2 74 -10 7 -8 49 -26 94 -41 44 -14
92 -35 106 -48 14 -13 64 -44 112 -71 98 -54 172 -120 149 -134 -16 -10 5 -46
70 -118 47 -52 56 -33 22 46 -27 62 -27 64 -10 56 6 -4 -22 26 -63 67 -55 54
-98 84 -162 116 -47 24 -89 50 -92 58 -3 8 -13 14 -21 14 -9 0 -14 4 -10 9 5
10 -27 25 -55 26 -8 0 -42 7 -75 15 -49 12 -55 15 -35 20 23 6 22 8 -15 19
-65 19 -201 26 -210 11z"/>
<path d="M1590 2506 c0 -3 15 -13 33 -22 17 -9 54 -35 82 -58 l50 -41 -30 41
c-25 36 -53 54 -122 81 -7 3 -13 3 -13 -1z"/>
<path d="M1690 2231 c7 -13 38 -64 70 -112 97 -148 127 -283 116 -536 l-6
-145 -50 -102 c-105 -212 -295 -363 -530 -422 -54 -14 -109 -19 -195 -18 -146
1 -234 23 -362 90 -170 90 -244 160 -324 309 -66 121 -95 216 -110 355 -15
138 -32 167 -24 40 11 -164 40 -272 107 -398 31 -58 33 -67 16 -56 -7 4 -8 3
-4 -5 4 -6 11 -9 16 -6 5 3 14 -5 21 -17 12 -22 11 -22 -7 -8 -10 8 -4 -3 13
-25 34 -44 147 -153 123 -119 -8 11 -4 8 10 -7 30 -33 188 -118 291 -156 70
-26 83 -28 244 -28 167 0 172 1 265 33 277 97 442 267 539 558 34 101 49 208
32 218 -6 4 -11 3 -11 -3 0 -34 -23 -168 -31 -181 -7 -10 -8 -3 -4 23 19 116
22 193 12 269 -6 46 -11 106 -12 135 0 28 -3 46 -7 40 -9 -15 -31 42 -25 65 3
10 2 16 -3 13 -11 -7 -22 24 -13 37 3 6 1 8 -5 5 -6 -4 -30 20 -55 55 -52 72
-119 140 -97 99z"/>
<path d="M1276 1928 c-58 -16 -132 -92 -147 -151 -20 -73 -30 -61 -45 52 -4
32 -15 63 -28 77 -20 23 -23 24 -43 9 -12 -8 -47 -58 -78 -110 -31 -52 -62
-95 -69 -95 -6 0 -38 43 -70 95 -63 104 -91 132 -113 113 -26 -21 -32 -46 -53
-204 -13 -97 -27 -165 -36 -175 -30 -34 -3 -59 63 -59 51 0 63 14 63 72 0 26
4 48 10 48 5 0 27 -26 49 -59 22 -32 46 -61 53 -64 21 -8 42 13 77 76 18 31
37 54 42 51 5 -3 9 -25 9 -49 0 -39 2 -43 21 -38 23 6 22 -7 3 169 l-7 56 -63
-113 c-35 -63 -64 -121 -64 -129 0 -8 -11 3 -23 25 -13 22 -46 79 -74 127
l-50 88 -6 -48 c-20 -157 -20 -172 -3 -172 9 0 16 -3 16 -8 0 -4 -27 -8 -60
-8 -33 0 -60 3 -60 8 0 4 9 8 19 8 11 0 22 4 25 9 8 13 46 297 46 344 0 20 3
37 8 37 4 0 46 -66 93 -145 l87 -145 83 145 c46 79 84 143 86 141 1 -1 14 -84
28 -185 13 -100 27 -186 30 -191 3 -6 15 -10 26 -10 10 0 19 -5 19 -11 0 -7
-16 -8 -45 -3 -25 3 -66 3 -92 -1 -47 -7 -47 -7 -23 -21 33 -18 104 -18 140 1
35 18 34 13 15 58 -8 20 -15 46 -15 58 0 19 4 16 29 -17 61 -84 118 -113 225
-115 111 -3 196 55 196 133 0 37 -24 78 -45 78 -8 0 -26 -22 -41 -49 -32 -59
-68 -79 -121 -65 -49 12 -74 49 -80 120 -13 149 90 213 189 117 44 -43 66 -39
80 16 11 41 -8 81 -47 101 -37 18 -175 23 -229 8z m190 -29 c25 -7 47 -17 49
-23 9 -31 12 -96 4 -96 -5 0 -9 7 -9 16 0 9 -15 31 -34 50 -30 30 -40 34 -89
34 -95 0 -141 -57 -141 -175 0 -100 33 -155 105 -175 73 -21 154 28 165 102 9
54 24 47 24 -11 0 -43 -4 -52 -35 -79 -40 -36 -85 -47 -160 -39 -140 14 -216
117 -186 252 27 121 156 182 307 144z"/>
<path d="M1912 1900 c0 -8 6 -46 13 -85 8 -45 13 -57 13 -35 0 34 -25 150 -26
120z"/>
<path d="M300 1103 c0 -15 128 -153 142 -153 6 0 -15 26 -45 58 -30 31 -64 68
-76 82 -11 14 -20 19 -21 13z"/>
<path d="M935 700 c17 -4 44 -8 60 -8 25 0 24 2 -10 9 -51 10 -92 10 -50 -1z"/>
<path d="M724 615 c-10 -25 4 -45 30 -45 30 0 40 13 31 40 -8 24 -53 28 -61 5z"/>
<path d="M2805 600 c6 -27 4 -30 -19 -30 -19 0 -26 -5 -26 -20 0 -15 7 -20 24
-20 24 0 24 -2 19 -52 -4 -43 -2 -58 14 -77 34 -42 116 -23 92 21 -8 15 -13
17 -24 8 -24 -20 -35 -1 -35 57 l0 55 30 -4 c26 -4 30 -1 30 19 0 19 -5 23
-29 23 -25 0 -28 3 -23 25 4 22 1 25 -28 25 -30 0 -31 -2 -25 -30z"/>
<path d="M1580 602 c-26 -13 -38 -27 -48 -59 -35 -110 56 -199 147 -143 l34
21 -21 21 c-17 18 -24 19 -36 9 -28 -23 -60 -9 -70 31 -15 60 31 113 64 73 9
-11 17 -12 31 -4 25 13 24 33 -3 47 -43 21 -63 22 -98 4z"/>
<path d="M90 490 l0 -110 25 0 c23 0 24 3 27 78 l3 77 14 -72 c13 -65 17 -73
37 -73 18 0 24 8 33 48 19 79 33 86 26 12 -7 -65 -7 -65 19 -68 22 -1 26 3 27
26 1 15 3 45 6 67 2 22 1 59 -2 83 -6 41 -8 43 -38 40 -30 -3 -32 -6 -46 -65
-8 -35 -17 -63 -21 -63 -3 0 -12 29 -19 65 l-13 65 -39 0 -39 0 0 -110z"/>
<path d="M573 569 c-45 -23 -35 -70 22 -102 49 -28 59 -52 19 -45 -16 3 -37 8
-46 12 -11 5 -20 1 -28 -14 -14 -27 -4 -36 49 -46 47 -9 84 6 95 39 13 36 1
55 -53 86 -31 17 -40 26 -32 34 8 8 19 8 41 0 26 -10 30 -9 36 9 3 11 4 22 1
25 -11 11 -83 12 -104 2z"/>
<path d="M2653 573 c-34 -7 -63 -50 -63 -95 0 -31 7 -46 30 -70 27 -26 36 -30
67 -25 20 4 43 13 52 21 13 14 13 18 -3 35 -15 16 -21 18 -37 8 -27 -17 -54 3
-54 38 0 35 27 55 53 39 14 -9 22 -9 35 1 16 11 16 13 -1 27 -21 19 -50 26
-79 21z"/>
<path d="M835 540 c-29 -56 -12 -135 32 -146 13 -4 34 -4 48 -2 22 5 24 2 27
-41 3 -41 6 -46 28 -49 l25 -3 0 136 c0 133 0 135 -22 135 -13 0 -23 -5 -23
-12 0 -9 -3 -9 -12 0 -7 7 -29 12 -50 12 -31 0 -40 -5 -53 -30z m102 -28 c18
-11 1 -66 -21 -70 -9 -2 -23 2 -31 8 -15 13 -20 51 -8 63 9 9 45 9 60 -1z"/>
<path d="M1259 541 c-21 -22 -29 -39 -29 -66 0 -51 15 -73 58 -86 31 -9 45 -8
75 5 40 16 45 27 22 46 -12 10 -21 10 -41 1 -18 -8 -31 -8 -45 -1 -35 19 -20
30 41 30 60 0 60 0 60 29 0 20 -9 36 -26 50 -38 30 -80 27 -115 -8z m75 -7
c30 -12 18 -34 -19 -34 -40 0 -41 2 -19 24 18 18 17 18 38 10z"/>
<path d="M1773 560 c-29 -12 -43 -40 -43 -90 0 -53 34 -90 82 -90 68 0 106 53
88 121 -16 60 -66 83 -127 59z m79 -55 c22 -49 -25 -98 -60 -63 -7 7 -12 24
-12 38 0 51 52 69 72 25z"/>
<path d="M1940 498 c0 -40 -3 -83 -6 -95 -6 -20 -3 -23 25 -23 l31 0 0 56 c0
42 4 60 18 70 46 35 75 3 65 -75 -6 -49 -5 -51 19 -51 28 0 38 20 38 81 0 87
-40 127 -98 98 -15 -7 -31 -15 -35 -17 -4 -2 -6 2 -5 10 2 8 -8 14 -24 16
l-28 3 0 -73z"/>
<path d="M2170 491 c0 -43 -3 -86 -6 -95 -5 -13 1 -16 25 -16 30 0 31 1 31 45
0 61 -1 58 17 78 21 22 50 22 62 -2 6 -10 8 -42 4 -70 -6 -50 -5 -51 20 -51
13 0 28 7 31 16 9 24 7 110 -4 138 -12 32 -52 43 -88 25 -15 -7 -31 -15 -35
-17 -4 -2 -6 2 -5 10 2 8 -8 14 -24 16 l-28 3 0 -80z"/>
<path d="M2433 555 c-13 -9 -28 -33 -34 -54 -14 -48 3 -89 44 -109 55 -27 140
10 105 44 -12 13 -20 14 -36 5 -28 -15 -38 -14 -58 7 -17 16 -15 17 47 22 l64
5 -3 30 c-6 57 -79 85 -129 50z m75 -27 c20 -20 14 -28 -23 -28 -38 0 -46 13
-17 29 22 13 26 13 40 -1z"/>
<path d="M340 503 c0 -68 15 -103 52 -121 65 -31 118 23 118 121 0 56 0 57
-29 57 -28 0 -29 -1 -27 -55 1 -37 -4 -59 -15 -70 -14 -15 -17 -15 -30 1 -8
10 -14 39 -14 71 0 51 -1 53 -27 53 -27 0 -28 -1 -28 -57z"/>
<path d="M1030 496 c0 -71 20 -109 64 -120 63 -16 106 37 106 129 0 54 -1 55
-29 55 -28 0 -29 -1 -27 -55 1 -37 -4 -59 -15 -70 -14 -15 -17 -15 -30 1 -8
10 -14 39 -14 71 0 51 -1 53 -27 53 -28 0 -28 -1 -28 -64z"/>
<path d="M730 533 c0 -5 -3 -41 -7 -81 l-6 -74 29 4 c29 3 29 3 32 81 3 77 3
77 -23 77 -14 0 -25 -3 -25 -7z"/>
<path d="M96 204 c-18 -17 -21 -71 -6 -94 5 -8 25 -15 44 -15 34 -2 36 0 36
32 0 29 -3 33 -25 33 -14 0 -25 -4 -25 -10 0 -5 7 -10 16 -10 9 0 14 -6 12
-12 -3 -7 -13 -13 -24 -13 -27 0 -28 78 -1 83 10 2 25 -5 32 -15 12 -15 14
-15 15 -2 0 36 -46 51 -74 23z"/>
<path d="M650 205 c0 -8 -7 -15 -15 -15 -22 0 -37 -44 -25 -75 7 -18 16 -24
35 -23 24 2 25 5 25 65 0 35 -4 63 -10 63 -5 0 -10 -7 -10 -15z m0 -66 c0 -20
-4 -29 -12 -27 -15 5 -22 33 -14 54 9 24 26 6 26 -27z"/>
<path d="M850 207 c0 -7 -10 -17 -22 -22 -46 -20 -27 -101 20 -89 20 6 22 13
22 65 0 33 -4 59 -10 59 -5 0 -10 -6 -10 -13z m0 -68 c0 -19 -5 -29 -15 -29
-15 0 -22 50 -9 63 12 12 24 -4 24 -34z"/>
<path d="M1170 207 c0 -11 -8 -17 -25 -17 -23 0 -25 -3 -25 -50 0 -27 5 -50
10 -50 6 0 10 18 10 39 0 57 28 64 32 9 2 -23 8 -43 13 -45 14 -4 10 106 -4
120 -8 8 -11 6 -11 -6z"/>
<path d="M1567 213 c-9 -8 -9 -86 -1 -107 12 -32 20 -14 18 45 -2 62 -6 74
-17 62z"/>
<path d="M338 199 c-7 -20 7 -102 17 -106 9 -3 10 31 5 110 0 11 -18 8 -22 -4z"/>
<path d="M197 184 c-13 -13 -7 -71 8 -84 18 -15 45 -6 45 16 0 13 -3 14 -15 4
-8 -6 -19 -9 -25 -5 -19 11 -10 25 16 25 21 0 25 4 22 23 -3 22 -36 36 -51 21z"/>
<path d="M273 174 c-4 -12 0 -22 15 -32 25 -17 29 -32 7 -32 -8 0 -15 5 -15
11 0 5 -5 7 -10 4 -8 -5 -7 -11 1 -21 16 -20 36 -17 49 6 9 16 6 22 -15 36
-14 9 -22 20 -19 26 3 5 12 4 22 -4 13 -11 14 -11 10 2 -7 22 -37 24 -45 4z"/>
<path d="M380 140 c0 -29 3 -50 7 -46 7 7 5 87 -3 95 -2 2 -4 -20 -4 -49z"/>
<path d="M417 184 c-13 -13 -7 -71 8 -84 27 -23 46 -4 43 42 -2 34 -7 44 -23
46 -12 2 -24 0 -28 -4z m41 -45 c-1 -12 -8 -24 -14 -26 -16 -5 -24 30 -12 52
13 22 31 5 26 -26z"/>
<path d="M490 139 c0 -27 5 -49 10 -49 6 0 10 18 10 39 0 22 5 43 10 46 6 4
10 -10 10 -34 0 -22 5 -43 11 -46 7 -5 9 9 7 42 -3 45 -5 48 -30 49 -27 1 -28
-1 -28 -47z"/>
<path d="M697 184 c-14 -14 -8 -82 8 -88 21 -8 45 3 45 21 0 12 -3 13 -15 3
-8 -6 -19 -9 -25 -5 -19 11 -10 25 16 25 21 0 25 4 22 23 -3 22 -36 36 -51 21z"/>
<path d="M888 165 c-13 -29 2 -75 26 -75 18 0 41 28 31 38 -4 4 -10 1 -12 -5
-6 -18 -33 -16 -33 2 0 9 9 15 25 15 26 0 29 7 19 34 -9 25 -43 19 -56 -9z"/>
<path d="M960 125 c0 -37 4 -65 10 -65 6 0 10 9 10 20 0 13 5 18 15 14 20 -8
39 37 31 70 -5 21 -13 26 -36 26 l-30 0 0 -65z m50 14 c0 -19 -5 -29 -15 -29
-15 0 -22 50 -9 63 12 12 24 -4 24 -34z"/>
<path d="M1045 179 c-10 -16 3 -23 18 -11 8 7 17 9 20 5 13 -12 7 -22 -15 -25
-17 -2 -23 -10 -23 -28 0 -21 5 -25 32 -27 31 -1 31 0 26 35 -2 21 -6 43 -9
50 -4 15 -40 16 -49 1z"/>
<path d="M1217 184 c-4 -4 -7 -24 -7 -45 0 -29 5 -39 20 -44 24 -8 40 1 40 22
0 12 -3 13 -15 3 -8 -6 -19 -9 -25 -5 -19 11 -10 25 16 25 21 0 25 4 22 23 -3
22 -36 36 -51 21z"/>
<path d="M1290 137 c0 -28 3 -47 8 -43 4 4 7 22 7 38 0 17 6 33 13 35 8 3 12
-8 12 -36 0 -23 5 -41 10 -41 6 0 10 18 10 40 0 22 5 40 10 40 6 0 10 -18 10
-40 0 -22 5 -40 11 -40 6 0 9 19 7 48 l-3 47 -47 1 -48 1 0 -50z"/>
<path d="M1408 166 c-13 -30 2 -76 26 -76 18 0 41 28 31 38 -4 4 -10 1 -12 -5
-6 -18 -33 -16 -33 2 0 9 10 15 26 15 21 0 25 4 22 23 -5 33 -45 35 -60 3z"/>
<path d="M1488 142 c-2 -24 0 -46 4 -48 4 -2 8 15 10 38 2 24 8 43 13 43 6 0
11 -19 13 -43 4 -48 22 -48 22 1 0 41 -11 56 -37 54 -18 -1 -22 -9 -25 -45z"/>
</g>
</svg>
