 <svg  version="1.0" xmlns="http://www.w3.org/2000/svg"  width="900.000000pt" height="834.000000pt" viewBox="0 0 900.000000 834.000000"  preserveAspectRatio="xMidYMid meet">  <g transform="translate(0.000000,834.000000) scale(0.100000,-0.100000)" fill="#ffffff" stroke="none"> <path d="M3110 8135 c0 -11 7 -15 23 -13 12 2 22 8 22 13 0 6 -10 11 -22 13 -16 2 -23 -2 -23 -13z"/> <path d="M3230 8030 c-74 -4 -163 -13 -198 -19 -34 -6 -89 -10 -122 -9 -44 2 -64 -2 -78 -15 -12 -11 -36 -17 -73 -17 -30 -1 -65 -7 -79 -15 -14 -8 -37 -14 -52 -15 -15 0 -29 -4 -32 -9 -3 -4 -34 -14 -68 -21 -35 -7 -67 -17 -73 -21 -5 -5 -21 -9 -36 -9 -14 0 -60 -14 -100 -31 -41 -17 -92 -38 -114 -47 -22 -9 -47 -22 -56 -29 -8 -7 -23 -13 -32 -13 -9 0 -43 -13 -74 -28 -32 -16 -93 -46 -135 -66 -42 -21 -81 -35 -87 -32 -5 3 -16 -1 -24 -9 -9 -8 -18 -15 -21 -15 -11 0 -136 -87 -188 -131 -31 -27 -62 -49 -69 -49 -7 0 -49 -28 -93 -62 -111 -86 -102 -79 -184 -155 -51 -47 -72 -73 -69 -85 3 -11 0 -18 -10 -18 -19 0 -57 -47 -63 -79 -3 -15 -14 -27 -27 -31 -13 -3 -31 -20 -40 -37 -10 -18 -38 -56 -63 -84 -44 -51 -60 -75 -79 -116 -6 -13 -15 -23 -21 -23 -5 0 -10 -7 -10 -15 0 -8 -4 -15 -8 -15 -5 0 -14 -10 -21 -22 -6 -13 -20 -36 -31 -53 -11 -16 -26 -43 -34 -60 -8 -16 -31 -43 -50 -60 -20 -16 -36 -37 -36 -46 0 -9 -7 -22 -15 -29 -8 -7 -15 -23 -15 -35 0 -12 -7 -28 -15 -35 -8 -7 -15 -20 -15 -29 0 -9 -7 -25 -15 -35 -8 -11 -15 -28 -15 -37 0 -10 -6 -30 -14 -46 -8 -15 -19 -46 -26 -68 -13 -44 -31 -88 -60 -150 -10 -22 -21 -69 -25 -105 -7 -68 -25 -147 -44 -190 -21 -48 -50 -176 -56 -250 -4 -41 -13 -88 -20 -105 -16 -39 -28 -411 -14 -480 5 -27 13 -99 17 -160 4 -60 13 -120 20 -132 6 -12 12 -44 12 -71 0 -35 4 -52 15 -56 11 -4 15 -22 15 -68 1 -39 6 -70 15 -82 8 -11 15 -39 15 -62 0 -28 5 -44 15 -48 8 -3 15 -18 15 -33 0 -15 7 -37 15 -47 8 -11 15 -32 15 -48 0 -18 5 -28 15 -28 9 0 15 9 15 23 0 13 7 32 15 43 19 25 19 68 0 84 -8 7 -15 27 -15 44 0 17 -4 38 -10 46 -10 16 -12 14 -28 -50 l-9 -35 -8 48 c-5 32 -4 52 4 60 6 6 11 31 11 57 0 33 -3 41 -10 30 -5 -8 -10 -27 -10 -42 0 -31 -14 -37 -24 -12 -10 26 -6 68 9 94 17 29 20 90 5 90 -6 0 -15 -12 -21 -27 l-11 -28 -10 28 c-8 21 -6 47 7 98 18 74 14 104 -18 131 -13 12 -17 23 -12 35 4 10 9 169 11 353 4 263 8 343 19 373 8 20 15 61 15 90 0 28 7 65 15 80 8 16 17 50 21 78 7 55 23 66 26 17 3 -60 -1 -80 -19 -94 -17 -12 -17 -15 -1 -43 9 -17 13 -33 9 -35 -7 -5 -23 -113 -21 -143 3 -49 -7 -180 -16 -194 -2 -5 -4 -48 -4 -96 2 -199 0 -280 -8 -323 -9 -47 -1 -81 27 -109 10 -11 12 -30 7 -73 -5 -47 -3 -60 9 -64 9 -4 15 -19 15 -41 0 -19 6 -49 14 -66 31 -73 36 -89 30 -98 -3 -6 -2 -15 4 -22 5 -7 17 -37 26 -67 10 -30 24 -68 32 -83 8 -16 14 -35 14 -43 0 -8 13 -42 28 -76 30 -68 48 -113 64 -168 5 -19 21 -50 34 -69 13 -20 24 -40 24 -44 0 -5 20 -40 45 -77 25 -37 45 -72 45 -78 0 -5 7 -15 15 -22 8 -7 15 -20 15 -29 0 -9 14 -29 30 -45 17 -16 30 -33 30 -38 0 -29 189 -244 411 -467 94 -94 239 -226 257 -233 9 -3 39 -25 66 -47 26 -23 54 -41 61 -41 7 0 15 -7 19 -15 3 -8 10 -15 15 -15 6 0 30 -13 54 -30 25 -16 49 -30 55 -30 5 0 15 -7 22 -15 7 -8 23 -15 36 -15 15 0 24 -6 24 -15 0 -8 7 -15 15 -15 8 0 15 2 15 5 0 10 -54 54 -66 55 -7 0 -14 7 -18 15 -3 8 -12 15 -20 15 -7 0 -16 7 -20 15 -3 8 -11 15 -17 15 -22 0 -60 51 -54 71 9 27 34 24 45 -6 5 -14 14 -25 20 -25 5 0 10 -7 10 -15 0 -9 9 -15 24 -15 13 0 26 -7 30 -15 3 -8 14 -15 25 -15 10 0 21 -6 24 -14 3 -7 25 -16 49 -19 24 -3 72 -20 105 -37 34 -16 68 -30 76 -30 7 0 22 -7 33 -15 10 -8 28 -15 40 -15 11 0 29 -7 40 -15 10 -8 27 -15 37 -15 11 0 33 -6 50 -14 18 -8 43 -16 57 -19 14 -3 39 -9 55 -15 96 -32 137 -42 171 -42 22 0 52 -7 68 -15 16 -8 47 -14 70 -14 22 1 60 -1 83 -5 36 -6 43 -5 52 13 16 28 15 49 -1 33 -18 -18 -87 -15 -95 3 -8 22 -56 45 -93 45 -45 0 -240 48 -305 75 -41 16 -96 36 -120 42 -20 5 -200 92 -240 116 -11 7 -36 24 -56 40 -20 15 -41 27 -47 27 -5 0 -32 19 -58 43 -27 23 -66 51 -87 62 -20 11 -47 29 -60 40 -12 11 -53 45 -92 75 -171 135 -406 372 -485 490 -8 12 -19 28 -25 34 -20 23 -133 193 -150 226 -16 31 -64 101 -95 137 -5 7 -10 20 -10 30 0 10 -9 26 -20 36 -11 9 -20 23 -20 31 0 7 -7 19 -15 26 -21 18 -19 57 4 63 15 3 18 11 13 33 -3 16 -11 35 -19 42 -17 18 -16 38 4 73 16 26 16 29 0 47 -9 10 -17 31 -17 46 0 15 -7 38 -17 52 -9 14 -16 39 -15 56 0 17 -6 41 -14 52 -8 11 -14 41 -14 66 0 25 -7 54 -15 64 -9 12 -15 41 -15 71 0 28 -5 56 -11 62 -6 6 -15 73 -21 149 -13 182 -13 170 -4 315 6 89 5 129 -3 133 -6 4 -13 1 -15 -6 -2 -7 -11 -38 -21 -68 -24 -78 -30 -205 -15 -324 30 -241 80 -530 100 -565 9 -18 39 -152 47 -216 3 -22 12 -48 21 -58 14 -16 14 -19 -3 -31 -16 -11 -17 -21 -10 -67 4 -30 8 -67 9 -84 2 -44 -25 -38 -49 10 -11 22 -25 43 -32 48 -6 4 -15 22 -18 40 -4 17 -14 41 -21 52 -8 11 -14 26 -14 33 0 8 -9 25 -20 39 -11 14 -20 36 -20 49 0 22 -16 65 -45 124 -7 14 -15 43 -19 65 -4 22 -17 63 -30 90 -38 79 -54 127 -62 175 -3 25 -11 53 -16 63 -16 31 -26 160 -18 244 4 44 4 104 0 134 -4 30 -3 83 2 119 5 36 13 130 18 210 17 267 24 309 100 615 41 165 134 373 227 507 29 43 53 82 53 87 0 5 6 14 14 20 7 6 34 42 60 80 25 38 87 116 137 173 50 56 93 110 97 118 3 8 23 35 44 59 21 24 38 47 38 51 0 3 35 37 77 73 43 37 87 76 98 86 11 11 38 28 59 40 22 11 42 24 45 29 3 5 35 24 71 42 35 18 85 50 110 70 39 33 82 59 205 124 40 20 221 100 265 116 19 7 63 16 97 21 35 4 72 13 82 19 11 5 31 10 46 10 14 0 38 6 53 14 15 7 55 17 89 21 48 5 62 11 66 26 4 16 14 19 56 19 29 0 62 6 74 14 26 17 168 19 179 3 17 -27 -5 -37 -78 -37 -59 0 -74 -3 -74 -15 0 -21 97 -20 150 1 30 12 62 15 119 12 66 -4 83 -1 103 13 23 18 21 19 -82 19 -74 0 -110 5 -123 15 -11 7 -36 16 -57 20 -22 4 -44 13 -51 21 -6 8 -20 14 -30 14 -27 0 -24 17 7 36 20 13 52 18 142 20 72 1 139 8 173 18 49 15 66 15 147 3 51 -8 95 -17 99 -20 24 -24 -81 -29 -159 -7 -41 12 -50 11 -65 -2 -10 -8 -42 -18 -72 -22 -49 -6 -91 -29 -78 -42 3 -3 52 -6 109 -7 74 -2 106 2 113 11 15 19 260 27 355 12 41 -6 118 -18 170 -25 114 -15 309 -63 330 -81 19 -15 97 -37 109 -29 5 3 22 -1 38 -9 39 -19 95 -36 122 -36 12 0 24 -7 27 -15 4 -8 18 -15 34 -15 16 0 30 7 34 15 3 8 17 15 31 15 16 0 25 -6 25 -15 0 -10 -10 -15 -28 -15 -23 0 -30 -6 -40 -33 -15 -42 -15 -47 0 -47 6 0 21 -9 33 -20 26 -24 90 -32 90 -10 0 8 -9 16 -19 18 -11 2 -26 10 -34 18 -7 8 -20 14 -28 14 -8 0 -14 7 -14 15 0 9 9 15 25 15 14 0 25 -4 25 -10 0 -5 12 -13 28 -16 15 -4 43 -20 64 -36 32 -25 38 -27 51 -13 19 19 37 19 62 1 65 -44 173 -91 123 -52 -10 7 -18 16 -18 20 0 11 -43 45 -57 46 -6 0 -18 6 -25 13 -18 18 -78 47 -98 47 -9 0 -21 -5 -28 -12 -9 -9 -15 -9 -24 0 -7 7 -27 12 -45 12 -30 0 -33 2 -27 24 7 28 -11 66 -30 66 -8 0 -19 6 -25 14 -6 7 -33 21 -59 31 -26 9 -60 23 -77 30 -16 7 -45 16 -62 20 -18 3 -35 11 -38 16 -4 5 -24 9 -47 9 -31 0 -41 4 -45 20 -4 15 -14 20 -39 20 -24 0 -34 5 -34 15 0 10 -10 15 -30 15 -16 0 -55 7 -87 15 -31 8 -81 15 -110 15 -41 0 -54 4 -63 19 -8 17 -15 18 -42 10 -22 -6 -56 -6 -102 2 -37 6 -86 8 -107 5 -28 -4 -41 -2 -44 6 -6 16 -83 18 -275 8z m516 -72 c14 -15 -3 -18 -89 -19 -88 -1 -112 5 -101 23 7 11 178 8 190 -4z m166 -28 c11 0 17 -4 14 -8 -6 -10 -113 -14 -138 -6 -10 3 -18 10 -18 16 0 7 20 9 61 4 34 -3 71 -6 81 -6z m-1142 -30 c0 -15 -36 -30 -74 -30 -20 0 -36 -4 -36 -10 0 -5 -12 -13 -27 -16 -16 -4 -34 -11 -41 -17 -10 -8 -16 -7 -21 1 -6 10 -14 9 -37 -3 -16 -8 -36 -15 -45 -15 -9 0 -19 -7 -23 -15 -4 -10 -20 -15 -50 -15 -30 0 -46 -5 -50 -15 -3 -9 -18 -15 -36 -15 -23 0 -30 4 -30 20 0 14 7 20 24 20 13 0 29 7 36 15 7 8 27 15 44 15 17 0 40 7 50 15 11 8 32 15 47 15 15 0 40 7 55 15 16 8 43 15 60 15 17 0 37 7 44 15 14 17 110 21 110 5z m1270 0 c12 -8 12 -10 -2 -15 -25 -10 -81 -1 -86 13 -4 14 65 17 88 2z m83 -41 c-5 -5 -19 -6 -32 -2 -15 4 -19 8 -11 13 16 10 54 0 43 -11z m131 -24 c3 -8 16 -15 30 -15 31 0 56 -9 56 -21 0 -16 -87 -11 -93 5 -3 8 -20 16 -38 18 -18 2 -34 9 -37 16 -6 19 74 16 82 -3z m144 -63 c3 -9 -3 -13 -19 -10 -12 1 -24 9 -27 16 -3 9 3 13 19 10 12 -1 24 -9 27 -16z m60 -29 c2 -8 -6 -13 -22 -13 -25 0 -33 10 -19 24 10 10 36 3 41 -11z m-2728 -243 c0 -5 -9 -10 -20 -10 -10 0 -24 -9 -30 -20 -6 -11 -17 -20 -25 -20 -7 0 -15 -6 -18 -12 -2 -7 -8 -9 -13 -5 -5 4 -4 11 2 15 6 4 13 15 17 25 3 9 13 17 22 17 8 0 15 5 15 10 0 6 11 10 25 10 14 0 25 -4 25 -10z m-1166 -1514 c7 -30 0 -53 -21 -60 -11 -5 -14 -19 -11 -59 2 -41 0 -52 -12 -52 -12 0 -14 11 -11 50 1 28 6 55 11 60 4 6 10 27 14 48 8 42 21 48 30 13z m-189 -969 c0 -65 -19 -64 -23 2 -2 40 0 52 10 49 8 -3 13 -22 13 -51z m35 -357 c0 -10 -4 -22 -10 -25 -6 -4 -10 7 -10 25 0 18 4 29 10 25 6 -3 10 -15 10 -25z m120 -494 c0 -14 -5 -28 -10 -31 -13 -8 -24 20 -16 40 9 24 26 17 26 -9z m1198 -1313 c15 -10 31 -23 35 -30 4 -7 15 -13 22 -13 8 0 15 -7 15 -15 0 -18 -26 -20 -37 -2 -9 14 -37 32 -70 47 -13 5 -23 14 -23 20 0 15 28 12 58 -7z"/> <path d="M4191 7977 c-27 -27 -10 -42 82 -70 50 -15 106 -28 124 -27 17 0 34 -4 37 -9 8 -12 83 -48 119 -56 15 -4 27 -11 27 -16 0 -5 7 -9 15 -9 20 0 19 23 -2 42 -20 17 -106 58 -123 58 -5 0 -18 4 -28 10 -9 5 -35 16 -57 25 -22 9 -53 22 -70 30 -52 23 -112 34 -124 22z"/> <path d="M2900 7924 c0 -10 15 -14 61 -14 44 0 60 3 57 13 -7 18 -118 19 -118 1z"/> <path d="M3269 7872 c-8 -1 -20 -12 -28 -24 -12 -20 -11 -20 16 -13 15 5 37 8 48 7 11 -1 101 -6 200 -12 99 -5 186 -12 193 -15 6 -2 12 -11 12 -20 0 -14 -26 -15 -216 -15 -227 1 -288 -9 -167 -28 37 -6 95 -15 128 -21 68 -11 109 -9 210 13 108 24 120 22 173 -28 45 -42 155 -96 227 -112 17 -3 54 -15 83 -25 29 -10 71 -19 93 -19 53 0 88 -21 167 -97 69 -67 131 -107 257 -167 44 -21 87 -44 95 -51 8 -7 52 -32 98 -55 45 -22 82 -44 82 -48 0 -4 15 -16 33 -26 17 -10 41 -27 52 -37 11 -10 50 -45 87 -76 74 -63 138 -142 138 -169 0 -14 -8 -16 -47 -12 -27 3 -42 3 -35 1 6 -3 12 -10 12 -18 0 -7 7 -19 16 -26 9 -7 20 -22 25 -34 11 -24 32 -58 40 -65 4 -3 15 -21 26 -40 10 -19 53 -69 94 -110 41 -41 90 -99 109 -127 18 -29 37 -53 41 -53 4 0 10 15 14 33 3 17 12 43 18 56 9 19 9 25 -1 29 -12 4 -52 81 -52 100 0 16 -40 101 -50 107 -6 3 -10 19 -10 35 0 15 -7 30 -15 34 -8 3 -15 13 -15 22 0 9 -7 22 -17 29 -9 7 -13 17 -9 23 10 17 26 15 26 -3 0 -8 6 -15 14 -15 8 0 16 -6 19 -12 2 -7 7 -10 10 -7 11 10 -138 170 -284 305 -47 44 -175 134 -189 134 -5 0 -13 6 -17 13 -9 13 -93 57 -111 57 -5 0 -33 18 -61 40 -28 22 -56 40 -62 40 -7 0 -21 7 -31 17 -10 9 -33 17 -51 17 -17 1 -39 6 -47 11 -8 5 -33 19 -55 31 -27 15 -40 29 -40 43 0 23 -59 71 -88 71 -16 0 -17 3 -7 15 11 13 8 17 -19 26 -17 6 -31 15 -31 20 0 5 -7 9 -16 9 -9 0 -29 8 -45 17 -25 15 -31 15 -54 3 -21 -11 -30 -12 -45 -2 -11 6 -36 16 -57 21 -21 6 -65 18 -98 27 -33 9 -78 18 -100 21 -67 7 -85 13 -85 28 0 10 11 15 33 16 17 0 41 4 52 8 18 7 18 8 -5 24 -27 17 -97 33 -201 47 -37 5 -84 13 -105 19 -35 10 -339 20 -375 13z"/> <path d="M4725 7780 c-10 -16 41 -60 69 -60 14 0 28 -5 31 -10 9 -15 25 -2 25 20 0 21 -28 40 -59 40 -12 0 -21 5 -21 10 0 13 -37 13 -45 0z"/> <path d="M2720 7770 c-34 -7 -34 -7 13 -9 30 0 46 3 42 9 -3 6 -9 9 -13 9 -4 -1 -23 -5 -42 -9z"/> <path d="M4607 7544 c-9 -10 2 -24 19 -24 8 0 14 7 14 15 0 15 -21 21 -33 9z"/> <path d="M4766 7512 c-7 -12 82 -77 134 -98 53 -20 179 -113 180 -131 0 -7 6 -13 13 -13 6 0 30 -17 53 -38 23 -20 51 -43 63 -50 21 -12 22 -12 15 10 -6 21 -27 45 -116 140 -16 16 -28 35 -28 44 0 8 -6 14 -12 12 -17 -3 -55 18 -96 53 -18 16 -41 29 -51 29 -16 0 -59 17 -103 41 -22 11 -45 12 -52 1z"/> <path d="M5400 7127 c0 -8 9 -22 20 -32 11 -10 20 -24 20 -30 0 -19 26 -36 44 -29 24 9 20 30 -11 63 -33 34 -73 49 -73 28z"/> <path d="M4875 7046 c9 -13 23 -27 31 -30 8 -3 14 -12 14 -21 0 -17 74 -95 90 -95 6 0 10 10 10 22 0 24 -102 128 -125 128 -8 0 -15 5 -15 10 0 6 -5 10 -10 10 -6 0 -3 -11 5 -24z"/> <path d="M4820 6969 c0 -11 11 -35 25 -53 14 -18 25 -37 25 -43 0 -13 43 -53 57 -53 6 0 13 -6 16 -12 2 -7 8 -9 13 -5 4 4 -6 21 -24 38 -18 16 -32 34 -32 40 0 5 -7 9 -15 9 -8 0 -15 4 -15 9 0 5 7 11 15 15 19 7 20 26 1 26 -8 0 -23 11 -34 25 -24 30 -32 31 -32 4z"/> <path d="M5017 6871 c-3 -11 -1 -23 3 -26 14 -8 22 13 12 31 -8 14 -10 14 -15 -5z"/> <path d="M5040 6825 c0 -8 7 -15 15 -15 8 0 15 -7 15 -15 0 -8 7 -15 15 -15 8 0 15 -6 15 -13 0 -16 36 -47 55 -47 19 0 19 14 0 30 -8 7 -15 19 -15 26 0 8 -9 14 -19 14 -10 0 -29 11 -42 25 -28 28 -39 31 -39 10z"/> <path d="M5030 6720 c0 -5 3 -10 8 -10 7 0 18 -18 47 -80 9 -19 26 -45 37 -57 12 -12 26 -31 32 -42 16 -27 65 -104 103 -159 155 -224 186 -277 218 -382 12 -41 34 -101 48 -132 16 -35 28 -86 32 -130 4 -40 13 -102 20 -138 8 -36 18 -96 24 -135 5 -38 15 -101 21 -140 18 -121 16 -502 -4 -650 -10 -77 -15 -152 -11 -185 9 -80 8 -121 -4 -133 -6 -6 -11 -19 -11 -29 0 -9 -7 -34 -16 -55 -9 -21 -28 -65 -42 -98 -20 -49 -87 -189 -121 -255 -5 -8 -16 -31 -26 -50 -10 -19 -32 -57 -50 -85 -18 -27 -45 -70 -61 -95 -85 -134 -399 -447 -554 -553 -265 -180 -391 -247 -630 -331 -78 -28 -127 -41 -305 -82 -132 -30 -300 -46 -485 -45 -155 1 -383 19 -465 36 -163 34 -301 77 -423 131 -18 8 -39 14 -46 14 -8 0 -19 7 -26 15 -7 8 -20 15 -30 15 -9 0 -25 9 -35 20 -10 11 -26 20 -35 20 -9 0 -20 4 -26 9 -5 5 -58 35 -119 66 -60 31 -117 62 -125 70 -9 8 -20 15 -24 15 -22 0 -187 121 -271 198 -22 20 -56 51 -75 68 -94 81 -218 233 -275 334 -32 58 -76 131 -97 163 -22 31 -45 75 -53 97 -8 22 -26 59 -40 83 -14 24 -25 49 -25 56 0 7 -12 31 -28 54 -23 36 -57 129 -117 322 -31 99 -78 382 -81 485 -4 159 -46 416 -65 404 -12 -7 -11 -268 1 -334 5 -28 13 -102 16 -163 3 -62 12 -137 20 -167 8 -30 14 -70 14 -90 1 -19 7 -46 15 -60 8 -14 14 -39 15 -56 0 -17 7 -48 15 -67 8 -20 15 -47 15 -60 0 -14 7 -30 15 -37 8 -7 15 -24 15 -39 0 -14 7 -35 15 -45 8 -11 15 -28 15 -38 0 -10 4 -18 10 -18 5 0 13 -12 16 -27 4 -16 13 -37 20 -48 8 -11 14 -29 14 -40 0 -11 12 -45 26 -75 15 -30 34 -70 43 -89 9 -19 21 -39 26 -45 6 -6 20 -29 32 -51 42 -81 58 -110 64 -115 15 -14 48 -78 42 -83 -13 -14 -33 -6 -33 13 0 11 -7 20 -15 20 -9 0 -15 9 -15 25 0 15 -6 25 -14 25 -7 0 -16 10 -20 22 -4 19 -8 20 -18 10 -11 -11 -10 -16 4 -26 10 -7 18 -17 18 -21 0 -9 55 -80 92 -119 15 -17 28 -34 28 -38 0 -5 41 -52 92 -104 50 -52 97 -102 104 -112 7 -10 38 -40 69 -66 44 -38 58 -46 69 -37 9 8 16 8 20 2 4 -5 2 -12 -4 -16 -21 -13 -9 -25 18 -19 22 5 25 4 15 -7 -20 -20 -15 -30 11 -23 21 5 24 3 19 -15 -4 -16 -1 -21 16 -21 11 0 21 -5 21 -11 0 -15 42 -48 62 -49 9 0 20 -4 23 -10 3 -5 15 -10 26 -10 10 0 19 -7 19 -15 0 -9 9 -15 24 -15 14 0 28 -4 31 -10 3 -5 15 -10 26 -10 10 0 19 -5 19 -10 0 -6 10 -15 23 -21 33 -15 67 -35 80 -48 6 -6 19 -11 29 -11 10 0 21 -7 24 -15 4 -8 16 -15 29 -15 12 0 28 -7 35 -15 7 -8 20 -15 30 -15 10 0 23 -7 30 -15 7 -8 20 -15 30 -15 10 0 23 -7 30 -15 7 -8 25 -15 40 -15 16 0 30 -7 34 -15 3 -9 18 -15 35 -15 20 0 34 -7 41 -20 8 -15 21 -20 49 -20 25 0 41 -5 45 -15 3 -8 18 -15 33 -15 15 0 51 -8 78 -19 45 -17 94 -25 210 -36 22 -2 52 -8 68 -14 17 -7 148 -11 345 -12 266 -1 324 2 361 15 24 9 64 16 90 16 25 1 64 7 86 15 22 8 54 15 70 15 17 0 41 7 55 15 14 8 36 14 50 15 14 0 38 7 54 15 15 8 38 15 50 15 12 0 31 7 42 15 10 8 28 15 40 15 11 0 29 7 40 15 10 8 25 15 32 15 12 0 187 79 222 100 8 5 38 21 65 35 73 38 215 128 252 160 19 16 33 27 99 77 141 108 318 303 449 493 42 62 175 290 175 301 0 2 14 34 31 71 47 103 63 140 103 235 14 31 28 71 56 148 6 19 15 51 19 70 4 19 13 45 19 57 7 12 12 35 12 51 0 16 7 46 15 65 8 20 15 56 15 79 1 24 7 70 15 103 19 77 19 166 1 210 -27 63 -41 44 -50 -65 -23 -266 -76 -508 -109 -497 -18 5 -21 75 -4 100 8 12 17 52 20 89 3 38 11 77 17 87 5 11 10 42 10 68 0 27 7 103 15 168 12 96 13 148 5 260 -10 146 -32 295 -55 380 -7 28 -17 66 -23 86 -5 20 -5 45 0 59 19 51 13 85 -20 117 -22 20 -35 46 -43 79 -5 27 -14 67 -19 89 -4 22 -13 41 -19 43 -6 2 -11 17 -11 33 0 17 -6 32 -15 35 -8 4 -15 14 -15 23 0 9 -13 31 -29 48 -15 17 -39 49 -52 70 -12 21 -25 40 -29 43 -3 3 -18 23 -33 46 -15 22 -36 50 -47 62 -11 12 -20 24 -20 28 0 7 -49 72 -102 133 -22 25 -37 50 -34 58 6 16 -10 27 -19 13 -6 -10 -85 43 -93 62 -5 12 -22 10 -22 -2z"/> <path d="M5450 6333 c0 -5 4 -14 9 -21 7 -11 9 -11 14 1 3 8 3 18 0 21 -9 8 -23 7 -23 -1z"/> <path d="M5482 6279 c2 -7 10 -15 17 -17 8 -3 12 1 9 9 -2 7 -10 15 -17 17 -8 3 -12 -1 -9 -9z"/> <path d="M5575 6250 c-8 -13 4 -50 16 -50 5 0 9 14 9 30 0 30 -13 40 -25 20z"/> <path d="M5576 6104 c-8 -20 0 -32 14 -18 5 5 5 15 1 22 -6 11 -10 10 -15 -4z"/> <path d="M5604 6046 c-8 -21 3 -49 16 -41 5 3 10 15 10 25 0 25 -18 36 -26 16z"/> <path d="M5635 5981 c-8 -14 5 -62 16 -55 12 7 12 51 0 59 -5 3 -12 1 -16 -4z"/> <path d="M5666 5895 c-7 -19 3 -47 15 -39 5 3 9 14 9 24 0 24 -16 34 -24 15z"/> <path d="M5694 5806 c-8 -21 3 -66 16 -66 13 0 13 67 0 75 -6 3 -13 -1 -16 -9z"/> <path d="M3933 5799 c-23 -4 -51 -13 -62 -18 -11 -6 -30 -11 -43 -11 -13 0 -36 -7 -52 -15 -15 -8 -38 -15 -50 -15 -11 0 -32 -12 -45 -25 -13 -14 -27 -25 -33 -25 -15 0 -178 -161 -204 -202 -13 -21 -24 -46 -24 -56 0 -9 -6 -26 -14 -37 -20 -30 -58 -143 -51 -154 8 -13 -21 -81 -34 -81 -6 0 -14 12 -17 28 -4 15 -11 32 -15 38 -8 10 -17 58 -54 294 -19 122 -45 182 -97 223 -47 38 -69 33 -139 -35 -53 -51 -69 -72 -126 -172 -15 -26 -40 -69 -55 -95 -15 -25 -35 -62 -45 -81 -9 -19 -29 -51 -43 -70 -14 -19 -36 -57 -50 -83 -14 -27 -36 -62 -50 -79 -22 -27 -28 -29 -50 -18 -24 11 -34 22 -82 100 -11 19 -42 67 -67 106 -49 76 -60 95 -132 218 -48 81 -125 179 -169 211 -85 65 -168 -33 -201 -235 -20 -129 -41 -276 -44 -320 -2 -25 -6 -67 -9 -95 -3 -27 -11 -88 -16 -135 -23 -198 -52 -330 -71 -330 -5 0 -9 -5 -9 -11 0 -6 -13 -26 -29 -45 -20 -22 -28 -40 -24 -53 8 -30 21 -26 25 6 3 27 5 28 59 28 40 0 60 5 73 18 21 20 41 115 55 252 14 136 31 261 47 348 8 42 14 96 14 120 0 23 7 74 15 112 8 39 15 106 16 150 1 127 10 169 36 173 17 3 24 -3 29 -25 6 -25 27 -67 83 -166 20 -36 29 -51 64 -104 15 -24 27 -45 27 -48 0 -3 20 -34 44 -69 24 -36 47 -74 51 -85 3 -12 10 -21 15 -21 4 0 10 -8 14 -17 3 -10 15 -31 26 -48 11 -16 24 -39 30 -50 6 -11 19 -33 30 -50 11 -16 23 -37 27 -45 4 -8 19 -37 35 -63 15 -26 28 -55 28 -63 0 -9 7 -14 18 -12 14 3 35 36 102 163 6 11 19 34 30 50 11 17 23 37 27 45 4 8 26 47 50 86 24 39 43 77 43 83 0 6 4 11 9 11 5 0 14 12 20 28 6 15 20 41 31 57 11 17 24 39 30 50 6 11 19 34 30 50 10 17 29 50 42 75 12 25 32 61 44 80 11 19 24 48 28 63 5 20 12 27 24 25 18 -3 19 -8 41 -233 6 -60 15 -126 21 -145 5 -19 10 -55 10 -80 0 -25 6 -83 14 -130 20 -116 37 -240 46 -335 12 -124 32 -208 54 -230 16 -15 34 -20 73 -19 29 0 55 3 59 6 3 4 -4 21 -16 38 -12 17 -27 48 -32 68 -10 36 -28 204 -23 210 2 2 28 -40 59 -92 79 -134 195 -251 296 -299 138 -65 220 -86 378 -93 65 -3 122 -6 127 -6 35 -2 223 55 275 83 92 49 170 130 205 212 18 43 8 191 -17 257 -44 114 -58 91 -58 -94 l0 -138 -72 -72 c-100 -99 -191 -139 -343 -150 -118 -9 -284 14 -375 52 -14 6 -32 13 -40 16 -8 4 -28 15 -45 26 -16 11 -37 23 -45 27 -40 17 -142 127 -163 173 -4 8 -11 22 -15 30 -38 66 -72 203 -72 290 0 83 38 246 71 300 5 8 12 22 16 30 22 47 139 160 196 188 26 13 49 27 52 33 4 5 13 9 22 9 8 0 29 6 46 14 106 45 352 61 479 31 90 -22 168 -47 203 -66 l30 -16 6 -124 c7 -135 14 -169 35 -169 21 0 42 61 61 173 14 88 -57 205 -147 244 -103 45 -172 56 -355 58 -99 2 -199 -1 -222 -6z m-603 -656 c0 -5 -5 -15 -10 -23 -8 -12 -10 -11 -10 8 0 12 5 22 10 22 6 0 10 -3 10 -7z"/> <path d="M5720 5676 c0 -26 6 -51 15 -60 9 -9 15 -33 15 -63 0 -26 3 -58 6 -70 12 -45 24 -22 24 47 0 54 -4 72 -15 76 -11 5 -15 21 -15 60 0 41 -4 54 -15 54 -11 0 -15 -12 -15 -44z"/> <path d="M4055 5630 c-73 -11 -150 -56 -206 -119 -27 -30 -49 -60 -49 -67 0 -6 -7 -17 -15 -24 -8 -7 -15 -22 -15 -34 0 -12 -5 -27 -12 -34 -6 -6 -15 -35 -20 -64 -43 -269 1 -484 126 -612 89 -90 217 -129 350 -106 106 18 154 40 211 95 76 73 115 167 115 277 l0 67 33 3 c33 3 41 20 11 26 -43 9 -74 -27 -149 -177 -82 -164 -215 -228 -369 -180 -163 51 -236 194 -237 466 -1 54 31 185 56 234 21 40 103 117 144 135 55 23 130 27 195 10 79 -21 96 -33 202 -142 91 -94 119 -110 143 -80 10 12 7 15 -21 18 -31 3 -33 6 -36 43 -4 60 -48 140 -106 190 -28 25 -56 45 -62 45 -6 0 -24 6 -40 14 -36 18 -182 28 -249 16z"/> <path d="M5781 5378 c0 -87 13 -160 23 -137 12 27 2 202 -11 207 -10 3 -13 -15 -12 -70z"/> <path d="M2872 5129 c-52 -104 -95 -182 -104 -189 -4 -3 -12 -17 -18 -30 -5 -14 -19 -38 -30 -55 -11 -16 -24 -39 -30 -50 -6 -11 -19 -33 -30 -50 -11 -16 -31 -52 -45 -80 -14 -27 -30 -57 -34 -65 -14 -24 -31 -85 -31 -107 0 -28 -23 -46 -38 -31 -7 7 -12 17 -12 23 0 13 -51 114 -80 160 -11 17 -24 39 -30 50 -6 11 -19 34 -30 50 -11 17 -24 39 -30 50 -6 11 -19 34 -30 50 -11 17 -24 39 -30 50 -6 11 -20 36 -31 55 -63 102 -119 213 -119 232 0 19 -25 1 -32 -23 -4 -13 -12 -91 -18 -174 -6 -82 -18 -191 -26 -241 -17 -112 -18 -180 -2 -190 7 -4 28 -10 48 -14 27 -4 36 -11 38 -28 2 -13 9 -21 15 -19 13 4 13 33 2 80 -4 15 -4 70 0 122 7 95 7 95 34 95 24 0 36 -14 92 -101 112 -175 160 -236 214 -269 32 -19 36 -20 62 -6 34 19 73 52 73 62 0 4 10 21 23 38 27 35 89 139 123 204 22 44 61 92 75 92 25 0 43 -191 25 -269 -12 -49 9 -79 78 -112 57 -28 66 -29 198 -29 115 0 145 3 176 19 20 10 49 21 65 25 33 8 36 26 3 26 -13 0 -43 7 -66 15 -30 11 -84 15 -182 15 -101 0 -148 -4 -175 -15 -65 -27 -91 -17 -73 29 7 20 16 26 39 26 52 0 64 23 57 105 -4 40 -11 87 -16 106 -6 19 -10 61 -10 94 0 33 -7 105 -14 160 -7 55 -11 114 -9 130 2 17 -2 38 -10 49 -13 17 -17 12 -55 -65z"/> <path d="M5962 4564 c4 -21 22 -23 26 -1 2 10 -3 17 -13 17 -10 0 -15 -6 -13 -16z"/> <path d="M3420 4520 c0 -16 5 -30 10 -30 6 0 10 14 10 30 0 17 -4 30 -10 30 -5 0 -10 -13 -10 -30z"/> <path d="M1851 4495 c-18 -8 -44 -15 -58 -15 -40 0 -21 -22 33 -37 86 -25 172 -27 233 -6 30 10 56 23 58 28 5 17 -101 45 -168 45 -35 -1 -79 -7 -98 -15z"/> <path d="M5936 4493 c-12 -12 -6 -33 9 -33 8 0 15 6 15 14 0 17 -14 28 -24 19z"/> <path d="M6117 4423 c-13 -13 -7 -53 8 -53 10 0 15 10 15 30 0 29 -9 38 -23 23z"/> <path d="M5896 4324 c-8 -31 5 -49 29 -40 11 4 15 15 13 33 -4 38 -33 42 -42 7z"/> <path d="M6050 4184 c0 -45 24 -42 28 4 2 24 -1 32 -12 32 -12 0 -16 -10 -16 -36z"/> <path d="M920 4176 c0 -9 7 -16 16 -16 9 0 14 5 12 12 -6 18 -28 21 -28 4z"/> <path d="M557 4063 c-3 -26 0 -42 10 -49 8 -7 17 -28 20 -48 3 -20 10 -36 14 -36 5 0 9 -6 9 -12 0 -19 43 -118 51 -118 9 0 49 -77 49 -95 0 -8 4 -15 8 -15 5 0 17 -19 27 -42 10 -24 40 -74 67 -113 26 -38 48 -73 48 -78 0 -9 17 -30 43 -55 9 -9 17 -21 17 -27 0 -5 18 -30 40 -54 22 -25 40 -48 40 -52 0 -4 10 -19 23 -33 12 -13 45 -49 72 -80 28 -31 89 -97 138 -147 48 -50 87 -95 87 -100 0 -5 9 -9 20 -9 26 0 25 10 -5 42 -14 15 -25 30 -25 33 0 8 -73 75 -82 75 -5 0 -8 5 -8 10 0 6 -20 30 -45 53 -25 24 -45 46 -45 50 0 3 -12 19 -26 34 -15 15 -43 48 -63 73 -20 25 -42 49 -48 53 -7 4 -13 14 -13 22 0 7 -3 15 -7 17 -11 4 -53 65 -53 75 0 5 -12 22 -27 39 -39 43 -72 99 -97 164 -4 8 -15 29 -26 45 -11 17 -24 40 -29 52 -5 11 -15 24 -20 28 -6 3 -11 14 -11 24 0 10 -7 24 -15 31 -8 7 -15 20 -15 30 0 10 -6 23 -14 29 -8 6 -16 24 -19 39 -7 39 -32 101 -45 114 -7 7 -12 25 -12 40 0 43 -27 35 -33 -9z"/> <path d="M5814 4075 c-3 -8 -3 -19 1 -25 11 -18 25 -11 25 15 0 27 -17 34 -26 10z"/> <path d="M920 4040 c0 -21 4 -30 13 -27 6 2 12 14 12 27 0 13 -6 25 -12 28 -9 2 -13 -7 -13 -28z"/> <path d="M980 4026 c0 -8 5 -18 10 -21 6 -3 10 3 10 14 0 12 -4 21 -10 21 -5 0 -10 -6 -10 -14z"/> <path d="M1012 3966 c1 -10 8 -17 13 -17 15 1 12 24 -3 29 -9 3 -13 -2 -10 -12z"/> <path d="M1040 3910 c0 -11 6 -23 14 -26 8 -3 17 -16 20 -30 4 -13 11 -24 16 -24 16 0 11 40 -5 46 -8 4 -15 17 -15 30 0 15 -6 24 -15 24 -8 0 -15 -9 -15 -20z"/> <path d="M1102 3804 c1 -9 9 -19 16 -22 9 -3 13 2 10 14 -1 9 -9 19 -16 22 -9 3 -13 -2 -10 -14z"/> <path d="M1132 3756 c1 -10 8 -17 13 -17 15 1 12 24 -3 29 -9 3 -13 -2 -10 -12z"/> <path d="M897 3304 c-12 -13 -8 -42 8 -48 8 -3 15 -11 15 -18 0 -8 12 -25 28 -39 15 -14 34 -35 42 -48 23 -35 147 -161 159 -161 6 0 27 -22 47 -49 19 -28 48 -56 64 -63 17 -7 30 -19 30 -25 0 -7 9 -13 20 -13 27 0 25 18 -2 29 -13 5 -32 25 -42 45 -11 20 -22 36 -25 36 -10 0 -51 41 -126 126 -67 76 -86 97 -172 192 -21 24 -42 40 -46 36z"/> <path d="M5062 3093 c2 -10 10 -18 18 -18 8 0 16 8 18 18 2 12 -3 17 -18 17 -15 0 -20 -5 -18 -17z"/> <path d="M4760 2775 c-20 -24 4 -45 26 -24 13 14 13 17 1 27 -11 10 -17 9 -27 -3z"/> <path d="M1365 2771 c-3 -5 6 -20 20 -33 13 -13 39 -36 56 -53 18 -16 47 -37 66 -47 31 -17 34 -17 40 -1 4 9 1 19 -5 21 -15 5 -136 104 -140 115 -5 10 -30 9 -37 -2z"/> <path d="M1646 2562 c-3 -5 5 -21 17 -36 23 -28 57 -28 57 0 0 25 -62 56 -74 36z"/> <path d="M1762 2483 c5 -25 28 -28 28 -4 0 12 -6 21 -16 21 -9 0 -14 -7 -12 -17z"/> <path d="M4542 2473 c-6 -2 -10 -9 -6 -14 9 -14 41 -10 48 6 5 15 -15 19 -42 8z"/> <path d="M2177 2444 c-13 -13 -7 -24 14 -24 11 0 19 5 17 12 -5 14 -22 21 -31 12z"/> <path d="M3045 2410 c-8 -12 20 -24 35 -15 6 3 8 11 5 16 -8 12 -32 12 -40 -1z"/> <path d="M2395 2379 c-10 -15 1 -23 20 -15 9 3 13 10 10 16 -8 13 -22 13 -30 -1z"/> <path d="M2327 2324 c-9 -10 2 -24 19 -24 8 0 14 7 14 15 0 15 -21 21 -33 9z"/> <path d="M3080 2285 c0 -11 7 -15 23 -13 12 2 22 8 22 13 0 6 -10 11 -22 13 -16 2 -23 -2 -23 -13z"/> <path d="M2985 2260 c-8 -13 20 -24 41 -16 20 8 9 26 -16 26 -10 0 -22 -5 -25 -10z"/> <path d="M2657 2144 c-9 -10 2 -24 19 -24 8 0 14 7 14 15 0 15 -21 21 -33 9z"/> <path d="M2723 2123 c-18 -7 -16 -30 3 -37 9 -3 41 -6 73 -6 31 0 62 -5 67 -10 6 -6 51 -12 100 -13 83 -2 89 -1 89 18 0 18 -7 20 -80 21 -56 0 -89 5 -110 17 -28 16 -113 22 -142 10z"/> <path d="M2225 1880 c-17 -3 -41 -13 -54 -22 -21 -15 -25 -26 -25 -67 0 -59 20 -86 70 -95 58 -11 101 2 124 39 26 42 25 57 -4 104 -26 41 -53 51 -111 41z"/> <path d="M8455 1883 c-27 -2 -54 -8 -58 -12 -5 -5 -1 -36 8 -69 24 -84 20 -90 -62 -94 l-68 -3 1 -58 c2 -76 9 -82 75 -68 68 15 77 7 61 -56 -16 -67 -18 -229 -2 -280 28 -93 124 -144 221 -120 49 13 119 62 119 84 0 8 -13 28 -30 46 -16 18 -30 38 -30 45 0 21 -23 13 -56 -19 -38 -37 -55 -34 -77 13 -13 27 -15 57 -10 171 l6 139 78 -3 c43 -2 83 1 88 6 6 6 7 35 4 69 l-6 58 -73 -4 c-40 -3 -78 -2 -84 2 -8 5 -8 25 0 74 6 37 8 71 5 77 -4 5 -18 8 -33 7 -15 -1 -49 -3 -77 -5z m33 -225 c-6 -18 -28 -21 -28 -4 0 9 7 16 16 16 9 0 14 -5 12 -12z"/> <path d="M4785 1825 c-66 -17 -100 -36 -136 -76 -96 -107 -115 -306 -46 -461 39 -87 175 -164 273 -155 65 7 158 50 207 97 l38 36 -56 57 c-31 31 -60 57 -66 57 -5 0 -26 -15 -45 -34 -57 -55 -133 -59 -171 -7 -28 37 -53 150 -43 198 17 85 37 121 82 144 35 18 40 18 78 3 22 -9 40 -19 40 -23 0 -3 10 -19 23 -34 l22 -29 26 24 c15 13 41 35 58 50 40 34 39 50 -6 86 -55 42 -81 55 -143 69 -66 14 -72 14 -135 -2z"/> <path d="M273 1792 c-9 -6 -12 -90 -14 -324 0 -174 1 -321 4 -325 7 -11 137 -7 148 4 5 5 3 97 -3 206 -8 147 -9 200 0 209 20 20 42 -10 42 -56 0 -23 4 -46 9 -51 5 -6 15 -44 21 -85 34 -221 32 -216 85 -221 47 -4 74 9 80 39 3 15 12 47 19 72 23 76 35 123 41 163 3 20 10 37 15 37 6 0 10 10 10 23 0 31 15 51 34 44 20 -8 21 -60 2 -142 -8 -33 -16 -100 -18 -150 l-3 -90 55 -2 c30 -2 60 -5 67 -7 33 -13 37 23 37 312 1 158 -2 299 -6 313 -7 25 -12 26 -95 33 -47 3 -90 3 -94 -1 -4 -5 -13 -30 -19 -58 -7 -27 -17 -66 -23 -85 -14 -46 -26 -100 -41 -185 -10 -61 -15 -70 -32 -67 -27 5 -26 5 -36 74 -5 34 -12 76 -17 93 -18 61 -33 121 -40 168 -4 27 -14 53 -22 58 -17 11 -189 12 -206 1z"/> <path d="M1740 1712 c-65 -31 -95 -59 -108 -102 -21 -68 14 -155 73 -181 11 -5 27 -13 35 -18 8 -5 44 -23 80 -41 76 -38 103 -65 94 -94 -9 -31 -10 -31 -77 -31 -56 0 -67 4 -111 38 -71 54 -80 51 -116 -35 -7 -16 -16 -28 -22 -28 -5 0 -8 -10 -6 -22 9 -65 281 -131 344 -83 10 8 26 15 34 15 46 2 100 88 100 161 0 99 -34 130 -232 218 -51 22 -66 49 -46 80 19 31 97 29 146 -4 56 -38 54 -39 103 53 17 30 2 55 -37 63 -16 3 -39 11 -51 17 -32 18 -161 14 -203 -6z"/> <path d="M7948 1705 c-81 -23 -137 -75 -171 -163 -22 -55 -23 -200 -2 -228 8 -10 15 -27 15 -36 0 -32 93 -112 152 -130 69 -23 82 -22 157 2 77 24 140 68 141 96 0 18 -89 124 -105 124 -3 0 -19 -14 -35 -31 -24 -27 -35 -31 -78 -32 -31 -1 -55 5 -63 14 -36 37 -49 70 -49 126 0 50 4 64 31 96 28 34 34 37 84 37 43 0 56 -4 65 -19 17 -33 44 -34 94 -4 25 15 45 33 45 38 0 30 -87 96 -148 112 -55 15 -72 14 -133 -2z"/> <path d="M2595 1700 c-90 -18 -150 -139 -142 -290 5 -121 37 -190 105 -231 49 -30 179 -34 209 -6 11 9 27 17 36 17 15 0 17 -15 17 -133 0 -154 -2 -151 103 -161 72 -8 76 -1 53 100 -22 101 -22 365 1 551 9 79 15 145 12 147 -2 2 -36 6 -74 8 l-70 3 -3 -32 c-2 -21 -9 -33 -18 -33 -8 0 -14 4 -14 9 0 5 -15 18 -32 29 -38 23 -126 34 -183 22z m207 -171 c27 -20 28 -21 22 -97 -8 -97 -30 -122 -111 -122 -47 0 -54 3 -82 37 -26 31 -31 46 -31 88 0 53 25 103 57 117 29 12 114 -1 145 -23z"/> <path d="M3842 1678 c-57 -26 -115 -85 -141 -143 -16 -37 -21 -67 -20 -134 0 -74 4 -93 27 -136 57 -104 198 -150 343 -112 59 16 139 66 139 87 0 21 -83 110 -103 110 -8 0 -21 -7 -28 -17 -8 -9 -28 -22 -46 -30 -67 -28 -136 -11 -172 42 -20 30 -22 37 -10 51 12 15 35 16 186 12 l173 -5 0 70 c0 73 -13 108 -60 160 -59 66 -196 88 -288 45z m184 -109 c17 -15 24 -32 22 -49 -3 -24 -5 -25 -83 -26 -44 0 -90 -4 -102 -8 -31 -10 -38 10 -17 50 35 65 128 82 180 33z"/> <path d="M5314 1669 c-49 -23 -70 -41 -100 -85 l-39 -56 1 -112 c1 -94 4 -117 23 -152 27 -52 71 -94 118 -112 57 -23 186 -27 224 -8 18 9 38 16 44 16 14 0 78 67 93 97 5 10 15 44 22 76 11 47 11 69 0 130 -15 81 -31 117 -75 165 -71 78 -200 95 -311 41z m190 -110 c73 -58 77 -208 7 -258 -19 -14 -45 -21 -74 -21 -40 0 -49 4 -76 37 -29 35 -31 43 -31 114 0 73 1 77 35 112 43 45 95 50 139 16z"/> <path d="M6079 1672 c-26 -15 -58 -35 -72 -45 -31 -22 -52 -15 -35 12 24 39 5 51 -82 51 l-80 0 0 -202 c0 -151 -4 -218 -16 -265 -23 -91 -21 -93 81 -93 l85 0 1 63 c1 34 4 114 8 177 l6 115 55 32 c70 43 129 45 159 7 29 -37 35 -113 17 -249 -9 -65 -16 -125 -16 -132 0 -10 21 -13 79 -13 66 0 80 3 86 18 4 9 10 91 13 181 7 234 -14 308 -98 351 -57 29 -133 26 -191 -8z"/> <path d="M6553 1692 l-51 -3 -6 -237 c-3 -130 -7 -255 -8 -277 l-3 -40 81 -3 82 -3 8 138 c5 76 8 147 7 158 -4 44 8 64 57 94 65 40 126 42 159 7 29 -31 37 -111 22 -224 -7 -48 -13 -105 -14 -127 l-2 -40 80 0 c98 0 93 -11 94 220 1 231 -15 282 -101 326 -70 36 -156 20 -239 -43 -48 -37 -57 -35 -55 9 1 33 -2 37 -29 42 -16 3 -53 5 -82 3z"/> <path d="M7354 1685 c-10 -8 -26 -15 -34 -15 -18 0 -100 -71 -100 -86 0 -5 -5 -15 -12 -22 -33 -33 -47 -168 -25 -249 15 -60 98 -147 148 -157 122 -26 221 -14 302 37 58 36 58 54 -3 119 l-39 43 -28 -21 c-69 -49 -149 -56 -202 -17 -32 25 -49 72 -30 85 8 5 87 8 177 6 193 -4 189 -6 171 99 -17 100 -35 125 -126 175 -42 23 -170 25 -199 3z m177 -127 c10 -13 18 -32 16 -43 -2 -18 -10 -20 -82 -22 -44 -1 -91 -4 -105 -5 -59 -7 -25 72 43 101 37 16 46 17 75 5 19 -7 42 -24 53 -36z"/> <path d="M1018 1674 c-5 -4 -8 -78 -8 -164 0 -132 3 -167 22 -225 43 -138 164 -203 302 -163 47 14 113 61 127 92 5 12 13 28 18 36 5 8 16 38 25 65 20 62 23 324 4 343 -19 19 -157 16 -164 -3 -4 -8 1 -51 10 -94 14 -72 14 -87 0 -163 -17 -95 -36 -125 -81 -134 -26 -5 -36 -2 -56 20 -44 47 -66 233 -38 331 7 26 7 43 0 50 -12 12 -151 20 -161 9z"/> <path d="M3087 1673 c-4 -3 -7 -83 -7 -176 0 -174 1 -180 48 -275 30 -63 120 -112 202 -112 84 0 179 55 211 121 36 77 42 109 46 259 6 186 8 182 -99 178 l-73 -3 3 -45 c2 -25 4 -94 5 -155 1 -89 -2 -117 -17 -148 -21 -42 -54 -60 -91 -51 -36 9 -53 44 -71 145 -15 90 -13 142 12 226 5 18 1 25 -21 33 -29 11 -138 14 -148 3z"/> <path d="M2184 1613 c-11 -8 -28 -242 -29 -403 l0 -75 65 -3 c109 -5 105 -14 105 255 l0 228 -65 3 c-36 1 -70 -1 -76 -5z"/> <path d="M1133 663 c-18 -7 -16 -48 2 -63 13 -10 19 -10 35 5 25 23 25 41 1 55 -11 5 -21 10 -23 9 -2 0 -9 -3 -15 -6z"/> <path d="M2739 640 c-17 -16 -28 -34 -24 -40 19 -30 102 19 90 53 -10 25 -33 21 -66 -13z"/> <path d="M1947 654 c-4 -4 -7 -27 -7 -51 l0 -43 -40 0 c-52 0 -78 -26 -91 -94 -16 -76 2 -159 41 -186 33 -23 46 -24 80 -5 18 10 29 10 38 3 8 -7 16 -7 22 -2 4 5 10 92 11 194 l3 185 -25 3 c-14 2 -28 0 -32 -4z m-27 -144 c22 -12 33 -85 22 -145 -6 -32 -12 -41 -32 -43 -36 -6 -50 22 -50 97 0 46 5 70 17 83 19 21 19 21 43 8z"/> <path d="M2539 648 c-1 -7 -2 -31 -3 -53 l-1 -39 -40 2 c-48 3 -68 -11 -89 -62 -30 -73 -13 -175 37 -217 24 -20 57 -24 73 -10 5 5 24 11 42 13 l33 3 2 185 2 185 -27 3 c-18 2 -28 -2 -29 -10z m-17 -145 c14 -12 18 -31 18 -80 0 -72 -12 -103 -40 -103 -36 0 -50 27 -50 95 0 53 4 68 22 85 26 24 27 24 50 3z"/> <path d="M297 630 c-55 -35 -71 -75 -72 -176 0 -84 2 -93 27 -127 30 -39 78 -67 114 -67 13 0 39 9 58 21 32 19 37 19 42 5 3 -9 13 -16 20 -16 12 0 14 18 12 98 l-3 97 -73 3 c-72 3 -73 2 -70 -20 2 -19 10 -24 43 -26 44 -4 58 -17 49 -47 -18 -60 -91 -76 -134 -30 -21 23 -24 35 -24 110 0 75 3 87 24 110 17 18 34 25 59 25 44 0 54 -7 72 -45 8 -18 23 -31 37 -33 19 -3 22 1 22 30 -1 85 -125 139 -203 88z"/> <path d="M3505 628 c-2 -7 -5 -26 -7 -42 -3 -28 -4 -29 -73 -30 l-70 -1 -3 -120 c-3 -147 0 -165 33 -165 l25 0 0 110 0 110 36 15 c20 8 40 12 45 9 5 -3 9 -54 9 -113 0 -92 3 -110 18 -124 23 -21 58 -22 66 -2 7 20 -2 42 -20 49 -10 4 -14 26 -14 87 0 66 4 85 21 107 l20 26 -21 16 c-15 11 -19 22 -14 34 5 13 1 23 -11 32 -23 17 -34 18 -40 2z"/> <path d="M4696 632 c-17 -27 -31 -91 -25 -112 4 -14 7 -65 8 -113 1 -108 18 -150 59 -145 35 4 45 52 13 61 -19 5 -21 13 -21 85 0 66 3 82 20 97 26 23 25 41 -1 55 -13 7 -18 17 -15 27 13 33 -21 73 -38 45z"/> <path d="M1010 606 c0 -14 -5 -37 -12 -51 -9 -19 -9 -28 0 -37 8 -8 12 -50 12 -115 0 -90 3 -106 20 -123 27 -27 57 -26 66 2 5 16 1 26 -15 36 -19 13 -21 24 -21 95 0 70 3 84 23 105 20 22 21 25 5 36 -9 6 -18 25 -20 41 -2 24 -8 31 -30 33 -24 3 -28 0 -28 -22z"/> <path d="M623 562 c-47 -15 -63 -53 -63 -149 1 -54 5 -94 13 -103 20 -25 65 -50 89 -50 37 1 77 40 80 80 4 45 -21 51 -44 10 -22 -38 -59 -40 -82 -5 -29 45 -22 55 40 55 30 0 64 5 75 11 18 9 20 17 14 61 -10 74 -59 110 -122 90z m61 -61 c31 -34 17 -56 -33 -56 -52 0 -59 12 -31 48 25 32 41 34 64 8z"/> <path d="M840 557 c-32 -16 -52 -55 -44 -87 8 -33 21 -49 58 -65 53 -22 69 -39 62 -63 -11 -32 -54 -29 -83 6 -22 26 -23 26 -38 8 -11 -14 -12 -24 -3 -40 40 -79 140 -71 169 13 15 41 -14 92 -59 107 -42 13 -66 38 -59 58 12 31 39 31 63 1 14 -18 28 -26 38 -22 22 9 20 31 -6 61 -28 31 -65 40 -98 23z"/> <path d="M1277 562 c-39 -17 -57 -63 -57 -148 0 -78 1 -83 33 -118 37 -40 64 -45 108 -19 34 20 50 62 51 132 0 68 -10 109 -34 133 -21 21 -73 32 -101 20z m66 -60 c45 -49 24 -182 -27 -182 -14 0 -29 8 -34 18 -27 51 -19 145 14 169 23 17 28 16 47 -5z"/> <path d="M1528 556 c-16 -9 -30 -11 -33 -5 -4 5 -13 9 -21 9 -11 0 -14 -25 -14 -144 0 -84 4 -147 10 -151 5 -3 19 -1 31 6 20 10 21 16 15 85 -8 92 -1 136 27 153 37 23 49 -9 45 -120 -2 -70 1 -101 11 -113 39 -47 55 1 49 149 -3 92 -4 98 -31 121 -32 28 -51 30 -89 10z"/> <path d="M2115 561 c-49 -21 -60 -47 -60 -148 l0 -95 35 -29 c41 -34 71 -37 111 -8 36 26 50 50 42 77 -8 31 -28 27 -53 -8 -27 -38 -63 -40 -87 -4 -27 42 -9 58 64 55 72 -3 83 8 75 76 -6 65 -71 108 -127 84z m61 -66 c25 -38 12 -57 -38 -53 -49 4 -56 15 -28 51 27 34 45 34 66 2z"/> <path d="M2966 563 c-4 -4 -24 -7 -44 -8 l-37 0 -5 -175 c-3 -96 -4 -180 -2 -187 5 -15 41 -28 50 -18 4 4 6 29 5 55 -2 53 7 69 27 45 43 -52 120 47 120 153 -1 53 -34 120 -65 132 -31 12 -39 12 -49 3z m52 -143 c3 -75 -6 -100 -39 -100 -34 0 -49 28 -49 93 0 49 4 65 22 84 19 20 24 22 42 9 18 -11 21 -26 24 -86z"/> <path d="M3168 562 c-25 -11 -61 -61 -54 -77 9 -24 38 -17 62 13 18 22 26 25 40 16 48 -29 43 -74 -8 -74 -32 0 -74 -21 -90 -44 -4 -6 -8 -30 -8 -53 0 -33 5 -46 26 -62 31 -25 67 -27 84 -6 16 19 29 19 51 -1 10 -9 25 -14 34 -11 19 8 19 41 0 57 -11 10 -15 35 -15 110 0 82 -3 99 -19 114 -21 19 -78 29 -103 18z m77 -173 c4 -5 1 -24 -5 -40 -11 -25 -18 -30 -44 -27 -37 4 -46 30 -20 59 19 21 59 26 69 8z"/> <path d="M3685 563 c-80 -20 -103 -210 -33 -275 38 -35 77 -36 117 -2 24 19 31 34 31 60 0 43 -24 46 -45 4 -26 -50 -95 -30 -95 28 0 20 5 22 54 22 81 0 86 4 86 64 -1 34 -7 58 -18 72 -19 23 -64 35 -97 27z m60 -69 c25 -38 13 -54 -40 -54 -52 0 -60 18 -23 57 28 30 42 29 63 -3z"/> <path d="M3940 562 c-8 -3 -18 -9 -21 -14 -4 -6 -15 -5 -27 3 -12 7 -23 11 -26 9 -2 -3 -6 -67 -7 -142 -3 -103 0 -140 9 -150 11 -11 16 -9 27 6 11 15 13 39 9 105 -6 78 -4 88 16 113 17 23 25 26 40 18 17 -9 20 -24 22 -127 3 -119 10 -139 40 -109 12 12 14 34 10 109 -4 87 -3 96 17 116 18 18 25 20 37 10 11 -9 14 -39 14 -126 l0 -114 28 3 27 3 3 110 c4 121 -10 168 -52 179 -30 7 -63 -3 -71 -21 -5 -14 -7 -14 -23 -1 -20 18 -51 27 -72 20z"/> <path d="M4270 563 c-42 -17 -70 -79 -70 -154 0 -81 46 -148 103 -149 35 0 97 54 97 86 0 43 -39 42 -58 -2 -22 -47 -96 -20 -90 34 3 23 7 25 64 27 75 3 84 8 84 47 0 81 -64 136 -130 111z m53 -55 c9 -7 18 -24 19 -38 3 -23 0 -25 -42 -25 -53 0 -64 21 -29 54 27 25 30 25 52 9z"/> <path d="M4523 555 c-14 -10 -24 -12 -28 -5 -3 5 -14 10 -25 10 -16 0 -18 -12 -22 -132 -4 -135 1 -168 27 -168 18 0 19 3 20 122 0 86 3 100 21 119 18 18 25 19 43 9 21 -11 22 -17 20 -121 -2 -116 6 -144 36 -119 12 10 15 34 15 109 0 120 -13 169 -46 181 -33 13 -36 13 -61 -5z"/> <path d="M1130 416 c0 -80 4 -147 9 -150 4 -3 15 2 22 12 11 13 14 47 11 150 -3 122 -5 132 -23 132 -18 0 -19 -9 -19 -144z"/> <path d="M2677 542 c-25 -27 -37 -69 -37 -128 0 -119 71 -186 146 -138 46 31 70 116 27 100 -8 -3 -17 -6 -19 -6 -3 0 -9 -11 -14 -25 -19 -49 -95 -21 -88 33 3 23 7 25 66 27 35 2 69 8 75 14 14 14 -6 97 -30 123 -22 25 -104 25 -126 0z m84 -32 c12 -7 19 -21 19 -40 0 -29 -2 -30 -45 -30 -41 0 -45 2 -45 24 0 14 10 32 22 40 27 19 24 19 49 6z"/> </g> </svg> 