 <svg  version="1.0" xmlns="http://www.w3.org/2000/svg"  width="900.000000pt" height="900.000000pt" viewBox="0 0 900.000000 900.000000"  preserveAspectRatio="xMidYMid meet">  <g transform="translate(0.000000,900.000000) scale(0.100000,-0.100000)" fill="#ffffff" stroke="none"> <path d="M4660 8610 c-14 -4 -67 -5 -118 -2 -128 7 -507 -34 -677 -73 -38 -9 -107 -21 -152 -28 -45 -7 -88 -18 -95 -24 -6 -7 -25 -13 -41 -13 -15 0 -38 -5 -49 -11 -23 -12 -169 -55 -238 -70 -25 -6 -57 -16 -72 -24 -14 -8 -33 -15 -41 -15 -9 0 -28 -6 -44 -14 -15 -8 -44 -21 -63 -29 -19 -8 -69 -29 -110 -47 -103 -45 -132 -58 -150 -64 -8 -4 -33 -17 -55 -31 -22 -13 -48 -24 -58 -25 -9 0 -34 -11 -55 -24 -20 -14 -49 -28 -64 -31 -29 -7 -38 -30 -15 -38 6 -3 -12 -3 -40 0 -36 4 -58 2 -69 -8 -19 -15 -50 -34 -81 -48 -26 -12 -20 -51 8 -51 11 0 19 -7 19 -15 0 -8 -5 -15 -12 -15 -6 0 -18 -7 -27 -15 -39 -37 -143 -105 -152 -99 -6 4 -2 14 10 25 12 11 21 27 21 35 0 8 13 20 30 25 17 6 30 15 30 20 0 5 11 9 24 9 33 0 43 18 20 35 -25 19 -23 20 -69 -21 -22 -19 -52 -43 -67 -52 -16 -9 -28 -19 -28 -23 0 -14 -106 -87 -135 -93 -18 -4 -42 -21 -58 -41 -15 -19 -34 -35 -42 -35 -8 0 -19 -9 -25 -20 -6 -11 -22 -23 -35 -26 -14 -3 -25 -10 -25 -14 0 -5 -8 -11 -18 -14 -9 -3 -22 -16 -27 -28 -6 -13 -24 -27 -41 -32 -17 -5 -40 -22 -50 -38 -10 -15 -22 -28 -26 -28 -4 0 -30 -23 -57 -51 -44 -45 -49 -53 -35 -63 21 -16 9 -43 -27 -62 -31 -16 -38 -41 -14 -50 22 -9 18 -26 -11 -48 -22 -15 -28 -16 -35 -5 -12 21 -37 -17 -31 -48 4 -21 1 -24 -19 -22 -38 4 -69 -10 -69 -32 0 -11 -13 -32 -28 -47 -16 -15 -31 -36 -35 -46 -4 -10 -13 -16 -21 -13 -7 3 -24 -8 -37 -24 -13 -16 -30 -36 -37 -44 -6 -7 -12 -16 -12 -19 0 -3 -25 -41 -55 -83 -31 -43 -60 -88 -65 -100 -5 -13 -14 -23 -20 -23 -5 0 -10 -5 -10 -11 0 -6 -16 -37 -35 -69 -19 -32 -35 -65 -35 -74 0 -9 -4 -16 -8 -16 -5 0 -19 -20 -31 -45 -26 -53 -37 -61 -56 -45 -13 10 -15 8 -15 -13 0 -14 5 -29 10 -32 15 -9 12 -65 -4 -71 -8 -3 -17 -15 -20 -27 -6 -24 -21 -15 -28 18 -5 20 -5 20 -12 0 -4 -11 -12 -27 -17 -35 -5 -8 -14 -26 -19 -40 -6 -14 -14 -34 -19 -45 -5 -11 -16 -40 -26 -65 -9 -25 -23 -60 -31 -78 -8 -18 -14 -41 -14 -51 0 -26 -31 -114 -46 -132 -19 -21 -17 -29 6 -29 10 0 24 9 31 21 8 15 14 18 22 10 7 -7 5 -16 -8 -31 -13 -14 -18 -34 -16 -69 1 -27 -3 -52 -8 -55 -5 -3 -12 -33 -16 -66 -4 -38 -13 -63 -22 -69 -11 -6 -14 -17 -10 -38 3 -18 0 -41 -9 -58 -10 -19 -11 -32 -4 -39 6 -6 5 -15 -4 -25 -15 -17 -26 -84 -30 -191 -4 -71 -12 -115 -27 -142 -12 -24 -12 -145 1 -153 15 -9 12 -37 -9 -78 -20 -39 -37 -230 -31 -357 6 -160 5 -263 -5 -368 -11 -103 -10 -114 5 -122 19 -10 33 -77 32 -149 -1 -27 8 -63 23 -96 14 -29 25 -68 25 -88 0 -21 15 -69 35 -112 19 -41 36 -87 36 -102 1 -16 7 -41 15 -58 7 -16 20 -46 28 -67 9 -20 16 -45 16 -56 0 -12 5 -24 10 -27 6 -3 10 -15 10 -25 0 -19 18 -66 46 -123 8 -16 14 -37 14 -47 0 -10 4 -21 9 -25 5 -3 15 -22 22 -43 6 -20 22 -59 35 -86 13 -28 24 -57 24 -66 0 -9 16 -47 36 -85 20 -39 44 -83 52 -100 9 -16 29 -51 46 -77 55 -84 76 -119 76 -127 0 -11 172 -268 241 -361 31 -42 69 -87 85 -101 16 -13 59 -58 96 -99 209 -233 552 -559 671 -638 28 -18 66 -47 84 -63 19 -16 39 -29 46 -29 7 0 28 -13 47 -30 19 -16 39 -29 44 -30 4 0 27 -12 50 -27 22 -16 59 -37 81 -48 22 -11 43 -24 46 -28 4 -5 15 -7 25 -5 18 5 18 5 -1 13 -11 5 -24 14 -30 20 -5 7 -38 33 -73 59 -62 47 -79 76 -43 76 11 0 22 6 24 13 3 6 6 2 6 -10 1 -12 9 -24 20 -28 11 -3 22 -12 25 -20 3 -8 13 -15 22 -15 10 0 26 -8 36 -17 14 -13 21 -14 30 -5 17 17 29 15 26 -5 -2 -15 3 -17 30 -15 29 2 33 0 27 -18 -5 -15 -2 -20 12 -20 11 0 24 5 30 11 7 7 15 6 26 -5 9 -9 22 -16 30 -16 9 0 28 -6 44 -14 15 -8 44 -21 63 -29 19 -8 46 -20 60 -26 84 -37 374 -135 515 -176 118 -33 164 -43 225 -50 30 -3 77 -13 103 -21 38 -13 52 -13 60 -4 9 9 8 14 -5 24 -22 16 -23 26 -3 26 8 0 15 3 15 8 0 7 -45 21 -140 43 -25 6 -61 15 -80 19 -184 47 -242 64 -350 103 -165 58 -180 64 -215 84 -47 26 -56 30 -120 59 -33 15 -73 38 -88 51 -16 12 -33 23 -39 23 -6 0 -28 15 -49 34 -21 19 -63 47 -95 63 -31 15 -61 37 -66 49 -6 12 -35 37 -65 55 -49 30 -220 153 -233 168 -3 3 -27 24 -55 46 -27 21 -52 42 -55 45 -3 3 -55 49 -115 102 -209 182 -435 433 -570 632 -29 45 -75 110 -100 146 -25 36 -57 85 -71 110 -27 51 -33 59 -92 148 -23 35 -42 67 -42 72 0 5 -11 31 -25 58 -30 59 -32 84 -7 80 11 -2 18 5 20 21 3 21 -3 40 -39 113 -5 10 -9 28 -9 42 0 13 -7 29 -15 36 -20 17 -20 80 0 80 11 0 15 -11 15 -35 0 -22 6 -38 15 -41 9 -4 15 -19 15 -35 0 -17 6 -32 15 -35 8 -4 15 -14 15 -23 0 -9 6 -28 14 -42 7 -14 16 -37 20 -52 3 -15 11 -27 16 -27 6 0 10 -9 10 -19 0 -11 4 -22 9 -25 5 -3 26 -40 46 -81 21 -41 44 -80 51 -86 8 -6 14 -17 14 -25 0 -7 6 -19 13 -26 6 -7 23 -35 37 -61 13 -26 28 -47 31 -47 4 0 10 -11 13 -25 4 -14 11 -25 16 -25 6 0 10 -4 10 -10 0 -13 82 -133 132 -193 22 -26 51 -63 64 -82 44 -65 404 -435 423 -435 6 0 11 5 11 10 0 6 -4 10 -10 10 -5 0 -10 8 -10 18 1 16 1 16 14 0 7 -10 16 -18 19 -18 3 0 24 -17 47 -37 36 -32 39 -39 25 -49 -14 -10 -13 -13 7 -26 13 -9 35 -28 51 -43 26 -27 28 -27 41 -10 10 14 15 15 21 5 4 -7 2 -16 -6 -21 -12 -8 -12 -11 1 -19 32 -20 53 -36 67 -49 8 -7 23 -11 37 -7 28 7 60 -8 101 -46 16 -16 40 -28 52 -28 12 0 23 -4 25 -8 9 -24 450 -262 484 -262 8 0 17 -7 20 -15 4 -8 16 -15 28 -15 11 0 30 -7 40 -15 11 -8 27 -15 37 -15 9 0 22 -7 29 -15 7 -8 25 -15 40 -15 15 0 33 -7 40 -15 7 -8 25 -15 40 -15 15 0 33 -6 40 -14 6 -8 28 -16 48 -18 33 -3 37 -6 34 -28 -2 -19 0 -22 10 -12 16 16 60 15 84 -3 10 -8 36 -15 57 -15 22 0 51 -6 65 -14 15 -8 65 -19 112 -25 105 -14 186 -26 270 -41 42 -8 201 -12 440 -13 312 -1 388 2 455 16 44 9 125 23 180 32 55 9 123 23 151 31 28 7 59 14 70 14 10 0 39 6 64 14 25 8 72 22 105 31 33 9 71 22 85 27 14 5 59 21 100 34 41 13 84 28 95 34 11 5 45 19 75 31 94 36 369 167 380 180 3 3 26 16 53 29 26 13 47 27 47 31 0 4 9 11 20 14 17 6 76 43 214 137 10 7 32 25 50 40 17 15 34 28 37 28 3 0 15 8 27 17 11 10 53 45 93 78 90 73 359 338 359 352 0 6 7 13 15 17 8 3 15 12 15 20 0 8 4 16 9 18 14 5 111 122 111 134 0 6 13 24 30 40 16 16 30 35 30 42 0 6 5 12 10 12 6 0 10 8 10 18 0 10 8 25 18 34 26 25 42 46 42 56 0 5 20 40 45 78 25 37 45 72 45 76 0 4 18 37 40 73 22 36 40 71 40 79 0 7 7 19 15 26 8 7 15 16 15 21 0 5 13 37 29 72 50 106 91 197 91 201 0 3 13 33 28 68 16 35 37 83 46 108 10 25 24 60 32 78 8 18 14 41 14 52 0 10 4 21 9 25 5 3 12 20 16 38 4 17 13 52 21 77 28 93 48 177 85 365 7 33 16 107 20 165 4 58 12 125 17 149 7 32 7 52 -1 70 -11 24 -12 21 -15 -31 -2 -32 -7 -58 -11 -58 -9 0 -21 58 -21 105 0 80 -35 -63 -60 -245 -43 -318 -81 -473 -111 -454 -12 7 -12 77 0 90 14 13 41 197 71 469 12 117 12 460 -1 550 -5 39 -13 113 -18 167 -5 53 -12 102 -16 108 -4 7 -11 37 -15 68 -8 62 -24 132 -46 203 -16 52 -18 110 -5 125 5 5 11 28 15 50 5 38 2 47 -44 109 -48 64 -70 116 -70 161 0 12 -12 52 -26 90 -14 38 -30 83 -36 99 -7 17 -19 44 -29 60 -10 17 -27 49 -38 73 -11 23 -24 42 -29 42 -5 0 -22 19 -38 43 -16 23 -32 44 -36 45 -5 2 -8 8 -8 13 0 5 -15 31 -33 57 -107 150 -154 216 -210 291 -34 46 -66 91 -72 100 -5 8 -17 22 -25 29 -11 10 -12 15 -2 18 18 8 15 28 -8 49 -11 10 -20 24 -20 32 0 17 37 17 43 1 2 -7 7 -10 11 -7 9 8 -22 79 -34 79 -6 0 -10 7 -10 15 0 37 50 -4 98 -80 14 -22 38 -56 53 -76 16 -20 29 -44 29 -52 0 -8 18 -29 40 -47 51 -40 151 -141 220 -221 93 -108 94 -109 95 -33 1 27 7 49 15 54 10 6 11 12 3 22 -28 35 -73 134 -73 162 0 17 -7 40 -15 50 -8 11 -15 27 -15 37 0 9 -6 22 -14 28 -7 6 -21 37 -31 68 -10 31 -31 75 -46 99 -16 23 -29 45 -29 50 0 4 -8 16 -17 26 -13 14 -14 21 -4 31 9 9 13 7 17 -11 4 -12 11 -22 17 -22 5 0 16 -8 23 -17 7 -10 15 -15 18 -12 3 3 -2 15 -11 26 -10 12 -25 32 -33 45 -19 30 -256 267 -338 338 -35 30 -89 72 -120 93 -31 22 -77 54 -102 72 -64 47 -176 105 -203 105 -12 0 -44 20 -70 44 -27 24 -67 52 -90 62 -23 10 -44 21 -47 24 -18 19 -64 40 -90 40 -28 0 -144 54 -180 84 -8 7 -23 16 -33 19 -20 8 -14 27 9 27 8 0 14 4 14 9 0 14 -64 51 -89 51 -12 0 -21 6 -21 15 0 8 5 15 10 15 6 0 10 4 10 9 0 5 -19 7 -42 5 -24 -2 -35 -1 -25 2 40 12 10 44 -78 79 -22 9 -55 24 -73 32 -25 13 -35 14 -44 5 -16 -16 -59 -15 -121 4 -29 8 -68 19 -87 24 -53 13 -182 50 -208 61 -13 5 -33 9 -46 9 -13 0 -37 5 -54 11 -27 9 -30 14 -22 30 8 13 22 19 48 19 35 0 72 14 62 23 -3 3 -34 17 -70 32 -64 27 -144 44 -305 65 -44 5 -102 15 -128 20 -26 6 -117 10 -201 10 -192 0 -308 9 -303 24 5 16 84 27 250 33 130 4 147 7 147 22 0 9 5 22 12 29 7 7 8 12 2 12 -5 0 -15 -5 -22 -12 -9 -9 -16 -7 -32 7 -13 12 -24 15 -28 9 -11 -17 -190 -33 -252 -23 -139 23 -203 23 -259 -2 -43 -18 -57 -20 -72 -11 -23 15 -49 15 -49 2 0 -6 7 -13 15 -16 31 -12 16 -34 -23 -34 -21 0 -47 -7 -58 -15 -24 -18 -170 -21 -176 -3 -3 7 -23 12 -46 13 -23 1 -44 4 -48 8 -13 13 6 37 31 37 22 0 25 3 19 23 -5 24 -5 24 108 31 62 4 127 9 143 11 17 2 73 9 125 15 127 15 436 4 468 -17 13 -8 31 -11 40 -8 49 21 106 23 241 9 80 -8 148 -17 152 -20 4 -2 45 -9 91 -15 46 -5 97 -14 113 -19 31 -9 93 -23 180 -41 28 -6 55 -14 60 -19 6 -4 25 -11 43 -15 18 -4 45 -13 60 -21 15 -8 43 -14 62 -14 35 0 116 -24 135 -40 5 -4 28 -12 50 -16 22 -4 82 -27 133 -51 50 -23 99 -43 106 -43 8 0 18 -4 21 -10 3 -5 16 -10 28 -10 20 1 20 2 4 11 -9 5 -29 21 -44 35 -14 13 -30 24 -36 24 -5 0 -46 16 -91 36 -44 19 -90 39 -101 44 -11 5 -37 11 -57 15 -21 3 -38 10 -38 14 0 5 -24 12 -52 15 -29 4 -57 11 -63 15 -5 4 -44 19 -85 32 -41 12 -84 29 -95 36 -11 7 -33 13 -50 13 -16 0 -79 10 -140 21 -60 10 -159 26 -220 34 -60 8 -135 19 -165 24 -30 6 -101 10 -157 10 -56 0 -111 4 -122 10 -22 12 -83 13 -121 1z m-790 -145 c0 -10 -10 -15 -26 -15 -15 0 -32 -7 -38 -16 -8 -10 -32 -17 -66 -20 -29 -2 -58 -8 -64 -14 -5 -5 -29 -10 -51 -10 -49 0 -58 -6 -44 -31 10 -20 -4 -28 -16 -9 -11 18 -90 12 -109 -9 -16 -17 -57 -32 -133 -46 -18 -4 -33 -11 -33 -16 0 -5 -12 -9 -27 -9 -16 0 -40 -7 -55 -14 -15 -8 -30 -11 -33 -6 -10 17 19 50 44 50 13 0 39 9 57 21 19 11 38 17 44 14 6 -4 22 0 35 9 13 9 35 16 48 16 14 0 30 7 37 15 7 8 29 15 49 15 20 0 49 7 65 15 15 8 45 15 66 15 21 0 43 6 49 14 6 8 35 17 64 20 29 4 59 11 67 16 24 16 70 12 70 -5z m604 -46 c36 -10 38 -12 20 -22 -10 -6 -71 -11 -134 -12 -76 0 -123 -5 -139 -14 -14 -8 -39 -11 -60 -8 -36 5 -143 -12 -157 -26 -4 -4 -37 -7 -73 -7 -39 0 -78 -6 -95 -15 -36 -19 -130 -21 -124 -2 3 7 26 13 55 15 29 2 57 9 63 17 8 10 31 15 64 15 28 0 69 6 91 12 22 6 69 12 105 12 36 1 76 8 90 16 22 12 110 24 220 28 19 1 53 -3 74 -9z m511 -80 c160 -11 194 -19 159 -37 -31 -16 -262 -23 -359 -11 -49 6 -101 11 -115 11 -14 0 -33 7 -43 16 -15 13 -25 14 -56 6 -39 -11 -39 -11 -28 14 l11 24 136 -6 c74 -4 207 -11 295 -17z m-485 1 c-20 -13 -47 -13 -55 0 -4 6 9 10 32 10 28 0 34 -3 23 -10z m2343 -1176 c-3 -9 -1 -19 4 -23 34 -21 103 -87 103 -98 0 -32 -45 -5 -132 80 -28 27 -20 42 29 56 1 1 0 -6 -4 -15z m-5983 -940 c0 -15 -6 -24 -15 -24 -16 0 -19 17 -9 44 9 22 24 10 24 -20z m5170 -879 c88 -18 172 -41 217 -61 17 -8 37 -14 45 -14 7 0 25 -10 40 -23 l28 -22 6 -197 c5 -173 4 -198 -10 -198 -19 0 -25 11 -52 86 -42 120 -132 226 -233 274 -25 12 -54 25 -63 30 -9 5 -62 17 -118 27 -94 16 -106 16 -195 1 -134 -23 -212 -63 -305 -158 -41 -42 -83 -91 -92 -110 -33 -69 -58 -129 -58 -142 0 -8 -4 -18 -9 -23 -30 -32 -51 -357 -31 -490 12 -80 46 -211 60 -230 4 -5 11 -21 15 -35 12 -39 68 -121 115 -169 58 -58 131 -104 212 -131 60 -20 80 -22 210 -17 152 5 201 17 291 71 128 78 206 212 262 451 22 96 24 100 36 88 6 -6 15 -98 20 -205 9 -169 9 -200 -5 -225 -33 -65 -189 -198 -256 -218 -14 -4 -29 -11 -35 -15 -40 -29 -254 -70 -364 -70 -112 0 -381 45 -416 70 -5 4 -21 11 -35 15 -127 38 -278 154 -388 300 -11 15 -78 156 -90 190 -44 125 -55 362 -23 506 35 163 94 277 199 391 81 87 241 187 342 213 14 3 34 10 45 15 30 12 182 40 245 44 96 6 312 -4 390 -19z m-3149 -14 c8 -17 112 -191 231 -388 120 -197 226 -371 235 -388 10 -16 21 -31 26 -33 4 -2 7 -10 7 -17 0 -8 6 -20 13 -27 7 -7 53 -79 101 -160 51 -86 93 -145 100 -142 6 2 20 21 31 42 10 20 68 119 127 219 59 99 108 183 108 186 0 3 38 69 85 147 46 78 87 151 90 161 4 10 11 19 16 19 5 0 9 5 9 11 0 6 35 70 79 143 43 72 93 159 112 194 31 58 58 78 73 53 3 -4 12 -62 20 -127 9 -66 22 -171 31 -234 9 -63 22 -164 30 -225 8 -60 21 -164 30 -230 9 -66 22 -169 30 -230 8 -60 21 -162 30 -225 8 -63 20 -150 25 -193 11 -82 26 -121 56 -148 26 -23 84 -47 119 -51 19 -2 31 -9 33 -20 3 -17 -19 -18 -352 -18 -310 0 -356 2 -356 15 0 9 9 15 24 15 27 0 81 45 90 76 6 20 -5 148 -39 459 -8 66 -19 180 -26 253 -14 153 -23 162 -71 72 -27 -52 -92 -164 -249 -432 -38 -64 -69 -121 -69 -127 0 -6 -4 -11 -10 -11 -5 0 -10 -5 -10 -11 0 -6 -20 -44 -44 -84 -24 -39 -47 -83 -51 -96 -4 -13 -11 -29 -16 -35 -5 -6 -12 -35 -16 -65 -7 -44 -12 -55 -29 -57 -17 -2 -65 72 -315 488 -162 269 -296 490 -300 490 -5 0 -19 -109 -44 -350 -21 -207 -43 -401 -50 -445 -5 -35 -2 -45 25 -77 20 -25 43 -39 66 -44 19 -3 33 -11 31 -18 -3 -8 -78 -12 -251 -14 -232 -2 -247 -1 -244 15 2 12 14 19 33 21 35 4 93 28 119 51 41 36 44 51 82 346 22 176 42 330 59 463 9 64 22 169 30 232 8 63 21 169 30 235 9 66 20 165 26 220 13 124 13 125 42 125 16 0 28 -9 38 -29z m-1819 -486 c-12 -22 -27 -2 -18 22 5 12 10 13 17 6 7 -7 8 -17 1 -28z m-17 -52 c4 -10 9 -83 10 -163 2 -80 6 -161 10 -180 3 -19 10 -100 15 -180 9 -147 30 -334 48 -425 32 -159 65 -302 88 -375 8 -25 14 -57 14 -71 0 -14 9 -34 19 -43 10 -9 22 -37 25 -60 4 -24 13 -52 21 -62 8 -11 15 -27 15 -37 0 -10 7 -20 15 -23 8 -4 15 -13 15 -21 0 -8 5 -24 12 -36 7 -12 24 -57 39 -99 15 -43 37 -91 48 -107 12 -16 21 -38 21 -50 0 -24 33 -92 69 -141 28 -37 34 -48 82 -138 38 -70 71 -125 79 -132 3 -3 17 -23 30 -45 13 -22 29 -43 34 -47 7 -5 7 -11 -1 -19 -10 -10 -14 -9 -19 4 -3 9 -12 17 -20 17 -8 0 -14 6 -14 14 0 8 -7 16 -15 20 -8 3 -15 10 -15 16 0 9 -46 74 -107 155 -5 6 -18 30 -31 55 -13 25 -39 72 -58 105 -19 33 -38 69 -43 81 -5 11 -27 50 -48 85 -21 35 -47 91 -57 124 -10 33 -24 70 -32 82 -8 13 -12 33 -8 47 4 18 -2 33 -28 63 -37 41 -55 83 -100 243 -7 25 -18 49 -25 53 -8 5 -13 29 -13 60 0 29 -4 57 -10 63 -5 5 -14 37 -19 69 -6 33 -22 112 -36 175 -14 63 -28 162 -31 220 -3 58 -14 146 -25 195 -19 83 -19 103 -9 245 13 180 20 250 25 268 6 17 22 15 30 -5z m1311 -3078 c4 -8 12 -15 20 -15 8 0 14 -7 14 -15 0 -8 -7 -15 -15 -15 -8 0 -15 7 -15 15 0 8 -7 15 -15 15 -8 0 -15 7 -15 15 0 8 5 15 10 15 6 0 13 -7 16 -15z"/> <path d="M5844 8539 c-7 -12 12 -29 32 -29 6 0 17 -7 24 -15 7 -8 23 -15 35 -15 12 0 28 -7 35 -15 7 -8 19 -15 27 -15 8 0 36 -7 64 -16 32 -11 62 -14 86 -9 l37 7 -69 34 c-39 18 -74 34 -80 34 -5 0 -22 6 -37 14 -23 12 -114 36 -138 36 -5 0 -12 -5 -16 -11z"/> <path d="M4135 8489 c-4 -6 -22 -8 -44 -4 -41 7 -96 -9 -86 -25 10 -16 121 -12 135 5 7 8 18 15 26 15 7 0 16 5 19 10 3 6 -5 10 -19 10 -14 0 -28 -5 -31 -11z"/> <path d="M5050 8493 c-77 -11 -90 -15 -90 -23 0 -6 18 -10 40 -10 22 0 70 -4 107 -10 38 -5 104 -14 148 -20 44 -6 96 -15 115 -20 19 -5 87 -19 150 -31 63 -12 119 -26 124 -31 6 -4 19 -8 30 -8 12 0 43 -12 71 -25 29 -14 58 -22 71 -19 12 3 36 -1 52 -10 17 -9 47 -16 66 -16 19 0 37 -4 40 -9 3 -4 38 -19 78 -32 40 -12 84 -29 98 -36 14 -7 32 -13 40 -13 8 0 24 -7 34 -15 23 -17 46 -20 46 -5 0 5 -12 13 -27 16 -16 4 -30 10 -33 14 -5 6 -124 64 -183 88 -15 7 -36 12 -45 12 -9 0 -29 6 -43 14 -35 18 -145 56 -163 56 -7 0 -27 7 -42 15 -16 8 -39 15 -52 15 -12 0 -30 4 -40 9 -9 5 -39 13 -67 19 -78 16 -138 31 -160 41 -11 5 -64 12 -119 16 -54 3 -107 10 -117 15 -17 10 -78 11 -129 3z"/> <path d="M6248 8390 c18 -11 42 -20 55 -20 17 1 14 5 -17 20 -52 26 -80 26 -38 0z"/> <path d="M6263 8063 c-17 -6 -16 -23 1 -23 8 0 16 7 20 15 6 15 1 17 -21 8z"/> <path d="M6749 7836 c21 -22 56 -42 99 -56 36 -12 70 -26 76 -31 48 -40 60 -49 65 -49 3 0 17 -10 31 -22 14 -13 57 -49 95 -81 39 -32 82 -69 96 -82 15 -13 29 -22 32 -18 13 12 -185 209 -230 229 -17 7 -34 18 -38 24 -3 5 -17 10 -29 10 -15 0 -26 7 -29 20 -3 12 -14 20 -27 20 -12 0 -34 8 -48 18 -38 27 -92 52 -110 52 -11 0 -5 -11 17 -34z"/> <path d="M660 5812 c0 -6 -6 -17 -13 -24 -21 -21 -46 -106 -53 -183 -3 -38 -16 -101 -29 -140 -13 -38 -27 -89 -30 -112 -4 -24 -11 -45 -16 -49 -5 -3 -9 -15 -9 -27 0 -13 -7 -50 -16 -82 -9 -33 -20 -98 -24 -145 -5 -47 -14 -114 -20 -150 -14 -82 -7 -472 9 -514 7 -18 11 -80 10 -157 -1 -161 16 -205 26 -66 4 53 5 111 1 129 -17 93 -6 620 14 693 10 37 38 201 45 274 4 30 13 70 21 89 8 19 14 48 14 64 0 16 5 39 12 51 7 12 15 45 20 72 19 128 29 179 37 189 4 6 13 25 19 43 8 25 8 34 -4 44 -9 7 -14 8 -14 1z"/> <path d="M410 4228 c0 -68 14 -108 22 -66 10 43 3 121 -9 125 -10 4 -13 -12 -13 -59z"/> <path d="M428 4114 c-12 -11 -9 -143 3 -189 6 -22 15 -71 19 -110 11 -103 31 -197 46 -220 8 -11 14 -38 14 -61 0 -22 3 -44 8 -48 4 -4 12 -24 19 -44 11 -32 12 -33 8 -7 -2 17 -11 64 -20 105 -9 41 -21 111 -27 155 -5 44 -15 90 -20 101 -11 24 -15 120 -6 130 14 13 28 -9 28 -41 0 -19 4 -36 9 -40 15 -8 24 80 14 122 l-10 38 -13 -27 c-7 -16 -21 -28 -32 -28 -14 0 -18 8 -19 43 -1 62 -13 130 -21 121z"/> <path d="M536 3774 c-8 -21 4 -95 15 -88 12 7 12 104 0 104 -5 0 -12 -7 -15 -16z"/> <path d="M566 3617 c-5 -9 -5 -29 0 -45 7 -25 8 -26 11 -4 3 12 3 32 0 45 -3 19 -4 20 -11 4z"/> <path d="M603 3465 c0 -22 2 -30 4 -17 2 12 2 30 0 40 -3 9 -5 -1 -4 -23z"/> <path d="M633 3345 c0 -22 2 -30 4 -17 2 12 2 30 0 40 -3 9 -5 -1 -4 -23z"/> <path d="M561 3303 c1 -10 4 -29 9 -43 6 -22 8 -23 15 -7 9 21 -2 67 -15 67 -6 0 -10 -8 -9 -17z"/> <path d="M656 3272 c-10 -16 1 -79 14 -87 11 -7 12 37 1 75 -5 18 -9 21 -15 12z"/> <path d="M690 3131 c0 -12 5 -21 10 -21 6 0 10 6 10 14 0 8 -4 18 -10 21 -5 3 -10 -3 -10 -14z"/> <path d="M625 3098 c8 -37 12 -44 21 -35 9 9 -6 67 -18 67 -6 0 -7 -13 -3 -32z"/> <path d="M710 3072 c0 -10 7 -27 15 -38 8 -10 15 -30 15 -42 0 -13 6 -36 13 -50 8 -15 21 -42 30 -60 9 -19 17 -42 17 -52 0 -20 17 -36 28 -25 4 3 -1 20 -11 36 -9 17 -17 41 -17 54 0 12 -7 28 -15 35 -8 7 -15 22 -15 34 -1 11 -9 39 -20 61 -11 22 -19 46 -20 53 0 19 -20 14 -20 -6z"/> <path d="M860 2701 c0 -11 6 -26 13 -33 7 -7 17 -22 21 -33 5 -13 10 -15 13 -8 5 15 -27 93 -39 93 -4 0 -8 -9 -8 -19z"/> <path d="M931 2574 c0 -11 9 -32 19 -49 10 -16 30 -54 45 -82 14 -29 30 -53 35 -53 16 0 11 22 -15 65 -14 22 -29 51 -35 64 -6 13 -19 35 -30 49 -17 21 -20 22 -19 6z"/> <path d="M1140 2224 c0 -18 31 -74 41 -74 13 0 11 16 -4 32 -7 7 -18 22 -25 33 -6 11 -12 15 -12 9z"/> <path d="M1190 2133 c0 -14 19 -38 25 -32 8 8 -5 39 -16 39 -5 0 -9 -3 -9 -7z"/> <path d="M1346 1918 c35 -57 161 -194 170 -185 4 3 -8 20 -25 37 -17 17 -31 36 -31 41 0 5 -3 9 -8 9 -4 0 -27 25 -50 55 -24 30 -48 55 -53 55 -6 0 -7 -6 -3 -12z"/> <path d="M1310 1800 c0 -13 72 -110 81 -110 4 0 26 -25 49 -56 40 -51 100 -97 100 -76 0 5 -29 38 -63 74 -35 35 -68 71 -73 80 -16 27 -78 98 -86 98 -4 0 -8 -5 -8 -10z"/> <path d="M1520 1713 c0 -9 66 -82 93 -102 35 -27 16 6 -33 57 -49 51 -60 60 -60 45z"/> <path d="M1680 1544 c0 -9 64 -64 69 -58 3 2 -10 18 -28 34 -32 30 -41 35 -41 24z"/> </g> </svg> 