 <svg  version="1.0" xmlns="http://www.w3.org/2000/svg"  width="2000.000000pt" height="552.000000pt" viewBox="0 0 2000.000000 552.000000"  preserveAspectRatio="xMidYMid meet">  <g transform="translate(0.000000,552.000000) scale(0.100000,-0.100000)" fill="#1473aa" stroke="none"> <path d="M580 5455 c-86 -23 -214 -91 -262 -138 -140 -136 -209 -339 -178 -521 13 -77 24 -105 36 -93 4 3 2 12 -4 19 -5 7 -13 36 -16 63 l-6 50 15 -54 c27 -94 74 -179 138 -247 62 -67 140 -128 150 -118 3 3 30 -3 59 -14 56 -20 128 -36 128 -28 0 3 -31 14 -68 25 -66 20 -155 74 -216 130 -43 40 -108 139 -113 174 -2 18 -8 48 -13 67 -5 19 -12 63 -16 97 -3 35 -10 60 -15 58 -8 -5 -2 -120 7 -139 3 -6 -2 -2 -10 8 -24 30 -22 190 4 276 31 104 109 208 204 271 65 43 130 65 220 73 55 5 91 16 52 16 -10 0 -24 7 -32 15 -14 13 -14 15 -1 15 9 0 17 -5 19 -11 2 -6 30 -12 63 -13 33 -2 43 -1 23 1 -21 2 -38 7 -38 11 0 8 58 8 80 0 8 -4 44 -14 80 -23 36 -10 68 -22 71 -28 4 -5 22 -11 40 -12 26 -2 29 -1 15 7 -9 5 -24 7 -32 4 -8 -3 -14 1 -14 10 0 8 -10 19 -22 25 -20 8 -19 9 7 4 26 -5 27 -4 11 6 -41 25 -292 34 -366 14z m-423 -502 c-3 -10 -5 -2 -5 17 0 19 2 27 5 18 2 -10 2 -26 0 -35z"/> <path d="M750 5420 c-42 -6 -43 -7 -18 -14 16 -5 35 -5 44 -2 14 5 94 -25 140 -52 55 -33 114 -79 129 -102 11 -16 22 -27 26 -25 3 3 21 -14 39 -36 17 -22 34 -38 36 -36 3 3 -1 24 -8 47 -14 46 -69 101 -134 135 -22 11 -51 29 -66 41 -14 12 -45 24 -68 28 -23 3 -38 11 -35 16 7 11 -14 11 -85 0z"/> <path d="M1001 5366 c3 -3 21 -16 42 -30 30 -20 34 -22 25 -6 -7 10 -23 23 -35 29 -25 11 -40 14 -32 7z"/> <path d="M1050 5206 c0 -2 15 -31 34 -64 54 -97 61 -125 61 -267 0 -119 -2 -134 -25 -179 -72 -142 -210 -234 -380 -252 -152 -16 -350 82 -419 207 -54 98 -61 118 -71 193 -12 93 -20 110 -20 40 1 -71 16 -129 60 -220 55 -115 151 -194 288 -239 76 -24 234 -17 315 14 126 49 226 154 279 291 28 70 46 162 29 145 -5 -5 -11 -23 -14 -40 -2 -16 -4 2 -4 40 -1 100 -8 155 -27 199 -25 60 -106 161 -106 132z"/> <path d="M2077 5173 c-15 -15 -6 -52 13 -58 25 -8 50 10 50 35 0 24 -46 41 -63 23z"/> <path d="M4262 5150 c4 -27 2 -30 -22 -30 -24 0 -27 -3 -22 -25 3 -19 10 -25 25 -23 19 3 20 -2 18 -59 -2 -51 1 -65 18 -82 23 -23 52 -27 82 -11 22 12 25 30 7 48 -8 8 -15 8 -24 1 -23 -19 -34 0 -34 57 l0 54 36 0 c29 0 35 3 30 16 -3 9 -6 20 -6 26 0 5 -12 8 -27 6 -25 -3 -28 0 -25 25 3 24 0 27 -28 27 -30 0 -32 -2 -28 -30z"/> <path d="M2957 5139 c-54 -41 -55 -151 -2 -196 35 -31 95 -31 130 0 l27 22 -21 19 c-17 15 -24 17 -33 8 -15 -15 -51 -15 -66 0 -16 16 -16 90 0 106 16 16 38 15 58 -3 15 -14 19 -13 36 6 19 21 19 21 -5 40 -31 25 -91 25 -124 -2z"/> <path d="M1410 5058 c0 -51 -3 -103 -6 -115 -6 -20 -3 -23 25 -23 l31 0 0 75 c0 46 -4 75 -11 75 -5 0 -7 5 -3 11 9 15 19 -4 29 -51 17 -89 26 -110 44 -110 14 0 23 15 37 65 10 36 22 65 27 65 5 0 5 9 2 20 -4 11 -2 20 4 20 14 0 14 -37 1 -45 -5 -3 -10 -33 -10 -66 0 -56 1 -59 25 -59 l25 0 0 115 0 115 -34 0 c-34 0 -34 0 -51 -71 -10 -39 -21 -67 -25 -62 -4 4 -13 36 -20 71 l-13 62 -38 0 -39 0 0 -92z"/> <path d="M1935 5123 c-32 -8 -45 -23 -45 -53 0 -30 18 -49 69 -75 30 -15 32 -18 18 -32 -13 -13 -18 -13 -48 2 -31 17 -33 16 -46 -1 -7 -10 -13 -21 -13 -24 0 -13 52 -30 90 -30 96 0 107 100 15 130 -20 7 -35 18 -35 27 0 12 8 14 39 9 31 -5 40 -2 45 11 4 9 3 20 -1 24 -12 10 -65 18 -88 12z"/> <path d="M2200 5100 c-35 -35 -31 -125 7 -158 25 -23 44 -25 84 -8 13 6 16 2 12 -18 -9 -45 4 -76 33 -76 24 0 25 1 22 73 -1 39 -1 101 2 137 4 64 4 65 -23 68 -15 2 -27 -1 -27 -7 0 -7 -8 -7 -26 -1 -38 15 -62 12 -84 -10z m104 -50 c4 -5 4 -21 -1 -37 -8 -22 -16 -28 -39 -28 -24 0 -30 4 -32 28 -6 49 36 70 72 37z"/> <path d="M2669 5106 c-23 -7 -40 -22 -52 -46 -45 -90 42 -172 138 -128 50 22 20 66 -32 46 -25 -9 -35 -9 -47 1 -29 24 -17 31 50 31 l67 0 -7 32 c-12 61 -55 84 -117 64z m61 -41 c7 -8 11 -15 9 -16 -73 -11 -91 -5 -67 19 16 16 43 15 58 -3z"/> <path d="M3905 5111 c-52 -16 -75 -49 -75 -105 0 -61 53 -95 124 -82 45 9 60 27 42 51 -12 17 -17 18 -41 7 -31 -14 -60 -8 -69 13 -4 12 7 15 59 15 l65 0 0 30 c0 28 -29 70 -49 70 -5 0 -15 2 -23 4 -7 2 -22 1 -33 -3z m53 -51 c2 -11 -8 -15 -38 -17 -45 -1 -46 -1 -24 22 20 19 58 16 62 -5z"/> <path d="M4065 5095 c-20 -19 -25 -34 -25 -75 0 -41 5 -56 25 -75 28 -29 72 -32 116 -10 29 16 29 16 12 40 -20 27 -29 30 -38 15 -3 -5 -17 -10 -30 -10 -18 0 -26 7 -31 24 -12 49 -3 61 48 61 58 0 70 11 39 36 -33 27 -86 25 -116 -6z"/> <path d="M1672 5036 c3 -62 7 -79 27 -100 26 -28 68 -34 103 -15 28 15 48 69 48 129 0 49 -1 50 -30 50 -30 0 -30 0 -30 -59 0 -66 -18 -94 -45 -71 -10 9 -15 32 -15 76 l0 64 -31 0 -31 0 4 -74z"/> <path d="M2390 5068 c1 -105 33 -158 94 -158 60 1 86 40 86 129 0 60 0 61 -29 61 -28 0 -28 -1 -24 -42 6 -50 -10 -98 -32 -98 -21 0 -37 46 -33 100 2 44 2 45 -30 48 -32 3 -32 3 -32 -40z"/> <path d="M3155 5085 c-19 -18 -25 -35 -25 -70 0 -62 32 -95 90 -95 55 0 76 13 90 54 13 41 5 83 -23 114 -30 32 -99 31 -132 -3z m105 -45 c11 -39 -5 -70 -35 -70 -34 0 -53 39 -37 76 16 35 63 31 72 -6z"/> <path d="M3348 5015 l-3 -95 33 0 32 0 0 58 c0 64 11 82 51 82 33 0 41 -24 30 -92 l-8 -48 34 0 33 0 0 68 c0 89 -14 116 -64 120 -25 2 -44 -2 -57 -14 -17 -16 -19 -16 -19 -1 0 12 -9 17 -29 17 l-30 0 -3 -95z"/> <path d="M3590 5015 l0 -95 30 0 c30 0 30 0 30 60 0 48 4 61 19 70 55 29 77 2 66 -81 l-7 -49 31 0 31 0 0 78 c0 90 -14 112 -70 112 -18 0 -42 -7 -52 -17 -17 -15 -18 -15 -18 0 0 12 -9 17 -30 17 l-30 0 0 -95z"/> <path d="M2076 5044 c-3 -26 -6 -64 -6 -85 0 -37 2 -39 30 -39 l30 0 0 85 c0 83 -1 85 -24 85 -20 0 -24 -6 -30 -46z"/> <path d="M793 5037 c-10 -6 -31 -21 -47 -34 l-29 -24 -18 30 c-20 33 -46 33 -70 -1 -8 -12 -24 -33 -37 -47 l-22 -26 -22 30 c-80 106 -110 91 -128 -64 -5 -49 -13 -96 -16 -105 -9 -23 41 -44 64 -28 32 23 43 24 61 8 22 -20 35 -20 56 1 14 13 20 14 34 5 40 -29 56 -33 86 -21 l30 12 -30 8 c-16 5 -41 6 -55 2 -22 -6 -23 -4 -12 10 10 11 11 30 5 72 l-8 57 -35 -70 c-19 -39 -37 -71 -40 -71 -3 -1 -23 32 -45 72 l-40 72 -5 -60 c-3 -33 -1 -66 4 -72 6 -10 -1 -13 -30 -13 -32 0 -35 2 -22 13 17 12 38 121 38 191 0 20 3 36 8 36 4 0 27 -36 52 -80 25 -44 48 -80 52 -80 4 0 26 36 50 80 44 82 58 96 58 58 0 -12 5 -61 11 -109 l11 -88 52 -20 c28 -11 65 -22 82 -26 44 -8 116 10 137 36 19 23 23 74 7 84 -6 4 -10 -6 -10 -23 0 -39 -30 -63 -83 -69 -109 -13 -180 84 -132 177 20 39 63 60 120 60 64 0 85 -13 85 -53 l0 -32 -20 33 c-17 27 -25 32 -60 32 -48 0 -76 -24 -85 -74 -8 -42 10 -103 35 -116 52 -28 120 4 120 56 l0 26 -26 -31 c-14 -17 -34 -31 -44 -31 -43 0 -68 91 -34 124 21 21 36 20 78 -5 l35 -20 14 27 c18 35 6 68 -33 84 -31 13 -121 11 -147 -3z"/> <path d="M1415 4736 c-27 -20 -27 -92 0 -112 11 -8 26 -12 35 -8 8 3 21 7 28 7 14 0 17 57 3 57 -5 0 -16 3 -25 6 -9 3 -16 1 -16 -5 0 -6 7 -11 16 -11 21 0 14 -34 -9 -38 -25 -5 -44 41 -29 73 13 28 39 33 48 10 8 -19 24 -19 24 0 0 14 -29 35 -47 35 -5 0 -18 -6 -28 -14z"/> <path d="M2000 4729 c0 -11 -4 -17 -10 -14 -18 11 -40 -16 -40 -50 0 -39 18 -56 48 -48 20 5 22 12 22 69 0 36 -4 64 -10 64 -5 0 -10 -9 -10 -21z m-5 -64 c0 -16 -6 -30 -12 -32 -9 -3 -13 7 -13 32 0 25 4 35 13 33 6 -3 12 -17 12 -33z"/> <path d="M2207 4732 c3 -14 -1 -19 -19 -18 -20 1 -23 -4 -26 -37 -4 -44 11 -67 38 -60 15 4 19 16 22 69 2 44 -1 64 -9 64 -6 0 -9 -8 -6 -18z m-2 -43 c9 -13 -3 -59 -14 -59 -13 0 -22 30 -16 51 7 21 20 25 30 8z"/> <path d="M2262 4720 c-26 -34 -28 -72 -6 -94 12 -12 20 -13 35 -6 10 6 19 15 19 20 0 14 -18 12 -22 -2 -2 -6 -10 -8 -16 -4 -20 12 -13 26 13 26 29 0 35 29 10 50 -12 10 -13 16 -4 26 6 8 7 14 2 14 -5 0 -19 -13 -31 -30z m28 -30 c0 -5 -7 -10 -15 -10 -8 0 -15 5 -15 10 0 6 7 10 15 10 8 0 15 -4 15 -10z"/> <path d="M1668 4723 c-6 -28 6 -108 16 -105 7 2 10 40 7 107 -1 21 -18 19 -23 -2z"/> <path d="M2540 4726 c0 -9 -9 -13 -25 -11 -24 2 -25 0 -25 -46 0 -57 17 -66 22 -12 4 52 28 56 28 5 0 -23 5 -42 13 -45 9 -3 12 10 10 52 -2 73 -1 71 -13 71 -5 0 -10 -6 -10 -14z"/> <path d="M2959 4728 c-1 -7 -1 -33 1 -58 2 -46 13 -70 24 -52 3 6 2 13 -4 17 -12 8 -13 65 -1 65 5 0 7 9 4 20 -6 22 -22 27 -24 8z"/> <path d="M1522 4708 c-19 -19 -15 -76 7 -87 21 -12 63 11 47 26 -5 4 -11 2 -13 -4 -6 -18 -33 -16 -33 2 0 9 9 15 25 15 17 0 25 5 25 18 0 20 -18 42 -35 42 -6 0 -16 -5 -23 -12z m38 -18 c0 -5 -7 -10 -15 -10 -8 0 -15 5 -15 10 0 6 7 10 15 10 8 0 15 -4 15 -10z"/> <path d="M1599 4704 c-12 -14 -10 -19 15 -39 20 -16 25 -25 16 -30 -7 -4 -16 -2 -21 6 -4 7 -11 10 -15 6 -12 -12 21 -38 39 -31 24 9 22 51 -3 59 -11 3 -20 11 -20 16 0 6 9 7 21 4 15 -5 20 -3 17 6 -7 21 -33 22 -49 3z"/> <path d="M1710 4671 c0 -28 5 -51 10 -51 6 0 10 20 10 44 0 25 -4 48 -10 51 -6 4 -10 -13 -10 -44z"/> <path d="M1750 4701 c-14 -28 -12 -57 6 -75 24 -24 54 -4 54 37 0 53 -39 77 -60 38z m40 -37 c0 -45 -24 -42 -28 4 -2 24 1 32 12 32 12 0 16 -10 16 -36z"/> <path d="M1830 4669 c0 -30 4 -49 11 -49 7 0 9 11 6 27 -6 30 1 53 14 53 5 0 9 -18 9 -40 0 -22 5 -40 11 -40 6 0 9 19 7 48 -3 44 -5 47 -30 48 -27 1 -28 -1 -28 -47z"/> <path d="M2039 4696 c-23 -50 16 -105 50 -72 8 9 11 19 7 23 -4 4 -11 1 -15 -6 -5 -7 -14 -10 -20 -7 -19 12 -12 26 14 26 20 0 25 5 25 24 0 22 -16 36 -41 36 -5 0 -14 -11 -20 -24z m41 -5 c0 -5 -7 -11 -15 -15 -15 -5 -20 5 -8 17 9 10 23 9 23 -2z"/> <path d="M2328 4653 c-2 -36 0 -67 5 -70 4 -2 7 6 7 17 0 15 5 20 14 17 23 -9 38 18 34 60 -3 33 -6 38 -30 39 -26 1 -27 -1 -30 -63z m46 31 c9 -23 -3 -56 -17 -51 -22 7 -21 67 2 67 5 0 12 -7 15 -16z"/> <path d="M2417 4714 c-4 -4 -7 -14 -7 -23 0 -12 3 -12 12 -3 16 16 28 15 28 -3 0 -8 -9 -15 -20 -15 -15 0 -20 -7 -20 -24 0 -30 8 -36 40 -29 24 4 25 7 20 51 -4 38 -9 48 -25 50 -12 2 -24 0 -28 -4z m33 -69 c0 -8 -7 -15 -15 -15 -16 0 -20 12 -8 23 11 12 23 8 23 -8z"/> <path d="M2589 4696 c-23 -50 16 -105 50 -72 8 9 11 19 7 23 -4 4 -11 1 -15 -6 -5 -7 -14 -10 -20 -7 -19 12 -12 26 14 26 27 0 35 26 13 48 -19 19 -37 14 -49 -12z m41 -6 c0 -5 -7 -10 -15 -10 -8 0 -15 5 -15 10 0 6 7 10 15 10 8 0 15 -4 15 -10z"/> <path d="M2670 4668 c0 -26 3 -48 8 -48 4 0 7 16 7 37 0 20 6 38 13 40 8 3 12 -8 12 -36 0 -23 5 -41 10 -41 6 0 10 18 10 40 0 22 5 40 10 40 6 0 10 -18 10 -40 0 -22 5 -40 11 -40 6 0 9 19 7 48 l-3 47 -47 1 -48 1 0 -49z"/> <path d="M2802 4708 c-19 -19 -15 -76 7 -87 21 -12 63 11 47 26 -5 4 -11 2 -13 -4 -6 -18 -33 -16 -33 2 0 9 9 15 25 15 27 0 31 10 15 41 -12 22 -30 25 -48 7z m38 -18 c0 -5 -7 -10 -15 -10 -8 0 -15 5 -15 10 0 6 7 10 15 10 8 0 15 -4 15 -10z"/> <path d="M2875 4711 c-9 -9 -5 -91 4 -91 6 0 11 17 13 37 4 52 28 56 28 4 0 -23 5 -41 10 -41 12 0 13 69 2 87 -7 11 -47 14 -57 4z"/> <path d="M247 4553 c-3 -5 5 -22 18 -39 23 -28 24 -28 22 -6 -1 25 -32 58 -40 45z"/> <path d="M613 4313 c9 -2 25 -2 35 0 9 3 1 5 -18 5 -19 0 -27 -2 -17 -5z"/> </g> </svg> 