<?xml version="1.0" standalone="no"?>
<!DOCTYPE svg PUBLIC "-//W3C//DTD SVG 20010904//EN"
 "http://www.w3.org/TR/2001/REC-SVG-20010904/DTD/svg10.dtd">
<svg version="1.0" xmlns="http://www.w3.org/2000/svg"
 width="900.000000pt" height="834.000000pt" viewBox="0 0 900.000000 834.000000"
 preserveAspectRatio="xMidYMid meet">
<metadata>
Created by potrace 1.10, written by Peter Selinger 2001-2011
</metadata>
<g transform="translate(0.000000,834.000000) scale(0.100000,-0.100000)"
fill="#1473aa" stroke="none">
<path d="M3350 8011 c0 -5 14 -11 31 -15 17 -3 42 -14 55 -25 l24 -19 -75 -7
c-47 -5 -86 -3 -103 3 -45 18 -66 19 -92 7 -14 -7 -47 -16 -74 -20 -50 -7
-102 -32 -91 -44 4 -3 50 -8 102 -11 65 -3 98 -9 101 -17 6 -19 -214 -17 -248
2 -14 8 -42 14 -62 15 -20 0 -39 4 -43 9 -3 5 -19 12 -36 16 -27 6 -30 10 -24
32 6 24 4 25 -27 20 -95 -14 -165 -28 -183 -36 -11 -5 -81 -27 -155 -49 -74
-22 -160 -50 -190 -62 -30 -12 -64 -24 -75 -28 -11 -3 -26 -12 -33 -19 -7 -7
-20 -13 -29 -13 -13 0 -47 -15 -93 -41 -8 -5 -22 -12 -30 -15 -8 -3 -47 -21
-85 -40 -39 -19 -77 -34 -86 -34 -12 0 -139 -77 -158 -95 -2 -3 10 -5 27 -5
22 0 32 5 32 15 0 16 12 20 24 8 5 -6 -30 -42 -69 -71 -67 -49 -93 -46 -45 6
16 18 24 32 19 32 -16 0 -62 -33 -89 -62 -13 -16 -32 -28 -40 -28 -9 0 -34
-15 -56 -33 -21 -18 -57 -46 -79 -62 -47 -34 -60 -45 -143 -121 -44 -41 -61
-62 -57 -75 4 -11 -2 -23 -15 -32 -12 -8 -21 -21 -20 -28 5 -34 -2 -50 -24
-59 -14 -5 -30 -19 -36 -30 -6 -12 -18 -19 -25 -16 -8 3 -26 -14 -45 -44 -17
-27 -39 -52 -48 -55 -17 -5 -146 -186 -169 -235 -3 -8 -15 -26 -25 -39 -10
-13 -18 -32 -18 -42 0 -11 -5 -19 -10 -19 -6 0 -15 -11 -20 -25 -5 -14 -16
-25 -24 -25 -19 0 -25 -21 -13 -41 14 -22 1 -57 -15 -41 -22 22 -30 12 -24
-30 3 -24 3 -37 0 -30 -11 24 -34 13 -34 -17 0 -16 -6 -31 -15 -35 -8 -3 -15
-15 -15 -27 0 -11 -7 -33 -15 -47 -14 -27 -37 -114 -36 -142 0 -8 3 -39 7 -68
5 -41 3 -56 -9 -70 -9 -9 -17 -39 -19 -66 -5 -74 -26 -70 -27 4 0 45 3 62 14
66 17 7 22 84 6 84 -12 0 -37 -80 -46 -143 -5 -36 -2 -55 9 -72 19 -29 21
-116 4 -133 -8 -8 -14 -48 -16 -105 -3 -129 -9 -206 -16 -247 -6 -32 -19 -459
-17 -559 0 -29 6 -48 16 -53 11 -7 15 -25 15 -69 0 -40 5 -65 15 -75 8 -9 15
-27 15 -41 0 -14 6 -39 14 -56 18 -43 32 -82 46 -140 7 -26 17 -50 21 -53 5
-3 9 -15 9 -27 0 -12 7 -35 15 -51 8 -15 15 -35 15 -42 0 -8 14 -43 30 -77 17
-35 30 -68 30 -73 1 -5 9 -27 20 -49 11 -22 19 -46 20 -53 0 -7 11 -30 25 -52
14 -22 25 -43 25 -47 0 -5 20 -39 45 -76 25 -38 45 -73 45 -78 0 -10 102 -163
113 -167 4 -2 7 -8 7 -13 0 -36 512 -569 610 -634 25 -17 51 -35 57 -42 22
-20 150 -103 161 -103 5 0 15 -7 22 -15 14 -17 40 -20 40 -5 0 6 -11 15 -24
19 -19 8 -42 48 -32 58 6 6 66 -29 66 -38 0 -5 11 -9 24 -9 13 0 29 -7 36 -15
7 -8 21 -15 31 -15 10 0 21 -4 24 -10 3 -5 17 -10 30 -10 13 0 27 -4 30 -10 3
-5 13 -10 22 -10 9 0 45 -13 80 -30 34 -16 69 -30 76 -30 7 0 17 -4 23 -8 5
-5 63 -26 129 -47 66 -21 129 -41 140 -46 38 -16 145 -38 210 -45 66 -7 67 -7
63 17 -2 17 -12 25 -33 30 -16 4 -64 15 -105 24 -84 19 -165 42 -195 55 -11 5
-49 19 -85 31 -70 23 -235 102 -261 125 -8 8 -20 14 -25 14 -5 1 -25 14 -44
30 -19 17 -39 30 -46 30 -6 0 -26 15 -45 34 -19 18 -55 46 -79 62 -171 109
-497 411 -626 579 -60 78 -174 246 -201 295 -10 19 -37 63 -61 98 -23 35 -42
70 -42 78 0 9 -7 22 -15 30 -19 20 -19 43 0 50 9 4 15 19 15 35 0 16 5 29 10
29 6 0 10 16 10 35 0 19 -4 35 -10 35 -5 0 -10 -16 -10 -36 0 -24 -4 -34 -13
-32 -19 7 -21 60 -2 74 18 13 17 45 -1 51 -6 2 -14 -6 -17 -19 -5 -17 -9 -20
-18 -11 -8 8 -8 16 0 31 15 28 14 54 -4 88 -8 16 -15 38 -15 49 -1 11 -7 31
-15 45 -8 14 -14 39 -15 55 0 17 -4 35 -10 41 -5 5 -12 32 -16 59 -3 28 -10
59 -15 70 -17 38 -36 180 -55 414 -6 84 6 255 23 315 12 43 24 -18 33 -176 13
-222 29 -418 35 -448 3 -14 12 -59 20 -100 22 -119 44 -210 55 -230 5 -10 10
-27 10 -38 0 -11 7 -33 15 -48 8 -16 15 -37 15 -47 0 -16 7 -33 31 -77 28 -49
49 -95 49 -105 0 -6 9 -28 20 -49 11 -22 26 -60 35 -85 9 -25 29 -64 45 -85
17 -22 30 -46 30 -53 0 -7 4 -13 8 -13 5 0 18 -21 30 -47 12 -27 31 -61 42
-78 30 -46 35 -58 22 -63 -13 -4 -17 -32 -4 -32 4 0 18 -17 32 -37 49 -72 285
-313 307 -313 7 0 13 -7 13 -16 0 -11 6 -14 21 -9 16 5 20 3 17 -12 -2 -12 2
-17 15 -15 10 2 17 -3 17 -13 0 -8 4 -15 9 -15 5 0 31 -21 58 -48 26 -26 66
-53 88 -61 22 -8 57 -25 77 -38 21 -12 42 -23 46 -23 5 0 27 -13 48 -28 21
-15 60 -38 86 -51 27 -12 50 -27 54 -32 3 -5 13 -9 23 -9 10 0 24 -7 31 -15 7
-8 20 -15 30 -15 10 0 23 -7 30 -15 7 -8 20 -15 30 -15 10 0 23 -7 30 -15 7
-8 21 -15 30 -15 10 0 31 -6 47 -14 65 -31 100 -46 128 -52 17 -4 32 -10 35
-14 12 -15 176 -54 295 -69 39 -5 97 -14 129 -20 80 -14 568 -15 631 -1 28 6
79 15 115 19 244 33 594 157 835 296 70 40 266 170 290 192 11 10 43 36 70 58
212 169 438 453 572 716 66 131 66 131 134 294 28 66 55 128 60 137 5 10 13
34 18 55 6 21 18 63 26 93 41 138 85 383 85 475 0 31 -20 95 -30 95 -7 0 -27
-104 -41 -215 -5 -44 -15 -93 -21 -110 -6 -16 -14 -57 -17 -90 -8 -73 -38
-137 -53 -112 -6 11 -5 25 4 39 7 13 15 48 19 78 3 30 12 82 19 115 9 40 13
155 14 340 1 290 -8 389 -52 535 -9 32 -16 93 -16 145 -1 83 -3 93 -30 128
-16 21 -32 54 -37 75 -14 67 -29 122 -38 140 -4 9 -17 35 -27 57 -10 22 -39
68 -64 103 -25 34 -72 101 -105 148 -33 47 -84 118 -113 157 -28 40 -57 87
-63 105 -6 17 -15 32 -20 32 -5 0 -9 7 -9 15 0 8 7 15 15 15 8 0 15 9 15 19 0
26 18 37 27 16 3 -10 17 -29 30 -43 13 -14 33 -45 45 -69 12 -23 25 -43 29
-43 9 0 133 -123 181 -179 25 -29 39 -39 42 -30 15 47 14 80 -4 114 -10 20
-22 51 -26 68 -3 18 -17 53 -30 79 -13 26 -24 56 -24 67 0 11 -5 23 -11 26 -5
4 -14 17 -20 28 -5 12 -15 30 -21 41 -10 15 -10 19 0 23 20 7 14 26 -7 20 -14
-3 -17 0 -13 15 3 15 -25 48 -119 139 -146 141 -295 250 -390 284 -20 7 -58
29 -84 49 -25 20 -52 36 -60 36 -7 0 -18 7 -25 15 -7 8 -25 15 -41 15 -16 0
-51 14 -77 30 -27 17 -54 30 -61 30 -6 0 -11 10 -11 22 0 25 -42 66 -76 74
-15 4 -20 11 -17 25 4 14 0 19 -15 19 -11 0 -25 6 -31 13 -16 20 -89 39 -122
32 -15 -4 -34 -3 -41 1 -14 9 -195 59 -268 75 -58 12 -71 25 -36 39 15 5 32
10 37 10 5 0 9 4 9 8 0 38 -287 89 -538 96 -78 2 -146 6 -149 10 -4 3 -1 12 6
19 8 8 62 12 189 12 161 0 209 -4 377 -35 28 -5 79 -14 115 -20 36 -6 74 -15
85 -20 11 -5 38 -14 60 -21 22 -6 45 -16 51 -21 14 -11 81 -14 91 -4 10 10
-17 26 -44 26 -12 0 -28 7 -37 15 -8 8 -30 15 -48 15 -19 0 -43 7 -54 15 -10
8 -37 15 -59 15 -22 0 -51 7 -65 15 -15 8 -54 15 -95 15 -41 0 -77 6 -87 14
-12 9 -39 12 -88 8 -67 -4 -160 13 -160 29 0 13 85 20 167 13 56 -5 83 -3 83
4 0 15 -116 26 -187 17 -42 -4 -68 -2 -95 9 -40 17 -118 22 -118 7z m-583
-116 c-5 -10 -20 -15 -53 -15 -30 0 -54 -6 -65 -16 -10 -9 -38 -17 -64 -18
-25 -1 -51 -8 -57 -14 -7 -7 -19 -12 -28 -12 -9 0 -25 -7 -36 -15 -10 -8 -33
-15 -50 -15 -16 0 -39 -7 -50 -15 -25 -19 -64 -19 -64 0 0 9 9 15 24 15 13 0
26 7 30 15 3 9 18 15 39 15 18 0 42 7 53 15 10 8 34 15 52 15 18 0 40 7 48 15
9 9 34 15 59 15 28 0 45 5 48 14 4 10 24 16 59 18 62 4 62 3 55 -17z m171 -57
c-3 -9 -30 -14 -77 -16 -49 -2 -78 -8 -88 -18 -10 -10 -30 -14 -57 -12 -58 4
-51 22 11 26 29 2 56 9 63 17 16 20 154 22 148 3z m754 -26 c19 -19 -15 -25
-150 -25 -186 -2 -219 2 -225 25 -5 19 1 19 179 15 115 -3 190 -9 196 -15z
m1246 -866 c35 -46 38 -56 21 -56 -16 0 -90 81 -83 91 11 18 30 7 62 -35z
m-2843 -1247 c9 -26 154 -269 172 -287 7 -7 13 -17 13 -22 0 -4 20 -39 45 -77
25 -37 45 -73 45 -80 0 -6 4 -13 8 -15 5 -1 53 -77 107 -168 54 -91 100 -167
101 -169 7 -8 30 20 54 66 14 26 28 50 33 51 4 2 7 8 7 14 0 5 40 77 89 158
49 81 92 157 96 169 3 11 11 21 16 21 5 0 9 5 9 11 0 6 40 78 89 159 49 81 92
157 96 169 8 28 33 27 39 -1 16 -80 19 -99 61 -423 8 -60 21 -163 30 -227 8
-65 22 -169 30 -230 29 -229 37 -250 92 -269 18 -6 33 -17 33 -25 0 -12 -36
-14 -220 -14 -121 0 -220 3 -220 6 0 3 14 17 31 32 36 30 36 17 3 307 -8 77
-18 172 -20 210 -3 39 -7 81 -10 95 l-6 25 -19 -25 c-10 -14 -19 -29 -19 -34
0 -4 -29 -57 -65 -116 -36 -59 -65 -113 -65 -119 0 -6 -4 -11 -10 -11 -5 0
-10 -5 -10 -11 0 -6 -28 -59 -63 -118 -74 -125 -112 -204 -119 -246 -9 -53
-37 -18 -183 226 -82 138 -174 293 -203 343 -29 50 -56 90 -60 89 -4 -2 -10
-31 -13 -65 -4 -35 -14 -133 -24 -218 -9 -85 -20 -184 -24 -220 -9 -81 -7 -91
30 -115 16 -11 29 -23 29 -27 0 -5 -63 -9 -140 -10 -77 -1 -147 -2 -157 -2
-35 -2 -22 23 21 39 25 10 52 25 61 35 19 21 21 33 80 500 9 69 23 177 31 240
8 63 21 167 28 230 8 63 19 127 25 143 13 32 37 35 46 6z m2246 2 c94 -21 162
-44 196 -67 22 -14 23 -21 23 -132 0 -124 -6 -165 -23 -159 -5 1 -16 22 -22
45 -41 138 -155 229 -310 246 -109 13 -219 -16 -309 -80 -39 -28 -110 -139
-137 -214 -21 -58 -23 -82 -23 -235 1 -147 3 -178 22 -233 33 -96 71 -159 126
-208 95 -86 210 -116 345 -90 133 26 211 78 262 177 27 54 59 155 59 188 0 14
4 32 9 40 17 26 31 -25 42 -144 12 -133 12 -134 -87 -224 -59 -54 -88 -70
-194 -103 -87 -28 -295 -29 -397 -3 -221 56 -361 168 -437 345 -65 154 -60
380 12 529 33 70 102 161 144 193 56 41 136 87 165 94 16 4 33 10 38 13 6 3
42 13 80 22 103 24 309 24 416 0z"/>
<path d="M2970 7991 c-43 -4 -59 -9 -47 -13 27 -11 139 -9 157 2 13 8 13 10
-2 10 -9 0 -22 1 -30 3 -7 2 -42 1 -78 -2z"/>
<path d="M3796 7961 c-9 -13 19 -21 75 -21 48 0 65 12 33 24 -24 9 -102 7
-108 -3z"/>
<path d="M4195 7960 c-11 -19 177 -85 203 -71 12 7 5 13 -33 30 -105 46 -159
59 -170 41z"/>
<path d="M3950 7925 c0 -11 12 -15 50 -15 36 0 52 -4 56 -15 4 -10 20 -15 45
-15 26 0 42 -5 45 -15 8 -19 108 -22 101 -2 -2 7 -19 11 -45 9 -33 -3 -41 0
-47 17 -5 16 -15 21 -43 21 -20 0 -46 7 -56 15 -27 20 -106 20 -106 0z"/>
<path d="M2965 7920 c3 -5 17 -10 31 -10 13 0 24 5 24 10 0 6 -14 10 -31 10
-17 0 -28 -4 -24 -10z"/>
<path d="M4262 7838 c5 -15 78 -24 78 -10 0 10 -33 22 -63 22 -11 0 -17 -6
-15 -12z"/>
<path d="M4355 7810 c-4 -6 7 -13 24 -16 17 -4 36 -13 42 -20 6 -8 23 -14 36
-14 22 0 24 2 13 15 -7 8 -21 15 -32 15 -11 0 -26 7 -34 15 -18 17 -40 20 -49
5z"/>
<path d="M4266 7781 c-18 -7 -18 -8 -2 -14 25 -10 66 -9 66 2 0 9 -25 22 -38
20 -4 0 -16 -4 -26 -8z"/>
<path d="M4340 7750 c0 -5 15 -10 33 -10 24 0 28 3 17 10 -20 13 -50 13 -50 0z"/>
<path d="M4820 7476 c0 -11 71 -47 81 -41 6 5 -2 15 -20 26 -29 17 -61 25 -61
15z"/>
<path d="M4980 7393 c0 -5 22 -24 47 -43 26 -19 55 -44 65 -54 10 -11 21 -17
24 -13 12 12 -104 117 -128 117 -5 0 -8 -3 -8 -7z"/>
<path d="M450 5765 c0 -9 -9 -41 -20 -72 -11 -32 -20 -71 -20 -88 0 -16 -7
-52 -16 -80 -15 -47 -17 -127 -13 -482 2 -106 -4 -204 -12 -209 -11 -6 -12
-164 -1 -164 13 0 29 47 21 62 -5 9 -4 42 2 74 5 32 12 192 14 354 2 242 6
302 19 332 9 21 16 65 16 101 0 45 5 68 15 77 17 14 21 110 5 110 -5 0 -10 -7
-10 -15z"/>
<path d="M410 4666 c0 -19 4 -37 9 -40 10 -6 24 52 15 65 -12 20 -24 7 -24
-25z"/>
<path d="M387 4603 c-2 -5 -1 -32 1 -62 5 -66 22 -49 22 22 0 41 -11 62 -23
40z"/>
<path d="M446 4494 c-8 -22 -7 -34 3 -34 12 0 21 39 11 45 -4 3 -11 -2 -14
-11z"/>
<path d="M422 4400 c0 -19 2 -27 5 -17 2 9 2 25 0 35 -3 9 -5 1 -5 -18z"/>
<path d="M980 4025 c0 -8 5 -15 10 -15 6 0 10 7 10 15 0 8 -4 15 -10 15 -5 0
-10 -7 -10 -15z"/>
<path d="M1044 3919 c-3 -6 -1 -16 5 -22 8 -8 11 -5 11 11 0 24 -5 28 -16 11z"/>
<path d="M1200 3661 c0 -12 5 -21 10 -21 6 0 10 6 10 14 0 8 -4 18 -10 21 -5
3 -10 -3 -10 -14z"/>
<path d="M1230 3615 c0 -8 5 -15 10 -15 6 0 10 7 10 15 0 8 -4 15 -10 15 -5 0
-10 -7 -10 -15z"/>
<path d="M1010 3150 c0 -5 9 -14 21 -20 19 -11 20 -10 9 9 -11 22 -30 29 -30
11z"/>
<path d="M2183 1851 c-30 -25 -32 -99 -4 -125 24 -22 79 -30 113 -17 48 18 55
113 11 147 -26 20 -94 17 -120 -5z"/>
<path d="M8420 1796 c0 -85 -8 -96 -77 -96 -58 0 -67 -10 -59 -64 4 -25 13
-46 19 -47 7 -1 35 -2 62 -3 l50 -1 0 -155 c0 -185 6 -219 49 -258 60 -54 177
-54 236 -1 35 32 34 43 -3 89 -27 35 -28 35 -55 10 -29 -27 -57 -25 -81 6 -19
24 -21 40 -21 168 0 97 4 146 12 154 7 7 42 12 85 12 l73 0 0 55 0 55 -75 0
c-88 0 -98 10 -94 93 l3 52 -62 3 -62 3 0 -75z"/>
<path d="M4776 1813 c-63 -10 -127 -67 -172 -153 -28 -52 -28 -287 0 -345 45
-94 92 -133 193 -159 54 -13 66 -13 124 1 67 17 147 62 168 94 10 16 5 26 -30
64 -23 25 -48 45 -55 45 -8 0 -33 -13 -56 -30 -56 -41 -126 -42 -162 -3 -50
54 -71 184 -43 263 43 122 141 145 223 51 l21 -24 30 27 c16 14 38 32 47 39
29 21 14 50 -47 90 -53 36 -65 39 -135 42 -42 2 -90 1 -106 -2z"/>
<path d="M320 1781 l-45 -6 -3 -300 c-1 -165 -1 -304 2 -310 2 -6 29 -8 67 -5
l64 5 0 180 c1 99 4 186 9 193 12 20 24 5 31 -41 4 -23 11 -46 15 -52 5 -5 13
-32 18 -60 26 -128 44 -200 54 -212 15 -19 72 -16 90 5 8 9 25 51 38 92 12 41
26 80 30 85 4 6 11 29 15 52 4 24 11 46 16 49 6 3 15 17 20 32 7 18 13 22 20
15 8 -8 8 -57 0 -169 -5 -88 -7 -162 -2 -167 4 -4 35 -7 67 -5 l59 3 7 175 c6
153 -2 424 -13 434 -2 2 -40 5 -83 7 l-80 4 -8 -30 c-5 -16 -15 -52 -23 -80
-7 -27 -20 -75 -29 -105 -9 -30 -21 -77 -27 -105 -6 -27 -14 -54 -18 -58 -16
-16 -50 29 -60 78 -14 70 -32 137 -42 157 -5 9 -11 36 -15 60 -11 71 -27 88
-82 86 -26 0 -67 -4 -92 -7z"/>
<path d="M1750 1703 c-24 -9 -58 -29 -75 -44 -28 -26 -30 -34 -30 -95 l0 -66
50 -44 c27 -24 53 -44 58 -44 22 0 104 -46 135 -75 45 -42 40 -78 -12 -95 -47
-15 -91 -5 -156 35 -62 38 -68 36 -99 -30 -31 -67 -28 -71 109 -116 68 -23
122 -24 186 -2 93 31 134 81 134 166 0 85 -42 125 -213 203 -53 23 -74 57 -57
89 21 40 84 47 143 15 49 -27 59 -25 80 11 30 53 24 65 -48 88 -75 25 -142 26
-205 4z"/>
<path d="M2613 1692 c-50 -5 -117 -70 -132 -129 -23 -84 -25 -191 -4 -253 26
-78 86 -136 152 -145 53 -7 138 2 147 16 3 5 13 9 23 9 15 0 19 -18 30 -127 7
-71 16 -132 20 -136 5 -5 32 -7 62 -5 l54 3 -5 70 c-10 135 -4 481 10 583 7
56 11 104 9 106 -2 2 -31 6 -64 8 -56 3 -60 2 -63 -20 -5 -34 -25 -37 -69 -9
-38 24 -109 36 -170 29z m190 -158 l38 -25 -7 -62 c-4 -34 -10 -73 -14 -86 -8
-31 -64 -61 -114 -61 -31 0 -45 7 -72 35 -54 58 -58 144 -9 198 22 23 34 27
83 27 45 0 65 -5 95 -26z"/>
<path d="M7937 1690 c-47 -14 -136 -89 -137 -113 0 -5 -7 -24 -16 -42 -19 -41
-15 -181 6 -235 8 -19 36 -56 62 -82 59 -59 126 -77 218 -60 60 11 160 66 160
88 0 7 -20 33 -44 59 l-45 47 -38 -26 c-54 -37 -120 -36 -155 2 -33 34 -48 72
-48 123 0 46 11 72 48 112 34 36 107 38 153 5 30 -22 30 -22 65 -3 60 32 56
55 -20 102 -43 27 -158 40 -209 23z"/>
<path d="M3860 1672 c-24 -8 -50 -20 -58 -26 -42 -34 -82 -83 -87 -108 -4 -15
-11 -30 -16 -33 -5 -4 -9 -44 -9 -90 0 -105 21 -158 82 -208 83 -68 258 -71
358 -5 l49 32 -17 28 c-20 34 -60 78 -71 78 -5 0 -19 -8 -32 -18 -33 -25 -76
-42 -103 -42 -77 0 -162 86 -120 121 12 10 58 13 177 14 l162 0 3 54 c4 61
-22 127 -63 163 -62 54 -167 70 -255 40z m144 -83 c36 -21 53 -56 42 -84 -4
-11 -24 -15 -83 -17 -96 -2 -124 -1 -131 7 -12 11 33 79 63 96 40 24 67 23
109 -2z"/>
<path d="M5355 1673 c-64 -20 -120 -64 -147 -117 -31 -57 -32 -225 -3 -283 42
-80 137 -133 241 -133 54 0 137 29 170 59 62 55 69 76 69 202 0 130 -13 169
-72 223 -67 61 -160 79 -258 49z m157 -110 c79 -71 73 -227 -10 -275 -93 -55
-182 15 -182 142 0 74 23 119 73 144 38 20 91 15 119 -11z"/>
<path d="M6110 1672 c-25 -9 -63 -27 -83 -40 -43 -28 -61 -25 -62 9 0 23 -3
24 -72 27 l-73 3 0 -124 c0 -68 -3 -185 -6 -259 l-7 -135 63 -6 c35 -4 67 -4
71 0 5 5 11 80 15 168 8 182 8 183 91 221 93 43 149 23 173 -61 12 -44 12 -63
-7 -262 l-5 -63 65 0 c47 0 66 4 70 14 14 35 19 285 8 356 -15 92 -42 132
-108 154 -57 20 -75 19 -133 -2z"/>
<path d="M6800 1673 c-25 -9 -59 -26 -77 -39 -42 -32 -61 -31 -65 3 -4 32 -25
40 -97 35 l-48 -4 -6 -251 c-3 -139 -2 -256 3 -260 4 -5 34 -9 66 -10 l59 -2
6 65 c4 36 7 108 8 160 1 114 10 131 86 166 89 40 138 28 171 -41 16 -35 16
-108 -2 -287 l-6 -58 66 0 c36 0 66 1 67 3 1 1 7 61 14 132 10 107 9 147 -2
225 -16 109 -36 139 -111 165 -55 18 -74 18 -132 -2z"/>
<path d="M7359 1672 c-102 -39 -152 -100 -170 -210 -20 -119 15 -219 92 -267
97 -62 293 -48 372 26 22 20 18 31 -35 92 l-25 28 -57 -30 c-66 -36 -102 -39
-156 -11 -43 22 -74 85 -50 100 21 13 155 21 237 14 100 -8 108 -1 100 91 -5
49 -13 74 -32 100 -55 71 -182 103 -276 67z m156 -98 c24 -23 35 -43 33 -57
-3 -20 -10 -22 -98 -28 -52 -3 -101 -3 -107 -1 -34 11 4 86 55 108 49 22 79
16 117 -22z"/>
<path d="M1024 1658 c-4 -6 -7 -74 -7 -150 1 -184 19 -254 84 -320 52 -52 96
-65 199 -55 79 7 129 40 162 108 38 80 48 131 48 260 0 145 -2 149 -79 149
-69 0 -68 2 -63 -126 5 -137 -12 -209 -60 -249 -37 -31 -49 -31 -86 0 -46 39
-62 103 -62 253 l0 129 -46 7 c-66 9 -82 8 -90 -6z"/>
<path d="M3093 1658 c-4 -7 -7 -77 -7 -155 2 -183 19 -247 85 -315 52 -52 96
-65 199 -55 79 7 129 40 162 108 37 78 48 137 48 263 0 141 -2 146 -79 146
-70 0 -69 2 -64 -123 6 -137 -11 -212 -58 -252 -37 -31 -38 -31 -80 -2 -52 35
-68 94 -67 252 l0 130 -38 7 c-60 11 -92 9 -101 -4z"/>
<path d="M2194 1603 c-11 -8 -23 -182 -27 -373 l-2 -75 56 -3 c41 -2 61 1 72
12 19 19 30 154 25 321 l-3 120 -55 3 c-30 1 -60 -1 -66 -5z"/>
<path d="M1130 630 c0 -15 5 -20 18 -18 9 2 17 10 17 18 0 8 -8 16 -17 18 -13
2 -18 -3 -18 -18z"/>
<path d="M1963 643 c-8 -3 -13 -23 -13 -50 l0 -45 -38 7 c-33 5 -41 2 -66 -24
-26 -27 -28 -35 -28 -115 -1 -71 2 -90 18 -107 25 -29 55 -39 78 -27 10 5 32
11 49 11 l32 2 0 174 c0 171 -3 186 -32 174z m-27 -148 c12 -19 15 -42 12 -94
-2 -39 -6 -72 -8 -74 -15 -14 -49 -15 -65 -3 -28 20 -34 142 -8 173 24 30 49
29 69 -2z"/>
<path d="M2547 643 c-4 -3 -7 -25 -7 -48 0 -52 -4 -56 -41 -42 -26 10 -32 9
-54 -13 -31 -31 -47 -108 -35 -170 5 -25 9 -48 10 -53 0 -4 14 -16 31 -26 23
-14 37 -16 57 -10 15 5 39 11 55 14 l27 5 0 169 c0 145 -2 170 -16 175 -19 7
-19 7 -27 -1z m-7 -230 c0 -71 -3 -84 -19 -93 -13 -7 -28 -7 -45 0 -25 9 -26
13 -26 94 0 75 2 85 22 98 20 14 25 14 45 -1 20 -14 22 -25 23 -98z"/>
<path d="M2737 625 c-11 -16 -13 -26 -6 -30 12 -8 49 23 49 42 0 21 -23 15
-43 -12z"/>
<path d="M303 620 c-100 -60 -98 -281 2 -329 39 -19 82 -19 122 1 27 14 34 14
44 2 6 -8 15 -11 20 -8 14 8 11 160 -3 171 -17 13 -89 15 -107 4 -19 -12 -5
-31 23 -31 45 0 60 -45 30 -88 -20 -29 -102 -32 -127 -4 -47 52 -45 185 3 234
45 45 112 36 135 -18 14 -35 41 -45 51 -20 9 24 -28 77 -65 92 -46 19 -90 18
-128 -6z"/>
<path d="M3509 598 c-19 -36 -13 -277 8 -300 9 -10 22 -18 29 -18 22 0 27 20
10 39 -22 24 -23 173 -1 191 8 7 15 18 15 25 0 7 -7 18 -15 25 -8 7 -15 21
-15 31 0 28 -18 32 -31 7z"/>
<path d="M4700 603 c0 -10 -7 -29 -16 -42 -13 -18 -14 -28 -5 -47 6 -14 11
-63 11 -110 0 -93 10 -124 40 -124 26 0 33 15 15 30 -22 18 -21 192 0 210 14
11 14 15 1 29 -8 9 -16 27 -18 40 -4 29 -28 41 -28 14z"/>
<path d="M1015 577 c-15 -45 -4 -259 14 -281 16 -20 51 -21 51 -2 0 7 -7 19
-15 26 -11 9 -15 33 -15 90 0 64 4 82 21 104 l22 27 -22 15 c-12 9 -20 23 -19
32 6 32 -27 23 -37 -11z"/>
<path d="M594 526 c-33 -33 -34 -37 -34 -108 0 -84 14 -112 66 -134 30 -13 38
-12 67 2 38 20 47 31 47 62 0 13 -6 22 -15 22 -8 0 -15 -6 -15 -14 0 -16 -37
-46 -57 -46 -21 0 -53 38 -53 64 0 29 16 36 86 36 l54 0 0 50 c0 41 -5 53 -27
75 -39 36 -77 33 -119 -9z m99 -36 c24 -39 15 -50 -39 -50 -52 0 -64 16 -39
54 23 35 56 34 78 -4z"/>
<path d="M826 539 c-23 -18 -27 -28 -24 -63 3 -35 8 -43 35 -57 84 -42 106
-76 64 -99 -29 -15 -40 -13 -67 17 -20 21 -27 24 -34 14 -14 -23 5 -55 41 -69
29 -11 40 -11 71 2 71 30 59 120 -20 153 -54 23 -65 43 -39 71 l21 22 31 -30
c17 -17 34 -27 38 -24 25 25 -21 84 -65 84 -14 0 -37 -10 -52 -21z"/>
<path d="M1254 526 c-32 -32 -34 -38 -34 -100 0 -78 17 -119 60 -141 26 -13
34 -13 62 -2 55 23 63 41 63 134 0 83 -1 85 -33 114 -43 39 -76 37 -118 -5z
m97 -28 c28 -31 27 -140 -1 -168 -46 -46 -90 -4 -90 85 0 89 48 133 91 83z"/>
<path d="M1532 544 c-18 -13 -26 -13 -38 -3 -8 6 -18 9 -22 5 -4 -4 -9 -61
-10 -127 -3 -103 -1 -120 13 -125 9 -4 18 -4 21 -1 3 3 6 46 7 95 2 73 6 94
21 111 11 12 26 21 34 21 30 0 41 -33 42 -126 0 -64 4 -95 13 -103 8 -6 17 -8
20 -4 4 3 7 55 7 115 0 102 -1 110 -25 133 -28 29 -51 31 -83 9z"/>
<path d="M2088 531 c-32 -29 -33 -31 -33 -114 0 -93 8 -111 62 -134 26 -10 38
-11 60 0 31 13 62 45 63 64 0 27 -24 24 -47 -6 -13 -17 -32 -31 -42 -31 -29 0
-63 39 -59 68 3 26 6 27 73 32 64 5 70 7 73 29 5 35 -5 65 -32 94 -34 37 -76
36 -118 -2z m97 -41 c21 -40 13 -50 -41 -50 -53 0 -64 17 -37 54 25 35 59 33
78 -4z"/>
<path d="M2688 540 c-46 -36 -59 -135 -29 -213 15 -38 68 -60 109 -46 34 12
66 53 58 75 -8 22 -25 17 -38 -11 -14 -30 -37 -39 -72 -25 -24 9 -27 15 -24
47 l3 38 68 3 67 3 0 35 c0 92 -79 144 -142 94z m90 -53 c18 -37 9 -47 -44
-47 -39 0 -44 3 -44 22 0 29 29 60 54 56 12 -2 27 -15 34 -31z"/>
<path d="M2965 551 c-6 -5 -23 -11 -40 -13 l-30 -3 -3 -164 c-2 -122 1 -166
10 -172 20 -13 28 0 28 47 0 36 3 44 18 44 10 0 22 -4 28 -9 5 -6 21 -5 40 3
67 29 74 204 10 258 -23 19 -47 23 -61 9z m57 -82 c4 -19 5 -58 2 -87 -8 -64
-31 -83 -70 -57 -22 14 -24 22 -24 87 0 60 4 76 22 95 19 20 24 22 42 9 11 -7
24 -28 28 -47z"/>
<path d="M3149 531 c-16 -16 -29 -34 -29 -40 0 -19 39 -12 50 9 22 41 85 16
78 -32 -2 -18 -11 -24 -40 -29 -73 -11 -109 -55 -94 -115 9 -36 61 -57 97 -38
21 10 33 11 57 2 37 -14 51 -5 34 22 -7 12 -12 57 -12 112 0 88 -1 94 -27 115
-37 32 -78 30 -114 -6z m101 -155 c0 -47 -55 -80 -84 -51 -21 21 -20 38 2 57
37 33 82 29 82 -6z"/>
<path d="M3420 545 c-14 -8 -33 -12 -42 -9 -16 5 -18 -5 -18 -116 0 -99 3
-122 15 -127 24 -9 29 2 26 63 -3 76 8 144 24 144 7 0 23 9 36 20 21 17 22 21
9 30 -19 12 -20 12 -50 -5z"/>
<path d="M3649 531 c-27 -28 -29 -34 -29 -113 0 -91 11 -114 62 -136 47 -20
118 19 118 65 0 28 -26 31 -34 5 -4 -11 -17 -24 -30 -31 -30 -16 -63 -1 -77
36 -14 38 3 52 74 55 l62 3 3 43 c3 36 -1 47 -27 72 -40 40 -82 40 -122 1z
m101 -35 c21 -41 7 -58 -47 -54 -54 4 -61 15 -33 51 27 34 62 35 80 3z"/>
<path d="M3925 544 c-12 -13 -19 -14 -28 -5 -6 6 -17 11 -24 11 -10 0 -13 -30
-13 -128 0 -71 3 -132 7 -135 3 -4 12 -2 20 4 9 8 13 37 13 95 0 101 13 136
49 132 26 -3 26 -4 31 -113 4 -94 7 -110 23 -113 15 -3 17 6 17 78 0 94 18
150 49 150 32 0 41 -31 41 -134 0 -89 1 -96 20 -96 19 0 20 7 20 106 0 91 -3
110 -21 135 -23 33 -53 37 -81 12 -18 -16 -21 -16 -47 0 -36 21 -55 21 -76 1z"/>
<path d="M4255 540 c-35 -23 -43 -44 -44 -123 -1 -82 18 -123 65 -136 53 -15
114 20 114 66 0 31 -11 29 -43 -7 -31 -34 -43 -37 -75 -14 -17 12 -22 24 -20
47 l3 32 68 3 c46 2 70 7 73 16 10 25 -16 95 -43 115 -32 26 -60 26 -98 1z
m87 -44 c18 -40 5 -56 -47 -56 -40 0 -45 3 -45 22 0 53 71 79 92 34z"/>
<path d="M4522 544 c-7 -13 -13 -14 -31 -5 -19 10 -22 9 -31 -14 -16 -41 -13
-220 3 -234 23 -18 27 -2 27 99 0 104 11 130 57 130 29 0 33 -17 33 -129 0
-102 3 -113 26 -104 11 4 14 29 14 110 0 128 -14 162 -67 163 -12 0 -26 -7
-31 -16z"/>
<path d="M1130 422 c0 -71 3 -132 7 -135 3 -4 12 -2 20 4 9 8 13 41 13 119 0
117 -4 140 -26 140 -11 0 -14 -25 -14 -128z"/>
</g>
</svg>
