<?xml version="1.0" standalone="no"?>
<!DOCTYPE svg PUBLIC "-//W3C//DTD SVG 20010904//EN"
 "http://www.w3.org/TR/2001/REC-SVG-20010904/DTD/svg10.dtd">
<svg version="1.0" xmlns="http://www.w3.org/2000/svg"
 width="300.000000pt" height="300.000000pt" viewBox="0 0 300.000000 300.000000"
 preserveAspectRatio="xMidYMid meet">
<metadata>
Created by potrace 1.10, written by Peter Selinger 2001-2011
</metadata>
<g transform="translate(0.000000,300.000000) scale(0.100000,-0.100000)"
fill="#000000" stroke="none">
<path d="M1485 2879 c-247 -23 -375 -60 -637 -182 -42 -20 -92 -50 -111 -66
-19 -17 -39 -31 -44 -31 -25 0 -208 -174 -199 -189 4 -6 1 -11 -6 -11 -7 0
-19 -9 -26 -21 -11 -17 -11 -20 0 -15 7 4 3 -1 -10 -10 -25 -19 -112 -146
-112 -164 0 -6 -7 -13 -15 -17 -20 -7 -56 -78 -85 -168 -12 -38 -26 -74 -30
-80 -4 -5 -15 -49 -25 -97 -9 -48 -20 -86 -24 -84 -3 3 -5 -14 -4 -37 2 -33 1
-38 -7 -22 -11 24 -13 -2 -13 -215 0 -154 14 -248 59 -397 13 -46 29 -83 34
-83 5 0 1 21 -9 48 -29 72 -77 319 -51 257 7 -16 9 -14 9 15 1 26 -2 31 -9 20
-6 -9 -10 -10 -10 -3 0 6 -3 19 -7 29 -4 12 -3 15 5 10 9 -5 12 28 12 132 0
133 18 274 50 391 18 66 20 44 4 -34 -24 -113 -29 -165 -38 -370 -6 -147 10
-235 80 -425 48 -130 73 -181 138 -279 31 -46 53 -88 50 -93 -3 -5 -2 -7 3 -6
4 2 64 -53 133 -122 116 -116 214 -192 300 -234 l35 -17 -30 23 c-16 12 -46
38 -66 58 -20 19 -56 51 -80 70 -92 72 -266 257 -322 342 -46 70 -130 232
-138 266 -3 14 -8 28 -29 87 -53 143 -63 202 -57 335 9 201 15 257 39 364 12
55 22 115 23 133 0 17 3 30 6 28 3 -2 20 26 38 63 97 198 306 447 427 508 30
15 59 33 65 41 17 19 1 16 -32 -8 -21 -15 -27 -16 -23 -5 6 14 36 30 60 31 6
0 56 22 111 48 61 30 119 50 148 53 49 4 63 9 53 20 -4 3 -16 0 -28 -6 -12 -6
-24 -9 -27 -7 -9 9 34 27 128 52 97 26 137 27 53 2 -70 -21 -33 -32 53 -17
229 40 392 42 533 5 52 -14 101 -26 108 -27 6 -1 12 -5 12 -9 0 -4 -6 -10 -12
-12 -10 -4 -10 -6 -1 -6 6 -1 15 4 18 9 3 6 14 10 23 10 15 -1 15 -2 -2 -15
-22 -17 -14 -20 14 -5 12 6 28 6 49 -1 34 -12 32 -34 -2 -24 -12 4 23 -19 78
-50 55 -32 113 -69 129 -84 16 -14 25 -19 21 -11 -10 18 -34 36 -92 71 -24 14
-40 28 -36 32 6 7 -12 11 -30 8 -5 -1 -6 3 -2 9 6 10 -7 14 -35 10 -11 -1 -12
1 -4 10 9 9 24 6 63 -12 28 -14 54 -21 59 -16 5 5 24 -2 43 -15 60 -41 66 -43
50 -23 -22 27 -94 65 -132 70 -19 3 -60 16 -93 31 -99 44 -263 87 -345 90 -42
1 -76 3 -76 4 0 2 -181 2 -208 1 -9 -1 -15 -5 -12 -10 8 -12 -50 -23 -85 -15
-27 6 -28 8 -15 22 13 12 49 16 176 19 88 3 158 1 156 -3 -3 -5 27 -9 67 -9
80 -2 233 -40 340 -85 81 -34 87 -35 54 -9 -14 10 -69 34 -122 52 -63 21 -92
35 -83 41 7 5 -2 5 -22 2 -18 -4 -31 -3 -28 1 3 5 -11 9 -31 10 -66 2 -206 16
-232 23 -14 4 -61 4 -105 0z m-1333 -1394 c4 -70 3 -96 -3 -70 -8 39 -13 192
-5 184 2 -2 6 -53 8 -114z"/>
<path d="M1953 2842 c1 -12 8 -20 22 -20 33 -1 77 -13 124 -33 24 -11 46 -18
49 -15 6 6 -134 72 -173 82 -19 5 -24 2 -22 -14z"/>
<path d="M1420 2794 c-52 -7 -103 -13 -112 -13 -10 -1 -18 -6 -18 -12 0 -5 4
-8 10 -4 38 23 439 28 424 4 -5 -9 -168 -4 -185 6 -5 4 -9 2 -9 -3 0 -6 22
-15 49 -22 47 -11 72 -9 174 16 21 5 27 3 27 -9 0 -22 113 -74 180 -83 45 -6
62 -14 100 -50 25 -23 70 -54 100 -68 198 -93 320 -201 351 -308 4 -15 6 -28
4 -28 -2 0 -22 19 -44 42 -46 49 -66 45 -27 -6 28 -37 33 -52 14 -40 -7 4 -8
3 -4 -5 4 -6 11 -9 16 -6 4 3 33 -22 63 -55 54 -61 55 -61 60 -33 3 15 1 33
-5 40 -5 7 -6 18 -2 24 4 7 3 9 -3 6 -6 -4 -16 12 -23 36 -7 23 -22 56 -33 72
l-21 30 22 -19 c12 -11 22 -15 22 -9 0 13 -35 44 -43 38 -4 -3 -5 -2 -2 2 8
10 -16 33 -28 26 -5 -3 -7 -2 -4 4 7 11 -57 75 -120 120 -24 16 -40 32 -38 35
3 3 -3 11 -12 19 -17 13 -17 13 -3 -5 14 -18 13 -18 -10 -11 -34 11 -71 41
-62 50 4 5 2 5 -5 1 -7 -4 -20 -2 -30 3 -10 5 -37 17 -61 27 -30 12 -39 20
-30 26 10 6 7 10 -9 14 -13 4 -21 10 -18 14 3 5 -5 6 -17 3 -18 -4 -20 -3 -8
6 12 8 9 13 -20 23 -19 7 -38 11 -42 10 -17 -5 -190 46 -179 52 6 4 15 5 20 1
5 -3 12 -1 15 4 8 12 -15 20 -109 37 -96 17 -187 16 -315 -2z"/>
<path d="M2240 2621 c19 -17 40 -31 45 -31 19 0 85 -50 82 -62 -1 -7 5 -12 13
-13 8 0 14 -7 12 -14 -1 -7 2 -9 8 -6 6 4 21 -1 33 -12 12 -10 6 1 -12 25 -18
23 -37 42 -43 42 -6 0 -7 7 -4 16 3 9 2 12 -5 8 -6 -3 -21 3 -33 15 -13 12
-32 23 -43 26 -12 2 -36 11 -55 20 l-33 16 35 -30z"/>
<path d="M2289 2392 c11 -16 27 -35 36 -42 8 -7 15 -18 15 -24 0 -7 11 -23 25
-36 14 -13 25 -28 25 -34 0 -6 -20 10 -45 34 -24 24 -42 47 -39 51 2 4 -1 11
-7 15 -8 5 -9 3 -4 -7 5 -8 4 -11 -1 -6 -5 5 -9 12 -9 15 0 13 -16 32 -26 32
-17 0 19 -54 55 -83 20 -15 65 -72 101 -125 35 -53 81 -121 101 -150 44 -63
83 -165 94 -242 4 -30 13 -84 19 -118 20 -108 16 -400 -5 -434 -3 -5 0 -24 6
-43 11 -32 8 -44 -39 -151 -73 -169 -124 -245 -244 -361 -166 -162 -325 -254
-535 -311 -86 -23 -116 -26 -267 -26 -130 -1 -190 3 -254 17 -104 23 -227 71
-311 123 -19 11 -56 33 -82 47 -70 39 -192 141 -242 203 -40 48 -146 222 -146
237 0 4 -15 39 -34 79 -45 97 -75 222 -86 359 -5 61 -13 132 -17 158 l-7 46
-6 -55 c-4 -30 -3 -93 2 -140 8 -90 44 -272 58 -299 5 -9 25 -56 46 -106 34
-82 66 -143 110 -210 9 -14 13 -25 10 -25 -11 0 -96 138 -128 208 -50 111 -56
126 -63 154 -4 16 -10 28 -14 28 -3 0 -6 10 -7 23 0 12 -9 58 -19 102 -11 49
-18 125 -19 198 -1 102 -3 114 -13 90 -7 -15 -12 -51 -13 -78 0 -59 17 -205
30 -255 5 -19 19 -78 31 -130 20 -84 45 -147 55 -137 2 2 -6 27 -17 56 -32 86
-15 70 21 -19 49 -122 152 -270 261 -375 94 -91 182 -159 192 -149 10 10 48
-17 41 -28 -4 -7 -3 -8 4 -4 15 9 73 -24 65 -37 -3 -6 -1 -7 6 -3 6 4 49 -8
94 -28 45 -19 95 -38 110 -42 21 -5 25 -9 15 -15 -8 -6 1 -7 22 -3 21 3 30 2
23 -3 -7 -5 4 -9 30 -10 340 -15 375 -15 462 2 233 43 433 142 601 298 62 57
161 177 147 177 -4 0 -1 5 7 10 8 5 15 13 15 17 0 4 17 37 37 73 81 143 129
275 153 419 18 103 17 142 -1 148 -7 2 -15 -32 -22 -91 -16 -126 -32 -200 -42
-189 -5 4 -2 35 6 68 25 108 29 287 8 405 -10 58 -17 120 -17 139 1 20 -6 46
-18 62 -10 15 -19 34 -19 42 0 42 -69 158 -172 290 -16 20 -26 37 -22 37 4 0
3 5 -4 12 -18 18 -14 32 5 17 15 -13 15 -12 5 8 -7 12 -22 23 -34 25 -15 2
-29 16 -41 43 -20 43 -55 85 -69 85 -5 0 0 -13 11 -28z m131 -1675 c0 -1 -26
-27 -57 -57 l-58 -55 55 58 c50 53 60 62 60 54z"/>
<path d="M2526 2109 c92 -141 150 -299 174 -474 7 -49 15 -84 18 -77 8 25 -30
215 -60 301 -36 103 -77 186 -130 264 -55 81 -57 71 -2 -14z"/>
<path d="M1771 1798 c-124 -42 -201 -155 -201 -294 0 -73 26 -159 62 -203 94
-116 318 -158 451 -83 90 50 117 119 83 212 -20 55 -44 46 -82 -31 -39 -79
-69 -106 -129 -115 -70 -10 -127 23 -161 92 -24 49 -26 62 -22 142 3 65 9 98
24 123 29 48 78 79 129 79 67 0 101 -17 141 -71 43 -60 68 -63 84 -13 17 52 7
114 -24 141 -55 47 -244 58 -355 21z m274 -24 c33 -8 63 -18 66 -22 11 -12 20
-142 10 -142 -5 0 -12 14 -16 30 -14 62 -96 120 -170 120 -45 0 -102 -24 -136
-59 -99 -98 -88 -338 19 -419 28 -21 48 -27 102 -30 115 -7 175 40 202 159
l13 54 5 -70 c7 -82 2 -96 -51 -135 -75 -54 -199 -63 -308 -21 -73 27 -117 66
-148 129 -23 47 -28 70 -28 132 0 110 36 184 116 237 79 52 210 67 324 37z"/>
<path d="M927 1792 c-12 -13 -24 -76 -42 -217 -14 -110 -28 -209 -30 -220 -2
-11 -4 -30 -4 -42 -1 -12 -12 -34 -26 -49 -14 -15 -25 -28 -25 -29 0 -7 61 10
69 19 6 7 25 130 43 274 18 144 35 262 38 262 3 0 59 -90 125 -200 66 -110
122 -200 125 -199 3 0 57 89 120 199 63 110 118 200 122 200 5 0 8 -12 8 -27
0 -54 62 -498 71 -509 12 -14 69 -24 69 -12 0 5 -6 11 -14 14 -25 10 -35 54
-65 282 -28 208 -44 272 -69 272 -25 0 -62 -48 -143 -186 -50 -85 -96 -153
-102 -151 -6 2 -52 70 -103 152 -84 135 -122 185 -144 185 -4 0 -14 -8 -23
-18z"/>
<path d="M960 1535 c0 -23 -17 -178 -25 -242 -6 -38 -4 -43 22 -57 27 -15 24
-15 -67 -16 -78 0 -91 -3 -75 -12 31 -19 141 -16 161 3 13 14 14 21 4 39 -13
25 -5 170 10 170 5 0 37 -47 72 -104 95 -156 112 -159 177 -33 58 110 82 143
91 126 15 -28 21 -138 9 -161 -10 -19 -8 -24 12 -41 21 -17 36 -19 121 -15 58
2 103 9 110 16 9 9 -16 12 -118 13 -98 0 -124 3 -107 11 12 6 24 16 26 22 2 6
-3 76 -12 156 l-16 144 -83 -144 c-46 -79 -86 -157 -89 -172 -3 -15 -8 -28
-12 -28 -3 0 -46 70 -96 155 -49 85 -95 163 -102 172 -12 17 -12 17 -13 -2z"/>
<path d="M180 1257 c0 -30 49 -216 75 -279 13 -32 21 -58 19 -58 -3 0 4 -13
15 -29 12 -16 21 -32 21 -35 0 -17 109 -178 165 -245 79 -94 153 -167 135
-132 -11 22 -10 23 6 17 18 -6 18 -5 0 9 -10 8 -22 12 -26 10 -13 -8 -83 73
-75 86 5 7 4 10 -2 6 -23 -14 -122 122 -195 268 -55 110 -81 181 -113 305 -13
52 -24 87 -25 77z"/>
<path d="M390 985 c0 -33 46 -122 115 -220 64 -92 98 -130 213 -238 34 -32 60
-62 57 -67 -3 -5 11 -18 30 -30 19 -12 33 -26 30 -31 -4 -5 0 -6 8 -3 8 3 18
0 23 -7 5 -8 3 -10 -6 -4 -8 5 -11 4 -6 -3 4 -6 12 -9 19 -6 7 2 21 -3 32 -12
11 -8 13 -12 5 -8 -11 5 -12 4 -4 -5 6 -7 22 -14 35 -16 13 -2 74 -21 135 -44
103 -37 190 -58 274 -67 34 -3 34 -3 10 9 -14 6 -27 14 -30 18 -3 4 -32 12
-65 19 -148 31 -277 87 -370 162 -5 5 -41 32 -80 60 -148 109 -261 243 -403
478 -17 27 -22 30 -22 15z"/>
<path d="M390 666 c0 -16 88 -123 142 -171 73 -66 80 -66 17 0 -37 39 -87 96
-113 128 -25 32 -46 51 -46 43z"/>
<path d="M652 376 c21 -20 43 -36 49 -36 6 0 -2 10 -18 23 -54 43 -68 49 -31
13z"/>
<path d="M1266 90 c11 -4 52 -11 90 -14 l69 -5 -70 14 c-38 7 -79 14 -90 14
-19 0 -19 0 1 -9z"/>
</g>
</svg>
